<svg xmlns="http://www.w3.org/2000/svg" width="125.054" height="125.388" viewBox="0 0 125.054 125.388">
  <g id="informe-medico_1_" data-name="informe-medico (1)" transform="translate(-1 -0.834)">
    <g id="Group_1204674" data-name="Group 1204674" transform="translate(3.017 3.186)">
      <g id="Group_1204666" data-name="Group 1204666" transform="translate(48.408)">
        <path id="Path_1271037" data-name="Path 1271037" d="M50.2,14.1v4.034H42.136V14.1a4.034,4.034,0,1,0-8.068,0v4.034H26V14.1a12.1,12.1,0,0,1,24.2,0Z" transform="translate(-26 -2)" fill="#b4dd7f"/>
      </g>
      <g id="Group_1204667" data-name="Group 1204667" transform="translate(16.136 16.136)">
        <path id="Path_1271038" data-name="Path 1271038" d="M96.731,114.884H12.017A2.018,2.018,0,0,1,10,112.867V12.017A2.018,2.018,0,0,1,12.017,10H98.748V112.867A2.018,2.018,0,0,1,96.731,114.884Z" transform="translate(-10 -10)" fill="#e6e9ed"/>
      </g>
      <g id="Group_1204668" data-name="Group 1204668" transform="translate(24.204 24.204)">
        <path id="Path_1271039" data-name="Path 1271039" d="M14,14H86.612v88.748H14Z" transform="translate(-14 -14)" fill="#f0d0b4"/>
      </g>
      <g id="Group_1204669" data-name="Group 1204669" transform="translate(68.578 80.68)">
        <path id="Path_1271040" data-name="Path 1271040" d="M56.17,45.025V62.17H36V42H56.17Z" transform="translate(-36 -42)" fill="#fcd770"/>
      </g>
      <g id="Group_1204670" data-name="Group 1204670" transform="translate(76.646 56.476)">
        <circle id="Ellipse_12770" data-name="Ellipse 12770" cx="4.034" cy="4.034" r="4.034" fill="#e6e9ed"/>
      </g>
      <g id="Group_1204671" data-name="Group 1204671" transform="translate(0 36.306)">
        <path id="Path_1271041" data-name="Path 1271041" d="M56.8,44.2a18.015,18.015,0,0,1-3.731,5.406L30.238,72.442,26.2,68.408,18.136,60.34,7.406,49.609A18.424,18.424,0,0,1,2,36.56V36.5A18.189,18.189,0,0,1,6.014,25.083,13.463,13.463,0,0,1,16.563,20a13.731,13.731,0,0,1,1.573.1,13.407,13.407,0,0,1,7.987,3.852l.081.081,4.034,4.034,4.115-4.115a13.5,13.5,0,0,1,20.109,1.13A18.189,18.189,0,0,1,58.476,36.5v.061A18.057,18.057,0,0,1,56.8,44.2Z" transform="translate(-2 -20)" fill="#ff826e"/>
      </g>
      <g id="Group_1204672" data-name="Group 1204672" transform="translate(80.68 0)">
        <path id="Path_1271042" data-name="Path 1271042" d="M82.34,8.051V23.3A28.273,28.273,0,0,1,66.2,48.855a30.326,30.326,0,0,1-4.034,1.553,30.325,30.325,0,0,1-4.034-1.553A28.209,28.209,0,0,1,42.161,26.184,22.831,22.831,0,0,1,42,23.3V8.051A35.785,35.785,0,0,0,51.722,6.72a36.6,36.6,0,0,0,9.016-3.852L62.17,2l1.432.867A36.521,36.521,0,0,0,82.34,8.051Z" transform="translate(-42 -2)" fill="#aab2bd"/>
      </g>
      <g id="Group_1204673" data-name="Group 1204673" transform="translate(88.748 12.102)">
        <path id="Path_1271043" data-name="Path 1271043" d="M70.2,18.085v4.034a2.023,2.023,0,0,1-2.017,2.017H62.136v6.051A2.023,2.023,0,0,1,60.119,32.2H56.085a2.023,2.023,0,0,1-2.017-2.017V24.136H48.017A2.023,2.023,0,0,1,46,22.119V18.085a2.023,2.023,0,0,1,2.017-2.017h6.051V10.017A2.023,2.023,0,0,1,56.085,8h4.034a2.023,2.023,0,0,1,2.017,2.017v6.051h6.051A2.023,2.023,0,0,1,70.2,18.085Z" transform="translate(-46 -8)" fill="#fcd770"/>
      </g>
    </g>
    <g id="Group_1204675" data-name="Group 1204675" transform="translate(1 0.834)">
      <path id="Path_1271044" data-name="Path 1271044" d="M53.068,11.034v4.034H49.034A4.038,4.038,0,0,0,45,19.1v4.034a4.038,4.038,0,0,0,4.034,4.034h4.034V31.2A4.038,4.038,0,0,0,57.1,35.238h4.034A4.038,4.038,0,0,0,65.17,31.2V27.17H69.2a4.038,4.038,0,0,0,4.034-4.034V19.1A4.038,4.038,0,0,0,69.2,15.068H65.17V11.034A4.038,4.038,0,0,0,61.136,7H57.1A4.038,4.038,0,0,0,53.068,11.034ZM69.2,19.1v4.036H61.136V31.2H57.1V23.136H49.034V19.1H57.1V11.034h4.034V19.1Z" transform="translate(43.748 5.437)"/>
      <path id="Path_1271045" data-name="Path 1271045" d="M124.037,7.22a34.378,34.378,0,0,1-17.693-4.9L103.867.834,101.39,2.319A34.378,34.378,0,0,1,83.7,7.22H81.68V17.3H77.646V15.288a14.119,14.119,0,0,0-28.238,0V17.3H21.17a4.038,4.038,0,0,0-4.034,4.034V37.5A15.439,15.439,0,0,0,5.449,43.308,20.472,20.472,0,0,0,7,70.527L17.136,80.667v41.522a4.038,4.038,0,0,0,4.034,4.034h84.714a4.038,4.038,0,0,0,4.034-4.034V51.271a30.085,30.085,0,0,0,16.136-26.788V7.22ZM97.816,77.048l-4.266,4.8H69.578v24.2h24.2V87.658l4.034-4.538v31H29.238V92.769l2.017,2.017L55.513,70.527a20.489,20.489,0,0,0,3.58-4.815H78.017a6.051,6.051,0,1,0,0-4.034H60.711a20.739,20.739,0,0,0,.8-5.686A20.379,20.379,0,0,0,57.06,43.308a15.54,15.54,0,0,0-23.125-1.281l-2.681,2.681-2.017-2.017V29.407H82.073A30.019,30.019,0,0,0,97.816,51.271ZM83.783,98.906,89.748,92.2v9.823H73.612V85.883H89.748v.242l-6.138,6.9-4.538-4.538L76.22,91.343ZM81.68,63.7A2.017,2.017,0,1,1,83.7,65.713,2.019,2.019,0,0,1,81.68,63.7ZM53.442,15.288a10.085,10.085,0,0,1,20.17,0V17.3H69.578V15.288a6.051,6.051,0,0,0-12.1,0V17.3H53.442Zm12.1,2.017H61.51V15.288a2.017,2.017,0,1,1,4.034,0ZM81.68,21.339v3.147c0,.3.026.591.036.887H25.2v14.1A15.288,15.288,0,0,0,21.17,37.9V21.339ZM5.034,55.993A16.327,16.327,0,0,1,8.6,45.827a11.505,11.505,0,0,1,17.12-.948l5.533,5.533,5.533-5.533a11.505,11.505,0,0,1,17.12.948,16.376,16.376,0,0,1,2.564,15.852H38.076l-4.429,8.863L27.392,51.783,21.821,65.713H17.136v4.034h7.416l2.5-6.241L32.9,81.054l7.673-15.341H54.317a16.725,16.725,0,0,1-1.656,1.963L31.255,89.082,9.849,67.675A16.367,16.367,0,0,1,5.034,55.993Zm100.85,66.2H21.17V84.7L25.2,88.735v29.42H101.85V53.032c.478.169.948.349,1.438.494l.579.173.579-.173c.49-.147.96-.327,1.438-.494Zm16.136-97.7a26.118,26.118,0,0,1-18.153,25,26.118,26.118,0,0,1-18.153-25V11.2A38.438,38.438,0,0,0,103.467,5.78l.4-.242.4.24A38.41,38.41,0,0,0,122.02,11.2Z" transform="translate(-1 -0.834)"/>
      <path id="Path_1271046" data-name="Path 1271046" d="M31,51h4.034v4.034H31Z" transform="translate(29.51 50.185)"/>
      <path id="Path_1271047" data-name="Path 1271047" d="M27,51h4.034v4.034H27Z" transform="translate(25.442 50.185)"/>
      <path id="Path_1271048" data-name="Path 1271048" d="M23,51h4.034v4.034H23Z" transform="translate(21.374 50.185)"/>
      <path id="Path_1271049" data-name="Path 1271049" d="M33,25H45.1v4.034H33Z" transform="translate(31.544 23.743)"/>
      <path id="Path_1271050" data-name="Path 1271050" d="M33,21H45.1v4.034H33Z" transform="translate(31.544 19.675)"/>
      <path id="Path_1271051" data-name="Path 1271051" d="M33,17H45.1v4.034H33Z" transform="translate(31.544 15.607)"/>
    </g>
  </g>
</svg>
