<svg xmlns="http://www.w3.org/2000/svg" width="147.582" height="99.975" viewBox="0 0 147.582 99.975">
  <g id="carton-de-huevos_1_" data-name="carton-de-huevos (1)" transform="translate(-1 -11)">
    <path id="Path_1270991" data-name="Path 1270991" d="M3,69.129V26.282A14.282,14.282,0,0,1,17.282,12h109.5a14.282,14.282,0,0,1,14.282,14.282V69.129" transform="translate(2.761 1.38)" fill="#ccc"/>
    <path id="Path_1270992" data-name="Path 1270992" d="M28.312,48.423a33.8,33.8,0,0,1,2.676-13.394L28.312,27H23.552l-2.676,8.029a33.8,33.8,0,0,1,2.676,13.394Z" transform="translate(27.436 22.086)" fill="#c18e59"/>
    <path id="Path_1270993" data-name="Path 1270993" d="M46.312,48.423a33.8,33.8,0,0,1,2.676-13.394L46.312,27H41.552l-2.676,8.029a33.8,33.8,0,0,1,2.676,13.394Z" transform="translate(52.282 22.086)" fill="#c18e59"/>
    <path id="Path_1270994" data-name="Path 1270994" d="M94.834,50.282,89.728,67.3a9.521,9.521,0,0,1-9.119,6.786h-14.4A9.521,9.521,0,0,1,57.094,67.3L51.987,50.282,46.882,67.3a9.521,9.521,0,0,1-9.119,6.786h-14.4A9.521,9.521,0,0,1,14.247,67.3L10.16,53.674A4.761,4.761,0,0,0,5.6,50.282H2V36H144.821V50.282h-3.6a4.761,4.761,0,0,0-4.561,3.393L132.574,67.3a9.521,9.521,0,0,1-9.119,6.786h-14.4A9.521,9.521,0,0,1,99.94,67.3Z" transform="translate(1.38 34.509)" fill="#d39d6c"/>
    <path id="Path_1270995" data-name="Path 1270995" d="M6,51.184C6,36.723,14.526,25,25.043,25S44.086,36.723,44.086,51.184" transform="translate(6.902 19.325)" fill="#fbe1ca"/>
    <path id="Path_1270996" data-name="Path 1270996" d="M24,51.184C24,36.723,32.526,25,43.043,25S62.086,36.723,62.086,51.184" transform="translate(31.748 19.325)" fill="#fbe1ca"/>
    <path id="Path_1270997" data-name="Path 1270997" d="M42,51.184C42,36.723,50.526,25,61.043,25S80.086,36.723,80.086,51.184" transform="translate(56.595 19.325)" fill="#fbe1ca"/>
    <path id="Path_1270998" data-name="Path 1270998" d="M129.779,34.043h-4.761v-11.9a2.38,2.38,0,0,0-2.38-2.38H13.141a2.38,2.38,0,0,0-2.38,2.38v11.9H6v-11.9A7.141,7.141,0,0,1,13.141,15h109.5a7.141,7.141,0,0,1,7.141,7.141Z" transform="translate(6.902 5.521)" fill="#f2f2f2"/>
    <g id="Group_1204665" data-name="Group 1204665" transform="translate(15.282 77.65)">
      <path id="Path_1270999" data-name="Path 1270999" d="M7,39H26.043v4.761H7Z" transform="translate(-7 -39)" fill="#976947"/>
      <path id="Path_1271000" data-name="Path 1271000" d="M17,39h4.761v4.761H17Z" transform="translate(6.804 -39)" fill="#976947"/>
      <path id="Path_1271001" data-name="Path 1271001" d="M25,39H44.043v4.761H25Z" transform="translate(17.846 -39)" fill="#976947"/>
      <path id="Path_1271002" data-name="Path 1271002" d="M35,39h4.761v4.761H35Z" transform="translate(31.65 -39)" fill="#976947"/>
      <path id="Path_1271003" data-name="Path 1271003" d="M43,39H62.043v4.761H43Z" transform="translate(42.693 -39)" fill="#976947"/>
      <path id="Path_1271004" data-name="Path 1271004" d="M53,39h4.761v4.761H53Z" transform="translate(56.496 -39)" fill="#976947"/>
    </g>
    <path id="Path_1271005" data-name="Path 1271005" d="M146.2,68.129V27.663A16.684,16.684,0,0,0,129.539,11H20.043A16.684,16.684,0,0,0,3.38,27.663V68.129A2.38,2.38,0,0,0,1,70.509V84.791a2.38,2.38,0,0,0,2.38,2.38h3.6a2.366,2.366,0,0,1,2.28,1.7l4.087,13.625a11.828,11.828,0,0,0,11.4,8.481H39.14a11.828,11.828,0,0,0,11.4-8.481l2.825-9.419,2.825,9.419a11.828,11.828,0,0,0,11.4,8.481H81.987a11.828,11.828,0,0,0,11.4-8.481l2.825-9.419,2.825,9.419a11.828,11.828,0,0,0,11.4,8.481h14.392a11.828,11.828,0,0,0,11.4-8.481l4.087-13.625a2.366,2.366,0,0,1,2.28-1.7h3.6a2.38,2.38,0,0,0,2.38-2.38V70.509a2.38,2.38,0,0,0-2.38-2.38ZM8.141,27.663a11.916,11.916,0,0,1,11.9-11.9h109.5a11.916,11.916,0,0,1,11.9,11.9V68.129H138.97c-.912-14.639-10.121-26.184-21.333-26.184a19.486,19.486,0,0,0-15.8,9.343l-.985-2.954a2.38,2.38,0,0,0-2.257-1.628H93.834a2.38,2.38,0,0,0-2.257,1.628l-.985,2.954a19.486,19.486,0,0,0-15.8-9.343,19.486,19.486,0,0,0-15.8,9.343L58,48.334a2.38,2.38,0,0,0-2.257-1.628H50.987a2.38,2.38,0,0,0-2.257,1.628l-.985,2.954a19.486,19.486,0,0,0-15.8-9.343c-11.211,0-20.421,11.545-21.333,26.184H8.141ZM53.458,68.129h-.181a35.672,35.672,0,0,0-2.44-11.064l1.866-5.6h1.328l1.866,5.6a35.672,35.672,0,0,0-2.44,11.064Zm-4.934,0H15.365c.84-12.011,7.955-21.423,16.579-21.423S47.684,56.117,48.524,68.129ZM74.791,46.705c8.624,0,15.739,9.412,16.579,21.423H58.212C59.052,56.117,66.167,46.705,74.791,46.705ZM96.3,68.129h-.181a35.672,35.672,0,0,0-2.44-11.064l1.866-5.6h1.328l1.866,5.6A35.672,35.672,0,0,0,96.3,68.129Zm21.333-21.423c8.624,0,15.739,9.412,16.579,21.423H101.058C101.9,56.117,109.013,46.705,117.638,46.705Zm26.184,35.705H142.6a7.1,7.1,0,0,0-6.841,5.092l-4.08,13.623a7.1,7.1,0,0,1-6.848,5.089H110.442a7.1,7.1,0,0,1-6.848-5.089L98.488,84.108a2.38,2.38,0,0,0-4.561,0l-5.092,17.017a7.1,7.1,0,0,1-6.848,5.089H67.6a7.1,7.1,0,0,1-6.848-5.089L55.641,84.108a2.38,2.38,0,0,0-4.561,0l-5.092,17.017a7.1,7.1,0,0,1-6.848,5.089H24.749a7.1,7.1,0,0,1-6.848-5.089L13.821,87.5a7.1,7.1,0,0,0-6.841-5.092H5.761V72.889H143.821Z" transform="translate(0)"/>
    <path id="Path_1271006" data-name="Path 1271006" d="M10.761,22.141a2.38,2.38,0,0,1,2.38-2.38h109.5a2.38,2.38,0,0,1,2.38,2.38v11.9h4.761v-11.9A7.141,7.141,0,0,0,122.638,15H13.141A7.141,7.141,0,0,0,6,22.141v11.9h4.761Z" transform="translate(6.902 5.521)"/>
    <path id="Path_1271007" data-name="Path 1271007" d="M7,39H26.043v4.761H7Z" transform="translate(8.282 38.65)"/>
    <path id="Path_1271008" data-name="Path 1271008" d="M17,39h4.761v4.761H17Z" transform="translate(22.086 38.65)"/>
    <path id="Path_1271009" data-name="Path 1271009" d="M25,39H44.043v4.761H25Z" transform="translate(33.129 38.65)"/>
    <path id="Path_1271010" data-name="Path 1271010" d="M35,39h4.761v4.761H35Z" transform="translate(46.932 38.65)"/>
    <path id="Path_1271011" data-name="Path 1271011" d="M43,39H62.043v4.761H43Z" transform="translate(57.975 38.65)"/>
    <path id="Path_1271012" data-name="Path 1271012" d="M53,39h4.761v4.761H53Z" transform="translate(71.779 38.65)"/>
  </g>
</svg>
