<svg xmlns="http://www.w3.org/2000/svg" width="116.699" height="129.82" viewBox="0 0 116.699 129.82">
  <g id="sensor-infrarojo" transform="translate(-26.295 -0.524)">
    <g id="Group_1204676" data-name="Group 1204676" transform="translate(116.66 1.967)">
      <path id="Path_1271052" data-name="Path 1271052" d="M395.795,33.411c-1.728.838-3.455,1.7-5.183,2.566L382,7.042c4.243-.686,9.3-2.464,11.076,2.922,2.718,8.587,2.668,8.383,5.411,17.072a5.277,5.277,0,0,1-2.693,6.377Z" transform="translate(-382 -6.204)" fill="#4a6ac5"/>
    </g>
    <g id="Group_1204677" data-name="Group 1204677" transform="translate(32.8 56.383)">
      <path id="Path_1271053" data-name="Path 1271053" d="M55.177,220.4c.356,1.448.711,2.871,1.092,4.268a47.162,47.162,0,0,0-4.37-1.982v-.025Z" transform="translate(-51.9 -220.4)" fill="#6f75db"/>
    </g>
    <g id="Group_1204678" data-name="Group 1204678" transform="translate(27.731 2.805)">
      <path id="Path_1271054" data-name="Path 1271054" d="M122.631,15.394C98.649,19.509,71.365,25.657,47.916,32.161a14.527,14.527,0,0,0-9.908,9.349L32.14,43.263A14.571,14.571,0,0,1,42.632,26.877,793.836,793.836,0,0,1,120.853,9.5Z" transform="translate(-31.949 -9.5)" fill="#6f75db"/>
    </g>
    <g id="Group_1204679" data-name="Group 1204679" transform="translate(32.997 8.698)">
      <path id="Path_1271055" data-name="Path 1271055" d="M97.98,113.918a137.709,137.709,0,0,0,18.7,26.675A136.278,136.278,0,0,1,90.155,147.6q-6.745-21.416-13.464-42.857c-2.134-.737-4.293-1.473-6.427-2.21q-.915-4.42-1.677-8.765a43.73,43.73,0,0,0-11.737-9.12c-1.626-6.072-3.049-12.982-3.989-18.825A14.6,14.6,0,0,1,63.379,49.467c23.448-6.5,50.707-12.651,74.715-16.767l6.859,23.042c-17.859,8.765-35.947,17.783-53.832,26.7-3.43,1.7-4.217,5.868-2.642,9.171A136.765,136.765,0,0,0,97.98,113.918Z" transform="translate(-52.678 -32.7)" fill="#95b8f9"/>
    </g>
    <g id="Group_1204680" data-name="Group 1204680" transform="translate(27.897 34.814)">
      <path id="Path_1271056" data-name="Path 1271056" d="M40.78,157.068l-3.3,2.286a206.616,206.616,0,0,1-4.878-22.1l5.868-1.753a14.437,14.437,0,0,0-.61,7.012C38.6,147.034,39.586,152.115,40.78,157.068Z" transform="translate(-32.6 -135.5)" fill="#eb5161"/>
    </g>
    <g id="Group_1204681" data-name="Group 1204681" transform="translate(31.047 52.14)">
      <path id="Path_1271057" data-name="Path 1271057" d="M45,203.7c.483,2.032,1.016,4.014,1.55,5.945C46.042,207.714,45.508,205.758,45,203.7Z" transform="translate(-45 -203.7)" fill="#ef8454"/>
    </g>
    <g id="Group_1204682" data-name="Group 1204682" transform="translate(33 33.468)">
      <path id="Path_1271058" data-name="Path 1271058" d="M63.208,147.958l-7.444,5.157c-1.194-4.954-2.159-10.035-2.9-14.582a14.492,14.492,0,0,1,.61-7.012l4.446-1.321Z" transform="translate(-52.687 -130.2)" fill="#ef8454"/>
    </g>
    <g id="Group_1204683" data-name="Group 1204683" transform="translate(72.38 118.954)">
      <path id="Path_1271059" data-name="Path 1271059" d="M225.483,466.7l.864,2.9a2.484,2.484,0,0,1-1.7,3.125l-12.7,3.785a2.484,2.484,0,0,1-3.125-1.7l-1.118-3.785A127.9,127.9,0,0,0,225.483,466.7Z" transform="translate(-207.7 -466.7)" fill="#ef8454"/>
    </g>
    <g id="Group_1204684" data-name="Group 1204684" transform="translate(127.736 3.49)">
      <path id="Path_1271060" data-name="Path 1271060" d="M433.12,12.2c2.083,5.614,4.192,11.2,6.275,16.818l-8.383,2.49c-2.744-8.688-2.693-8.485-5.411-17.072C428.09,13.7,430.6,12.937,433.12,12.2Z" transform="translate(-425.6 -12.2)" fill="#ef8454"/>
    </g>
    <g id="Group_1204685" data-name="Group 1204685" transform="translate(50.558 78.561)">
      <path id="Path_1271061" data-name="Path 1271061" d="M141.717,352.742,131.25,347.1c-3.455-12.321-6.859-26.4-9.45-39.4,2.159.737,4.293,1.473,6.427,2.21q6.783,21.416,13.49,42.832Z" transform="translate(-121.8 -307.7)" fill="#4a6ac5"/>
    </g>
    <g id="Group_1204686" data-name="Group 1204686" transform="translate(67.964 55.265)">
      <path id="Path_1271062" data-name="Path 1271062" d="M200.17,216c-.965,5.64-.1,15.929,1.677,21.187-2.871-.94-5.741-1.88-8.587-2.794-.991-2.642-1.829-5.081-2.667-7.647a6.4,6.4,0,0,1,3.176-7.545C195.9,218.134,198.036,217.042,200.17,216Z" transform="translate(-190.317 -216)" fill="#4a6ac5"/>
    </g>
    <g id="Group_1204687" data-name="Group 1204687" transform="translate(26.295 0.524)">
      <path id="Path_1271063" data-name="Path 1271063" d="M29.142,50.209c.838,3.074,1.321,6.4,2.617,9.425,5.767,2.566,11.559,5.945,15.827,10.8,2.9,15.878,6.681,32.213,11.076,47.913a1.454,1.454,0,0,0,.711.889L69.84,124.9a2.316,2.316,0,0,0,1.55.051l.762,2.566a3.988,3.988,0,0,0,4.928,2.667l12.7-3.785a4,4,0,0,0,2.667-4.928l-.457-1.55c1.7-.559,3.506-1.169,5.564-1.956a1.442,1.442,0,0,0,.559-2.312A135.683,135.683,0,0,1,80.128,90.171L93.644,75.995a1.424,1.424,0,0,0,.33-1.4L87.292,52.166c12.829-6.4,25.836-12.829,38.615-19.1,4.039-2.032,9.476-3.633,8.892-9.222l7.139-2.134a1.439,1.439,0,0,0,.94-1.88L136.6,3.008a1.451,1.451,0,0,0-1.753-.889L128.575,4c-2.693-4.9-7.647-3.43-12.169-2.617-13.464,2.286-27.259,5-41.028,8.079C63.234,12.2,50.659,15.329,38.059,18.809A16.008,16.008,0,0,0,26.5,36.77c.737,4.522,1.626,9.044,2.642,13.439Zm4.5,6.1c-1.7-6.2-3-12.448-4.09-18.749l7.7-2.286,4.573,15.37Zm27.64,60.666c-3.328-11.889-6.326-24.261-8.765-36.252l3.379,1.169,12.194,38.767Zm27.666,6.656-12.7,3.785a1.082,1.082,0,0,1-1.346-.737l-.661-2.236a144.793,144.793,0,0,0,14.989-3.658C89.452,121.672,90.29,123.171,88.944,123.628ZM90.976,74.6,78.68,87.5A124.529,124.529,0,0,1,73.4,75.97l5.691,1.855a1.439,1.439,0,0,0,1.829-1.778A51.229,51.229,0,0,1,79.188,56.2l5.487-2.744ZM72.1,59.736c.788-.381,3.3-1.651,4.039-2.032a53.951,53.951,0,0,0,1.321,16.538L72.05,72.489c-1.219-4.09-5.055-9.959.051-12.753ZM134.392,5.243l5.284,14.1-5.538,1.651c-1.143-3.557-3.43-10.8-4.547-14.328Zm-12.347-1.88a3.92,3.92,0,0,1,4.344,2.794l5.411,17.1c1.169,3.887-2.922,5.055-5.614,6.427L118.515,3.948c1.194-.2,2.363-.381,3.531-.584ZM38.821,21.579A782.837,782.837,0,0,1,115.644,4.456L123.545,31c-14.887,7.291-31.4,15.522-46.363,22.991-1.905.94-4.471,2.261-6.4,3.2a7.847,7.847,0,0,0-3.861,9.374,140.235,140.235,0,0,0,27.64,49.412,131.329,131.329,0,0,1-23.042,6q-6.554-20.844-13.109-41.663a1.464,1.464,0,0,0-.915-.94c-1.88-.635-3.76-1.3-5.64-1.956C51.091,74.445,51.04,71.4,50,68.755A43.562,43.562,0,0,0,35.772,58.339l8.612-5.945a1.447,1.447,0,0,0,.559-1.6L39.659,33.036a1.451,1.451,0,0,0-1.8-.965l-8.638,2.566a13.074,13.074,0,0,1,9.6-13.058Z" transform="translate(-26.295 -0.524)"/>
    </g>
    <g id="Group_1204688" data-name="Group 1204688" transform="translate(57.487 17.112)">
      <path id="Path_1271064" data-name="Path 1271064" d="M150.505,78.288c.406.025,39.225-9.577,39.631-9.628a1.439,1.439,0,0,0-.686-2.794l-39.3,9.6A1.433,1.433,0,0,0,150.505,78.288Z" transform="translate(-149.077 -65.819)"/>
    </g>
    <g id="Group_1204689" data-name="Group 1204689" transform="translate(62.089 28.766)">
      <path id="Path_1271065" data-name="Path 1271065" d="M167.27,127.063a1.447,1.447,0,0,0,1.829.889l38.132-13.464a1.438,1.438,0,1,0-.94-2.718l-38.132,13.464a1.427,1.427,0,0,0-.889,1.829Z" transform="translate(-167.191 -111.691)"/>
    </g>
    <g id="Group_1204690" data-name="Group 1204690" transform="translate(113.749 46.602)">
      <path id="Path_1271066" data-name="Path 1271066" d="M371.953,245.791c23.753-9.679,34.677-40.215,23.321-63.079a1.444,1.444,0,0,0-2.617,1.219c10.619,21.441.559,49.412-21.314,59.091A1.465,1.465,0,0,0,371.953,245.791Z" transform="translate(-370.541 -181.898)"/>
    </g>
    <g id="Group_1204691" data-name="Group 1204691" transform="translate(107.621 52.73)">
      <path id="Path_1271067" data-name="Path 1271067" d="M347.838,250.753c16.665-6.554,24.338-28.021,16.386-43.924a1.444,1.444,0,0,0-2.617,1.219c7.189,14.481.381,33.382-14.4,39.936A1.471,1.471,0,0,0,347.838,250.753Z" transform="translate(-346.42 -206.021)"/>
    </g>
    <g id="Group_1204692" data-name="Group 1204692" transform="translate(101.486 58.841)">
      <path id="Path_1271068" data-name="Path 1271068" d="M323.09,252.921a1.444,1.444,0,0,0,.61,2.744c9.552-3.379,14-15.8,9.5-24.769a1.444,1.444,0,0,0-2.617,1.219C334.319,239.635,330.762,249.543,323.09,252.921Z" transform="translate(-322.269 -230.077)"/>
    </g>
  </g>
</svg>
