<svg xmlns="http://www.w3.org/2000/svg" width="136.263" height="101.505" viewBox="0 0 136.263 101.505">
  <g id="nido_5_" data-name="nido (5)" transform="translate(0 -51.017)">
    <path id="Path_1270743" data-name="Path 1270743" d="M137.719,117.218c0,31.524-30.673,53.8-66.577,54.23-35.905-.426-66.578-22.706-66.578-54.23,0-25.285,36.525-35.139,66.578-35.139S137.719,91.933,137.719,117.218Z" transform="translate(-3.009 -20.481)" fill="#d36e2a"/>
    <path id="Path_1270744" data-name="Path 1270744" d="M233.861,93.2c-2.722,16.016-14.091,22.657-26.368,20.57s-20.814-12.11-18.092-28.126,15.671-31.959,27.949-29.872S236.583,77.186,233.861,93.2Z" transform="translate(-124.545 -3.014)" fill="#e5e5e5"/>
    <path id="Path_1270745" data-name="Path 1270745" d="M232.334,116.551c-4.23,11.757-14.2,16.522-24.846,14.7-12.282-2.081-20.82-12.107-18.1-28.123a45.16,45.16,0,0,1,9.783-21.024C199.619,105.2,217.836,117.225,232.334,116.551Z" transform="translate(-124.538 -20.499)" opacity="0.1"/>
    <path id="Path_1270746" data-name="Path 1270746" d="M122.434,88.131c2.646,16.029-5.938,26.012-18.226,28.04s-23.624-4.667-26.27-20.7,4.4-35.321,16.689-37.349,25.161,13.976,27.807,30Z" transform="translate(-51.023 -4.573)" fill="#f9f9f9"/>
    <path id="Path_1270747" data-name="Path 1270747" d="M131.14,124.043a22.855,22.855,0,0,1-12.9-1.4c11.057-6.263,24.448-26.577,16.211-52.756,7.284,5.5,13.216,15.8,14.918,26.11C152.019,112.024,143.432,122.011,131.14,124.043Z" transform="translate(-77.958 -12.442)" opacity="0.1"/>
    <path id="Path_1270748" data-name="Path 1270748" d="M157.734,165.019a30.537,30.537,0,0,1-5.383,14.122c-5.079,7.1-11.858,9.771-17.56,11.924-16.1,6.089-30.732,2.8-39.181.787-10.981-2.621-18.86-4.5-24.629-11.924a29.229,29.229,0,0,1-5.739-14.515c10.18,5.777,27.2,9.333,45.908,9.444,19.127-.112,36.486-3.832,46.584-9.838Z" transform="translate(-43.017 -75.166)" fill="#d36e2a"/>
    <path id="Path_1270749" data-name="Path 1270749" d="M202.828,144.184c0,31.527-30.681,53.806-66.584,54.234a82.325,82.325,0,0,1-32.937-7.118c55.55,2.1,95.978-40.251,87.823-68.315C198.306,128.294,202.828,135.286,202.828,144.184Z" transform="translate(-68.115 -47.451)" opacity="0.1"/>
    <path id="Path_1270750" data-name="Path 1270750" d="M113.312,68.263c-1.549-.676-3.207-1.328-4.929-1.937l-.046-.12c-.071-.186-.142-.371-.218-.554-3.4-8.232-8.747-13.355-15.053-14.427s-13.044,2-18.978,8.643c-.071.079-.139.159-.208.24l-.053.062c-2.116-.085-3.979-.126-5.692-.126-1.946,0-4.027.051-6.359.155C56,53.915,49.455,51.012,43.349,52.022c-6.25,1.029-11.585,6.053-15.031,14.149-1.9.663-3.706,1.366-5.367,2.092C7.936,74.815,0,84.66,0,96.736c0,15.439,7.252,29.645,20.419,40,12.663,9.964,29.613,15.57,47.733,15.784,18.091-.214,35.028-5.819,47.691-15.784,13.168-10.357,20.419-24.563,20.419-40,0-12.075-7.936-21.921-22.951-28.473Zm-5.529,21.662c-.1.561-.209,1.13-.344,1.735-9.287,3.7-21.839,5.964-35.4,6.4a30.1,30.1,0,0,0,.909-14.753,45.125,45.125,0,0,0-3.286-10.9c4.155-9.116,12.2-18.28,20.876-18.28a12.184,12.184,0,0,1,2.007.168c10.264,1.74,15.8,16.118,15.8,28.763A41.179,41.179,0,0,1,107.784,89.925ZM59.959,62.814A41.922,41.922,0,0,1,66.3,72.56l.025.052c.508,1.071.985,2.2,1.42,3.35a41.117,41.117,0,0,1,2.135,7.848A26.262,26.262,0,0,1,68.69,98.129l-.13,0-.416.005c-14.984-.087-29.38-2.477-39.527-6.561-.059-.305-.117-.612-.168-.924A43.74,43.74,0,0,1,31.1,67.581c3.014-7.2,7.547-11.633,12.763-12.492h0a11.345,11.345,0,0,1,1.9-.158C50.492,54.931,55.4,57.656,59.959,62.814Zm4.332.4c1.427-.04,2.688-.06,3.843-.06.982,0,2.035.015,3.282.045a45.819,45.819,0,0,0-3.495,5.655,44.961,44.961,0,0,0-3.63-5.641ZM25.224,90.067a30.269,30.269,0,0,1-7.363-4.845,1.555,1.555,0,1,0-2.124,2.272c8.8,8.22,29.365,13.618,52.405,13.751,23.028-.133,43.591-5.53,52.387-13.751a1.555,1.555,0,0,0-2.123-2.272,30.465,30.465,0,0,1-7.506,4.916,46.8,46.8,0,0,0-1.22-19.971c10.825,4.288,23.472,12.344,23.472,26.569,0,29.108-28.554,52.245-65,52.676C31.68,148.981,3.11,125.843,3.11,96.736c0-14.325,12.815-22.4,23.785-26.687a46.748,46.748,0,0,0-1.671,20.019Zm-8.329,18.354a1.555,1.555,0,0,1,2.5-1.421c7.14,5.549,21.506,11.664,37.5,15.963,23.29.486,46-3.99,59.267-11.679a1.555,1.555,0,0,1,1.559,2.691c-11.3,6.544-28.836,10.844-48.37,11.889a145.492,145.492,0,0,0,36.485,2.883,1.555,1.555,0,0,1,.2,3.1c-2.274.143-4.656.216-7.08.216A170.019,170.019,0,0,1,54.937,125.7c-16-4.379-30-10.452-37.454-16.246a1.541,1.541,0,0,1-.589-1.034ZM46.9,135.055a1.545,1.545,0,0,1,.139,1.182,1.553,1.553,0,0,1-1.92,1.072c-5.138-1.456-13.408-6.257-17.531-11.082a1.555,1.555,0,0,1,2.365-2.02c3.347,3.917,10.83,8.641,16.014,10.11a1.543,1.543,0,0,1,.934.738ZM51.274,111.5a1.56,1.56,0,0,1,1.9-1.107c7.874,2.073,28.977,1.521,41.242-6.926a1.555,1.555,0,1,1,1.764,2.56c-11.456,7.89-27.932,8.5-32.709,8.5a46.261,46.261,0,0,1-11.088-1.13,1.557,1.557,0,0,1-1.108-1.9Z" transform="translate(0 0)" fill="#0f0f0f"/>
  </g>
</svg>
