<svg xmlns="http://www.w3.org/2000/svg" width="136.566" height="136.564" viewBox="0 0 136.566 136.564">
  <g id="herramientas-de-limpieza" transform="translate(-0.999 -1)">
    <g id="Group_1204542" data-name="Group 1204542" transform="translate(3.204 3.203)">
      <g id="Group_1204516" data-name="Group 1204516" transform="translate(79.295 61.674)">
        <path id="Path_1270751" data-name="Path 1270751" d="M38,30H55.621V47.621H38Z" transform="translate(-38 -30)" fill="#aab2bd"/>
      </g>
      <g id="Group_1204517" data-name="Group 1204517" transform="translate(96.916 44.053)">
        <path id="Path_1270752" data-name="Path 1270752" d="M76.837,22V57.242a4.418,4.418,0,0,1-4.405,4.405H50.405A4.418,4.418,0,0,1,46,57.242V39.621h9.78A4.387,4.387,0,0,0,60.053,36.3L63.621,22Z" transform="translate(-46 -22)" fill="#e6e9ed"/>
      </g>
      <g id="Group_1204518" data-name="Group 1204518" transform="translate(70.485 44.053)">
        <path id="Path_1270753" data-name="Path 1270753" d="M42.811,57.242V79.269H34V22h8.811V57.242Z" transform="translate(-34 -22)" fill="#ccd1d9"/>
      </g>
      <g id="Group_1204519" data-name="Group 1204519" transform="translate(66.079 35.242)">
        <path id="Path_1270754" data-name="Path 1270754" d="M98.079,20.2v4.405a2.209,2.209,0,0,1-2.2,2.2H34.2a2.209,2.209,0,0,1-2.2-2.2V20.2A2.209,2.209,0,0,1,34.2,18H95.877A2.209,2.209,0,0,1,98.079,20.2Z" transform="translate(-32 -18)" fill="#ccd1d9"/>
      </g>
      <g id="Group_1204520" data-name="Group 1204520" transform="translate(13.216 74.89)">
        <path id="Path_1270755" data-name="Path 1270755" d="M8,36H52.053V58.026a4.418,4.418,0,0,1-4.405,4.405H12.405A4.418,4.418,0,0,1,8,58.026Z" transform="translate(-8 -36)" fill="#ffeaa7"/>
      </g>
      <g id="Group_1204521" data-name="Group 1204521" transform="translate(8.811 66.079)">
        <path id="Path_1270756" data-name="Path 1270756" d="M14.789,32H56.661a2.209,2.209,0,0,1,2.2,2.2v4.405a2.209,2.209,0,0,1-2.2,2.2H8.2a2.209,2.209,0,0,1-2.2-2.2V34.2A2.209,2.209,0,0,1,8.2,32Z" transform="translate(-6 -32)" fill="#fcd770"/>
      </g>
      <g id="Group_1204522" data-name="Group 1204522" transform="translate(4.229 30.396)">
        <path id="Path_1270757" data-name="Path 1270757" d="M16.189,15.8,31.7,51.483H17.29L3.92,20.712Z" transform="translate(-3.92 -15.8)" fill="#969faa"/>
      </g>
      <g id="Group_1204523" data-name="Group 1204523" transform="translate(0.003 17.621)">
        <path id="Path_1270758" data-name="Path 1270758" d="M14.664,13.965,18.5,22.775,6.228,27.687,2.549,19.251a6.627,6.627,0,0,1,3.414-8.7A6.391,6.391,0,0,1,8.606,10a6.634,6.634,0,0,1,6.057,3.965Z" transform="translate(-2.001 -10)" fill="#aab2bd"/>
      </g>
      <g id="Group_1204524" data-name="Group 1204524" transform="translate(44.053 35.242)">
        <path id="Path_1270759" data-name="Path 1270759" d="M22,18h8.811V48.837H22Z" transform="translate(-22 -18)" fill="#b27946"/>
      </g>
      <g id="Group_1204525" data-name="Group 1204525" transform="translate(37.709 26.432)">
        <path id="Path_1270760" data-name="Path 1270760" d="M29.869,14H40.618a41.158,41.158,0,0,1-2.379,3.524l-3.965,5.286H25.464L21.5,17.524A41.161,41.161,0,0,1,19.12,14H29.869Z" transform="translate(-19.12 -14)" fill="#dfb28b"/>
      </g>
      <g id="Group_1204526" data-name="Group 1204526" transform="translate(48.458 0)">
        <path id="Path_1270761" data-name="Path 1270761" d="M24,28.432V2h8.811a81.251,81.251,0,0,1-4.185,25.749l-.22.683Z" transform="translate(-24 -2)" fill="#cf9e76"/>
      </g>
      <g id="Group_1204527" data-name="Group 1204527" transform="translate(39.648 0)">
        <path id="Path_1270762" data-name="Path 1270762" d="M28.811,2V28.432H24.405l-.22-.683A81.251,81.251,0,0,1,20,2Z" transform="translate(-20 -2)" fill="#cf9e76"/>
      </g>
      <g id="Group_1204528" data-name="Group 1204528" transform="translate(30.837)">
        <path id="Path_1270763" data-name="Path 1270763" d="M24.811,2A81.251,81.251,0,0,0,29,27.749l.22.683H22.872a44.859,44.859,0,0,1-4.493-9.6A46.239,46.239,0,0,1,16,4.2,2.209,2.209,0,0,1,18.2,2Z" transform="translate(-16 -2)" fill="#cf9e76"/>
      </g>
      <g id="Group_1204529" data-name="Group 1204529" transform="translate(52.863 0)">
        <path id="Path_1270764" data-name="Path 1270764" d="M39.216,4.2a46.078,46.078,0,0,1-6.872,24.229H26l.22-.683A81.251,81.251,0,0,0,30.405,2h6.608A2.209,2.209,0,0,1,39.216,4.2Z" transform="translate(-26 -2)" fill="#cf9e76"/>
      </g>
      <g id="Group_1204530" data-name="Group 1204530" transform="translate(74.89 22.026)">
        <path id="Path_1270765" data-name="Path 1270765" d="M54.546,12.463a14.288,14.288,0,0,1,7.885,12.753H36a14.288,14.288,0,0,1,7.885-12.753L44.811,12h8.811Z" transform="translate(-36 -12)" fill="#fcd770"/>
      </g>
      <g id="Group_1204531" data-name="Group 1204531" transform="translate(83.701 13.216)">
        <path id="Path_1270766" data-name="Path 1270766" d="M40,8h8.811v8.811H40Z" transform="translate(-40 -8)" fill="#fcd770"/>
      </g>
      <g id="Group_1204532" data-name="Group 1204532" transform="translate(79.295 4.405)">
        <path id="Path_1270767" data-name="Path 1270767" d="M55.621,6.2v4.405a2.209,2.209,0,0,1-2.2,2.2H40.2a2.209,2.209,0,0,1-2.2-2.2V6.2A2.209,2.209,0,0,1,40.2,4H53.419A2.209,2.209,0,0,1,55.621,6.2Z" transform="translate(-38 -4)" fill="#ff826e"/>
      </g>
      <g id="Group_1204533" data-name="Group 1204533" transform="translate(101.322 22.026)">
        <path id="Path_1270768" data-name="Path 1270768" d="M66.546,12.463a14.288,14.288,0,0,1,7.885,12.753H48a14.288,14.288,0,0,1,7.885-12.753L56.811,12h8.811Z" transform="translate(-48 -12)" fill="#e6e9ed"/>
      </g>
      <g id="Group_1204534" data-name="Group 1204534" transform="translate(110.132 13.216)">
        <path id="Path_1270769" data-name="Path 1270769" d="M52,8h8.811v8.811H52Z" transform="translate(-52 -8)" fill="#ccd1d9"/>
      </g>
      <g id="Group_1204535" data-name="Group 1204535" transform="translate(105.727 4.405)">
        <path id="Path_1270770" data-name="Path 1270770" d="M67.621,6.2v4.405a2.209,2.209,0,0,1-2.2,2.2H52.2a2.209,2.209,0,0,1-2.2-2.2V6.2A2.209,2.209,0,0,1,52.2,4H65.419A2.209,2.209,0,0,1,67.621,6.2Z" transform="translate(-50 -4)" fill="#4fc1e9"/>
      </g>
      <g id="Group_1204536" data-name="Group 1204536" transform="translate(0 101.322)">
        <path id="Path_1270771" data-name="Path 1270771" d="M50.458,48H94.511a22.007,22.007,0,0,0-4.405,13.216H4.2a2.209,2.209,0,0,1-2.2-2.2V50.2A2.209,2.209,0,0,1,4.2,48H50.458Z" transform="translate(-2 -48)" fill="#aab2bd"/>
      </g>
      <g id="Group_1204537" data-name="Group 1204537" transform="translate(88.106 92.511)">
        <path id="Path_1270772" data-name="Path 1270772" d="M86.053,66.026H42a22.026,22.026,0,1,1,44.053,0Z" transform="translate(-42 -44)" fill="#aab2bd"/>
      </g>
      <g id="Group_1204538" data-name="Group 1204538" transform="translate(8.811 114.538)">
        <path id="Path_1270773" data-name="Path 1270773" d="M14.811,55.189v3.216a4.437,4.437,0,0,1-4.405,4.405A4.418,4.418,0,0,1,6,58.405V54h8.811Z" transform="translate(-6 -54)" fill="#ccd1d9"/>
      </g>
      <g id="Group_1204539" data-name="Group 1204539" transform="translate(101.322 114.538)">
        <path id="Path_1270774" data-name="Path 1270774" d="M48,54H65.621A8.811,8.811,0,1,1,48,54Z" transform="translate(-48 -54)" fill="#ccd1d9"/>
      </g>
      <g id="Group_1204540" data-name="Group 1204540" transform="translate(4.405 115.727)">
        <path id="Path_1270775" data-name="Path 1270775" d="M17.216,54.54a8.811,8.811,0,1,1-8.811,0v3.216a4.418,4.418,0,0,0,4.405,4.405,4.437,4.437,0,0,0,4.405-4.405Z" transform="translate(-4 -54.54)" fill="#838f9b"/>
      </g>
      <g id="Group_1204541" data-name="Group 1204541" transform="translate(92.511 114.538)">
        <path id="Path_1270776" data-name="Path 1270776" d="M70.432,54h8.811A17.621,17.621,0,1,1,44,54h8.811a8.811,8.811,0,1,0,17.621,0Z" transform="translate(-44 -54)" fill="#838f9b"/>
      </g>
    </g>
    <path id="Path_1270777" data-name="Path 1270777" d="M98.323,84.7a6.6,6.6,0,0,0,6.2,4.405h22.026A6.616,6.616,0,0,0,133.16,82.5V49.458a4.41,4.41,0,0,0,4.405-4.405V40.648a4.41,4.41,0,0,0-4.405-4.405h-.152a16.328,16.328,0,0,0-8.659-12.348V18.621a4.41,4.41,0,0,0,4.405-4.405V9.811a4.41,4.41,0,0,0-4.405-4.405H111.134a4.41,4.41,0,0,0-4.405,4.405v4.405a4.41,4.41,0,0,0,4.405,4.405v5.271a16.381,16.381,0,0,0-6.608,6.35,16.381,16.381,0,0,0-6.608-6.35V18.621a4.41,4.41,0,0,0,4.405-4.405V9.811a4.41,4.41,0,0,0-4.405-4.405H84.7A4.41,4.41,0,0,0,80.3,9.811v4.405A4.41,4.41,0,0,0,84.7,18.621v5.271a16.335,16.335,0,0,0-8.659,12.35H71.486a4.41,4.41,0,0,0-4.405,4.405v4.405a4.41,4.41,0,0,0,4.405,4.405v52.863H62.27a6.534,6.534,0,0,0,.405-2.2V80.3a4.41,4.41,0,0,0,4.405-4.405V71.485a4.41,4.41,0,0,0-4.405-4.405H58.27v-27.9l3.524-4.7A48.751,48.751,0,0,0,71.486,5.405,4.41,4.41,0,0,0,67.081,1H36.244a4.41,4.41,0,0,0-4.405,4.405A48.766,48.766,0,0,0,41.53,34.48l3.524,4.7v27.9h-8.4L17.891,23.916a8.806,8.806,0,0,0-8.079-5.3A8.819,8.819,0,0,0,1.733,30.947L17.444,67.079H14.217a4.41,4.41,0,0,0-4.405,4.405V75.89A4.41,4.41,0,0,0,14.217,80.3v19.824a6.534,6.534,0,0,0,.405,2.2H5.407A4.41,4.41,0,0,0,1,106.727v8.811a4.41,4.41,0,0,0,4.405,4.405H7.623a11.013,11.013,0,1,0,17.595,0H93.643a19.816,19.816,0,0,0,39.388,0h4.535v-2.2A24.22,24.22,0,0,0,94.66,102.322H84.7V84.7Zm16.6-35.242L112.035,61a2.2,2.2,0,0,1-2.139,1.67H84.7V49.458ZM84.7,67.079H97.918v4.405H84.7Zm0,8.811H97.918V80.3H84.7ZM128.755,82.5a2.206,2.206,0,0,1-2.2,2.2H104.526a2.206,2.206,0,0,1-2.2-2.2V67.079H109.9a6.6,6.6,0,0,0,6.412-5l3.154-12.617h9.293ZM111.134,9.811H124.35l0,4.405H111.134Zm8.811,8.811v4.405h-4.405V18.621Zm-6.555,9.042.467-.231h7.771l.465.231a11.962,11.962,0,0,1,6.438,8.579H106.953A11.964,11.964,0,0,1,113.389,27.663ZM84.7,9.811H97.918l0,4.405H84.7Zm8.811,8.811v4.405H89.107V18.621Zm-6.555,9.042.467-.231H95.2l.465.231a11.962,11.962,0,0,1,6.438,8.579H80.521A11.964,11.964,0,0,1,86.958,27.663ZM71.486,40.648H133.16l0,4.405H71.486Zm-16.52-4.405H48.358l-3.3-4.405H58.27Zm-1.1-8.811V5.405h4.361a79.01,79.01,0,0,1-3.764,22.026Zm-4.405,0h-.6A79.01,79.01,0,0,1,45.1,5.405H49.46Zm11.672,0H59.074A83.452,83.452,0,0,0,62.632,5.405h4.449A44.336,44.336,0,0,1,61.132,27.432ZM40.693,5.405a83.361,83.361,0,0,0,3.557,22.026H42.193A44.336,44.336,0,0,1,36.244,5.405ZM49.46,40.648h4.405V67.079H49.46ZM5.717,25.817a4.384,4.384,0,0,1,2.341-2.43,4.5,4.5,0,0,1,5.793,2.284L16.779,32.4,8.6,35.676,5.775,29.185a4.356,4.356,0,0,1-.057-3.368Zm4.634,13.9,8.183-3.273L31.854,67.079H22.248Zm3.866,31.764H62.676l0,4.405H14.217Zm4.405,28.634V80.3H58.27v19.824a2.206,2.206,0,0,1-2.2,2.2h-2.2V84.7H49.46v17.621H40.649V84.7H36.244v17.621H27.433V84.7H23.028v17.621h-2.2a2.206,2.206,0,0,1-2.2-2.2Zm-4.405,19.824h4.405v2.2a2.2,2.2,0,0,1-4.405,0Zm2.2,13.216a6.616,6.616,0,0,1-6.608-6.608,6.51,6.51,0,0,1,.416-2.17,6.57,6.57,0,0,0,12.383,0,6.509,6.509,0,0,1,.416,2.17A6.616,6.616,0,0,1,16.42,133.159Zm96.916,0a15.429,15.429,0,0,1-15.242-13.216h4.452a11.013,11.013,0,0,0,21.582,0h4.452A15.429,15.429,0,0,1,113.336,133.159Zm-6.2-13.216h12.4a6.568,6.568,0,0,1-12.4,0Zm6.2-22.026a19.852,19.852,0,0,1,19.7,17.621H93.634A19.852,19.852,0,0,1,113.336,97.916Zm-24.13,17.621H5.407v-8.811H91.759A24,24,0,0,0,89.206,115.538ZM75.891,102.322V49.458H80.3v52.863Z" transform="translate(0)"/>
  </g>
</svg>
