<svg xmlns="http://www.w3.org/2000/svg" width="138.273" height="138.273" viewBox="0 0 138.273 138.273">
  <g id="granjero" transform="translate(-1 -1)">
    <g id="Group_1204570" data-name="Group 1204570" transform="translate(3.23 3.23)">
      <g id="Group_1204555" data-name="Group 1204555" transform="translate(17.842 82.719)">
        <path id="Path_1270801" data-name="Path 1270801" d="M41,56.508,43.453,54.5,54.6,65.652l-2.23,2.23L34.22,86.036A14.193,14.193,0,0,1,10,76V59.63a21.672,21.672,0,0,1,.6-5.129,22.1,22.1,0,0,1,3.858-8.252,22.386,22.386,0,0,1,9.122-7.159Z" transform="translate(-10 -39.09)" fill="#b4dd7f"/>
      </g>
      <g id="Group_1204556" data-name="Group 1204556" transform="translate(32.026 111.511)">
        <path id="Path_1270802" data-name="Path 1270802" d="M66.852,74.3H16.36A14.2,14.2,0,0,0,26.4,70.154L44.55,52Z" transform="translate(-16.36 -52)" fill="#b4dd7f"/>
      </g>
      <g id="Group_1204557" data-name="Group 1204557" transform="translate(66.907 53.525)">
        <path id="Path_1270803" data-name="Path 1270803" d="M81.065,57.223V26H98.907V61.683A13.392,13.392,0,0,1,85.525,75.065H54.3V99.6L32,77.295,36.394,72.9a7.764,7.764,0,0,0,2.186-4.282L45.024,53.61Z" transform="translate(-32 -26)" fill="#b4dd7f"/>
      </g>
      <g id="Group_1204558" data-name="Group 1204558" transform="translate(42.263 78.058)">
        <path id="Path_1270804" data-name="Path 1270804" d="M32.213,37l11.151,8.988a7.605,7.605,0,0,0-4.46,2.163h-2.23a6.675,6.675,0,0,0-4.728,1.963L20.95,39.119Z" transform="translate(-20.95 -37)" fill="#a0d468"/>
      </g>
      <g id="Group_1204559" data-name="Group 1204559" transform="translate(64.676 80.288)">
        <path id="Path_1270805" data-name="Path 1270805" d="M46.255,38.847,39.809,53.857a8.157,8.157,0,0,0,.112-1.271,7.919,7.919,0,0,0-7.895-7.895h-.112a6.306,6.306,0,0,0-.914.067L37.691,38Z" transform="translate(-31 -38)" fill="#a0d468"/>
      </g>
      <g id="Group_1204560" data-name="Group 1204560" transform="translate(31.223)">
        <path id="Path_1270806" data-name="Path 1270806" d="M70.707,13.352,73.986,24.3H16l2.23-11.129A13.893,13.893,0,0,1,39.573,4.342a6.534,6.534,0,0,0,3.658,1.115A6.675,6.675,0,0,0,46.2,4.743l2.119-1.071a15.943,15.943,0,0,1,22.391,9.679Z" transform="translate(-16 -2)" fill="#cf9e76"/>
      </g>
      <g id="Group_1204561" data-name="Group 1204561" transform="translate(22.302 22.302)">
        <path id="Path_1270807" data-name="Path 1270807" d="M90.058,14.23v4.46a2.237,2.237,0,0,1-2.23,2.23H14.23A2.237,2.237,0,0,1,12,18.691V14.23A2.237,2.237,0,0,1,14.23,12h73.6A2.237,2.237,0,0,1,90.058,14.23Z" transform="translate(-12 -12)" fill="#b27946"/>
      </g>
      <g id="Group_1204562" data-name="Group 1204562" transform="translate(0 57.986)">
        <path id="Path_1270808" data-name="Path 1270808" d="M24.3,43.612V59.892a22.1,22.1,0,0,0-3.858,8.252H4.23A2.237,2.237,0,0,1,2,65.914V41.381A13.392,13.392,0,0,1,15.381,28h6.691a6.7,6.7,0,0,0-6.691,6.691Z" transform="translate(-2 -28)" fill="#e6e9ed"/>
      </g>
      <g id="Group_1204563" data-name="Group 1204563" transform="translate(13.381 57.986)">
        <path id="Path_1270809" data-name="Path 1270809" d="M45.914,65.914v2.23L43.46,70.151,26.042,52.733l-9.122-9.122L8,34.691A6.7,6.7,0,0,1,14.691,28L36.881,50.191,47.876,61.186a6.675,6.675,0,0,0-1.963,4.728Z" transform="translate(-8 -28)" fill="#d3a06c"/>
      </g>
      <g id="Group_1204564" data-name="Group 1204564" transform="translate(60.216 104.82)">
        <path id="Path_1270810" data-name="Path 1270810" d="M35.691,49l22.3,22.3A6.7,6.7,0,0,1,51.3,77.993L29,55.691l2.23-2.23Z" transform="translate(-29 -49)" fill="#d3a06c"/>
      </g>
      <g id="Group_1204565" data-name="Group 1204565" transform="translate(31.223 31.223)">
        <path id="Path_1270811" data-name="Path 1270811" d="M40.532,16,38.3,24.921h-1.65a7.272,7.272,0,0,0-7.271,7.271v.134A7.447,7.447,0,0,0,32.347,38.3c2.609,1.94,5.955,4.46,5.955,4.46V58.374L31.21,53.423A35.746,35.746,0,0,1,16,24.185V16Z" transform="translate(-16 -16)" fill="#656d78"/>
      </g>
      <g id="Group_1204566" data-name="Group 1204566" transform="translate(111.511 31.223)">
        <path id="Path_1270812" data-name="Path 1270812" d="M74.3,24.921V38.3H56.46L53.9,35.737a6.471,6.471,0,0,1,1.695-10.371l.87-.446a8.921,8.921,0,1,1,17.842,0Z" transform="translate(-52 -16)" fill="#f0d0b4"/>
      </g>
      <g id="Group_1204567" data-name="Group 1204567" transform="translate(51.295 86.978)">
        <path id="Path_1270813" data-name="Path 1270813" d="M47.3,48.895a8.157,8.157,0,0,1-.112,1.271,7.764,7.764,0,0,1-2.186,4.282l-4.394,4.394-4.46,4.46L25,52.151v-2.23a6.7,6.7,0,0,1,6.691-6.691h2.23a7.605,7.605,0,0,1,4.46-2.163A6.306,6.306,0,0,1,39.3,41h.112A7.919,7.919,0,0,1,47.3,48.895Z" transform="translate(-25 -41)" fill="#f0d0b4"/>
      </g>
      <g id="Group_1204568" data-name="Group 1204568" transform="translate(44.604 31.223)">
        <path id="Path_1270814" data-name="Path 1270814" d="M66.6,44.993A13.392,13.392,0,0,1,53.223,58.374h-4.46v6.691l-6.691,6.758L30.921,62.835V42.763s-3.345-2.52-5.955-4.46A7.447,7.447,0,0,1,22,32.325v-.134a7.272,7.272,0,0,1,7.271-7.271h1.65L33.151,16H66.6a42.5,42.5,0,0,1,4.438,17.284l-.022.022A6.632,6.632,0,0,0,66.6,31.612,11.117,11.117,0,0,0,55.453,42.763a2.237,2.237,0,0,0,2.23,2.23H66.6Z" transform="translate(-22 -16)" fill="#f0d0b4"/>
      </g>
      <g id="Group_1204569" data-name="Group 1204569" transform="translate(78.058 46.835)">
        <path id="Path_1270815" data-name="Path 1270815" d="M45.921,36.381H39.23A2.237,2.237,0,0,1,37,34.151,11.117,11.117,0,0,1,48.151,23a6.632,6.632,0,0,1,4.416,1.695,1.8,1.8,0,0,1,.312.268,6.675,6.675,0,0,1,1.963,4.728v4.46a2.237,2.237,0,0,1-2.23,2.23H45.921Z" transform="translate(-37 -23)" fill="#aab2bd"/>
      </g>
    </g>
    <g id="Group_1204571" data-name="Group 1204571" transform="translate(1 1)">
      <path id="Path_1270816" data-name="Path 1270816" d="M41.691,25.691A6.7,6.7,0,0,0,48.381,19h-4.46a2.23,2.23,0,1,1-4.46,0H35A6.7,6.7,0,0,0,41.691,25.691Z" transform="translate(40.827 21.144)"/>
      <path id="Path_1270817" data-name="Path 1270817" d="M20,7h8.921v4.46H20Z" transform="translate(22.374 6.381)"/>
      <path id="Path_1270818" data-name="Path 1270818" d="M26,7h4.46v4.46H26Z" transform="translate(29.755 6.381)"/>
      <path id="Path_1270819" data-name="Path 1270819" d="M32,5h8.921V9.46H32Z" transform="translate(37.137 3.921)"/>
      <path id="Path_1270820" data-name="Path 1270820" d="M128.122,32.223a11.168,11.168,0,0,0-11.062,9.733,8.713,8.713,0,0,0-2,13.814l1.909,1.909V85.514L76.827,81.5V79.058h2.23A15.622,15.622,0,0,0,94.491,65.676H96.9a4.465,4.465,0,0,0,4.46-4.46v-4.46a8.854,8.854,0,0,0-2.342-5.973,44.048,44.048,0,0,0-3.178-14.1h5.52a4.465,4.465,0,0,0,4.46-4.46v-4.46a4.465,4.465,0,0,0-4.46-4.46H94.1l-2.808-9.36A18.048,18.048,0,0,0,73.9,1a18.263,18.263,0,0,0-8.12,1.916L63.645,3.982a4.377,4.377,0,0,1-4.378-.272A16.138,16.138,0,0,0,34.491,13.971L32.624,23.3H27.763a4.465,4.465,0,0,0-4.46,4.46v4.46a4.465,4.465,0,0,0,4.46,4.46h4.46v5.952A37.947,37.947,0,0,0,48.394,73.7l6.131,4.293v1.447l-8.292,1.557L24.225,58.986H16.612A15.629,15.629,0,0,0,1,74.6V99.13a4.465,4.465,0,0,0,4.46,4.46H19.027a24.913,24.913,0,0,0-.185,2.9V122.85a16.443,16.443,0,0,0,16.423,16.423H85.748a8.93,8.93,0,0,0,8.921-8.921v-22.3h28.993a15.63,15.63,0,0,0,15.612-15.612V43.374a11.164,11.164,0,0,0-11.151-11.151Zm-8.8,13.584,2.11-1.055V43.374a6.691,6.691,0,1,1,13.381,0V54.525H120.125l-1.909-1.909a4.288,4.288,0,0,1-1.244-3.006,4.228,4.228,0,0,1,2.351-3.8ZM79.905,86.29,77.287,92.4a10.172,10.172,0,0,0-4.69-3.7l2.837-2.859ZM65.676,109.357l-8.921-8.921V99.13a4.465,4.465,0,0,1,4.46-4.46h3.156l.653-.653a5.409,5.409,0,0,1,3.916-1.577A5.663,5.663,0,0,1,74.6,98.095a5.607,5.607,0,0,1-1.648,3.99ZM92.439,61.216v-4.46h-4.46v4.46h-4.46a8.93,8.93,0,0,1,8.921-8.921,4.465,4.465,0,0,1,4.46,4.46l0,4.46Zm1.856-13.181a8.924,8.924,0,0,0-1.856-.2A13.4,13.4,0,0,0,79.058,61.216a4.465,4.465,0,0,0,4.46,4.46h6.465A11.17,11.17,0,0,1,79.058,74.6H67.907v4.46h4.46V82.6l-4.628,4.668L58.986,80.22V60.1l-6.842-5.132a5.253,5.253,0,0,1-2.079-4.315A5.048,5.048,0,0,1,55.114,45.6H58.5l2.23-8.921H90.98a39.618,39.618,0,0,1,3.314,11.352ZM38.865,14.847A11.677,11.677,0,0,1,56.791,7.421a8.846,8.846,0,0,0,8.847.551L67.77,6.906A13.783,13.783,0,0,1,73.9,5.46a13.614,13.614,0,0,1,13.12,9.762l2.424,8.08H37.174Zm-11.1,12.915h73.6l0,4.46h-73.6Zm23.19,42.28A33.48,33.48,0,0,1,36.683,42.636V36.683H56.129l-1.115,4.46A9.513,9.513,0,0,0,45.6,50.781a9.605,9.605,0,0,0,3.863,7.757l5.058,3.794V72.543Zm5.2,13.627L63.5,89.582a9.72,9.72,0,0,0-.912.627H61.216a8.8,8.8,0,0,0-4.5,1.265l-6.659-6.659Zm-2.6,10.957a8.8,8.8,0,0,0-1.265,4.5V100.3l-.074.06-33.3-33.3a4.47,4.47,0,0,1,3.542-3.533Zm-25.8-12.416,3.151,3.151a24.606,24.606,0,0,0-3.151,2.2ZM5.46,99.13V74.6A11.129,11.129,0,0,1,15.566,63.551a8.817,8.817,0,0,0-1.184,4.356v.923L23.3,77.751V92.388A24.505,24.505,0,0,0,19.97,99.13ZM23.3,122.85V106.487A19.991,19.991,0,0,1,34.228,88.679L48.751,103.2l-7.607,6.225V99.13h-4.46v13.946l-8.1,6.628,2.826,3.455,22.969-18.8,8.147,8.149L43.715,131.32A11.965,11.965,0,0,1,23.3,122.85Zm23.192,11.963c.123-.116.254-.221.375-.339l16.577-16.579,16.918,16.918Zm40.1-.08L66.6,114.741l3.537-3.537L90.128,131.2A4.467,4.467,0,0,1,86.591,134.733Zm37.071-31.143H94.669V99.13h-4.46v25.839L73.29,108.05l2.812-2.812a10.014,10.014,0,0,0,2.768-5.214l5.687-13.27,33.632,3.363,3.9,3.9,3.154-3.154-3.807-3.8V58.986h13.381V92.439a11.164,11.164,0,0,1-11.151,11.151Z" transform="translate(-1 -1)"/>
    </g>
  </g>
</svg>
