<svg id="paca-de-paja" xmlns="http://www.w3.org/2000/svg" width="136.871" height="136.87" viewBox="0 0 136.871 136.87">
  <g id="Group_1204553" data-name="Group 1204553" transform="translate(2.208 2.208)">
    <g id="Group_1204543" data-name="Group 1204543" transform="translate(57.397)">
      <path id="Path_1270778" data-name="Path 1270778" d="M224.83,10.208V27.316a4.417,4.417,0,0,0-3.447-1.656h-1.937A4.417,4.417,0,0,0,216,27.316V10.208A2.207,2.207,0,0,1,218.208,8h4.415A2.207,2.207,0,0,1,224.83,10.208Z" transform="translate(-216 -8)" fill="#cf9e76"/>
    </g>
    <g id="Group_1204544" data-name="Group 1204544" transform="translate(17.661 17.661)">
      <path id="Path_1270779" data-name="Path 1270779" d="M160.3,131.6v2.208H140.057a4.417,4.417,0,0,0-3.124,1.294l-3.121,3.121-3.121-3.121a4.417,4.417,0,0,0-3.124-1.294H109.151a4.417,4.417,0,0,0-3.124,1.294l-3.121,3.121-3.121-3.121a4.417,4.417,0,0,0-3.124-1.294H72V131.6a4.412,4.412,0,0,1,1.766-3.532l5.3-3.974a4.412,4.412,0,0,0,1.766-3.532v-2.053a4.414,4.414,0,0,1,1.965-3.673l3.237-2.158a4.426,4.426,0,0,0,1.835-2.6l1.3-5.2A4.41,4.41,0,0,1,91.476,102l5.083-2.541a4.405,4.405,0,0,0,2.354-3.082l.8-4.015.651-3.253a4.409,4.409,0,0,1,1.681-2.666l6.228-4.669a4.422,4.422,0,0,0,1.634-2.461l.991-3.965a4.362,4.362,0,0,1,.836-1.686v0A4.417,4.417,0,0,1,115.183,72h1.937a4.417,4.417,0,0,1,3.447,1.656v0a4.362,4.362,0,0,1,.836,1.686l.268,1.071.723,2.895a4.422,4.422,0,0,0,1.634,2.461l6.228,4.669a4.409,4.409,0,0,1,1.681,2.666l1.454,7.268a4.405,4.405,0,0,0,2.354,3.082L140.827,102a4.41,4.41,0,0,1,2.307,2.878l1.3,5.2a4.426,4.426,0,0,0,1.835,2.6l3.237,2.158a4.414,4.414,0,0,1,1.965,3.673v2.053a4.412,4.412,0,0,0,1.766,3.532l5.3,3.974A4.412,4.412,0,0,1,160.3,131.6Z" transform="translate(-72 -72)" fill="#dfb28b"/>
    </g>
    <g id="Group_1204545" data-name="Group 1204545" transform="translate(79.473 79.473)">
      <path id="Path_1270780" data-name="Path 1270780" d="M344.567,340.152v2.586a4.418,4.418,0,0,1-1.294,3.124l-1.827,1.827a4.417,4.417,0,0,1-3.124,1.294H302.245a4.417,4.417,0,0,1-3.124-1.294L296,344.567V300.415l3.121-3.121A4.417,4.417,0,0,1,302.245,296h20.246v4.415a17.659,17.659,0,0,0-17.661,17.661v14.932a7.986,7.986,0,0,0,4.415,7.144,7.986,7.986,0,0,0,4.415-7.144V318.076a4.415,4.415,0,0,1,8.83,0v14.932a7.982,7.982,0,0,0,4.415,7.144,7.986,7.986,0,0,0,4.415-7.144V318.076a4.415,4.415,0,0,1,8.83,0v14.932a7.982,7.982,0,0,0,4.415,7.144Z" transform="translate(-296 -296)" fill="#cf9e76"/>
    </g>
    <g id="Group_1204546" data-name="Group 1204546" transform="translate(13.245 79.473)">
      <path id="Path_1270781" data-name="Path 1270781" d="M91.321,318.076v26.491L88.2,347.688a4.417,4.417,0,0,1-3.124,1.294H56c7.315,0,13.245-11.86,13.245-26.491S63.315,296,56,296H85.077a4.417,4.417,0,0,1,3.124,1.294l3.121,3.121Z" transform="translate(-56 -296)" fill="#cf9e76"/>
    </g>
    <g id="Group_1204547" data-name="Group 1204547" transform="translate(48.567 79.473)">
      <path id="Path_1270782" data-name="Path 1270782" d="M214.906,300.415v44.152l-3.121,3.121a4.417,4.417,0,0,1-3.124,1.294H190.245a4.417,4.417,0,0,1-3.124-1.294L184,344.567V300.415l3.121-3.121A4.417,4.417,0,0,1,190.245,296h18.417a4.417,4.417,0,0,1,3.124,1.294Z" transform="translate(-184 -296)" fill="#cf9e76"/>
    </g>
    <g id="Group_1204548" data-name="Group 1204548" transform="translate(0 79.473)">
      <path id="Path_1270783" data-name="Path 1270783" d="M21.245,296c7.315,0,13.245,11.86,13.245,26.491s-5.93,26.491-13.245,26.491S8,337.122,8,322.491,13.93,296,21.245,296Z" transform="translate(-8 -296)" fill="#dfb28b"/>
    </g>
    <g id="Group_1204549" data-name="Group 1204549" transform="translate(8.83 92.718)">
      <ellipse id="Ellipse_12761" data-name="Ellipse 12761" cx="4.5" cy="13.5" rx="4.5" ry="13.5" transform="translate(-0.038 -0.056)" fill="#ecc19c"/>
    </g>
    <g id="Group_1204550" data-name="Group 1204550" transform="translate(105.964 75.058)">
      <path id="Path_1270784" data-name="Path 1270784" d="M400.83,280v8.83H392V280Z" transform="translate(-392 -280)" fill="#969faa"/>
    </g>
    <g id="Group_1204551" data-name="Group 1204551" transform="translate(105.964)">
      <path id="Path_1270785" data-name="Path 1270785" d="M400.83,10.208v72.85H392V10.208A2.207,2.207,0,0,1,394.208,8h4.415A2.207,2.207,0,0,1,400.83,10.208Z" transform="translate(-392 -8)" fill="#969faa"/>
    </g>
    <g id="Group_1204552" data-name="Group 1204552" transform="translate(88.303 83.888)">
      <path id="Path_1270786" data-name="Path 1270786" d="M372.152,329.661v14.932a7.986,7.986,0,0,1-4.415,7.144,7.982,7.982,0,0,1-4.415-7.144V329.661a4.415,4.415,0,1,0-8.83,0v14.932a7.986,7.986,0,0,1-4.415,7.144,7.982,7.982,0,0,1-4.415-7.144V329.661a4.415,4.415,0,1,0-8.83,0v14.932a7.986,7.986,0,0,1-4.415,7.144A7.986,7.986,0,0,1,328,344.592V329.661A17.659,17.659,0,0,1,345.661,312h8.83A17.659,17.659,0,0,1,372.152,329.661Z" transform="translate(-328 -312)" fill="#ccd1d9"/>
    </g>
  </g>
  <g id="Group_1204554" data-name="Group 1204554" transform="translate(0 0)">
    <path id="Path_1270787" data-name="Path 1270787" d="M38.623,336C34.048,336,32,343.761,32,351.453s2.048,15.453,6.623,15.453,6.623-7.761,6.623-15.453S43.2,336,38.623,336Zm0,26.291c-.816-1.036-2.208-4.736-2.208-10.838s1.392-9.8,2.208-10.838c.816,1.036,2.208,4.736,2.208,10.838S39.439,361.254,38.623,362.291Z" transform="translate(-23.17 -243.282)"/>
    <path id="Path_1270788" data-name="Path 1270788" d="M119.209,84.014V4.415A4.42,4.42,0,0,0,114.794,0h-4.415a4.42,4.42,0,0,0-4.415,4.415V72.85L102.432,70.2a2.219,2.219,0,0,1-.883-1.766V66.383a6.609,6.609,0,0,0-2.949-5.51l-3.236-2.158a2.2,2.2,0,0,1-.917-1.3l-1.3-5.2a6.615,6.615,0,0,0-3.463-4.317L84.6,45.351a2.194,2.194,0,0,1-1.177-1.541l-1.453-7.267a6.614,6.614,0,0,0-2.521-4l-6.227-4.67a2.213,2.213,0,0,1-.817-1.23l-.079-.314a8.845,8.845,0,0,0,7.148-8.668H75.058a4.419,4.419,0,0,1-3.844,4.374,6.614,6.614,0,0,0-.571-1.192V4.415A4.42,4.42,0,0,0,66.228,0H61.812A4.42,4.42,0,0,0,57.4,4.415V20.843a6.625,6.625,0,0,0-.77,1.834l-.991,3.965a2.213,2.213,0,0,1-.817,1.231l-6.227,4.67a6.615,6.615,0,0,0-2.521,4l-.438,2.193-.831.416a5.574,5.574,0,0,1-2.48.586,5.516,5.516,0,0,1-4.961-3.066l-.064-.129-3.949,1.974.064.129A9.951,9.951,0,0,0,44.6,43.886a2.191,2.191,0,0,1-1.157,1.464l-5.083,2.541a6.614,6.614,0,0,0-3.463,4.317l-1.3,5.2a2.2,2.2,0,0,1-.917,1.3L29.44,60.872a6.611,6.611,0,0,0-2.949,5.511v2.052a2.218,2.218,0,0,1-.883,1.766l-5.3,3.974a6.654,6.654,0,0,0-2.649,5.3H15.453c-4.418,0-8.445,3.189-11.341,8.979C1.461,93.756,0,100.76,0,108.172s1.461,14.415,4.112,19.719c2.9,5.79,6.923,8.979,11.341,8.979H44.531a6.58,6.58,0,0,0,4.683-1.94l1.561-1.561,1.561,1.561a6.58,6.58,0,0,0,4.683,1.94H75.437a6.58,6.58,0,0,0,4.683-1.94l1.561-1.561,1.561,1.561a6.58,6.58,0,0,0,4.683,1.94H124a6.58,6.58,0,0,0,4.683-1.94l1.829-1.829a6.58,6.58,0,0,0,1.94-4.683v-1.331a10.13,10.13,0,0,0,4.415-8.4V103.756A19.9,19.9,0,0,0,119.21,84.014Zm-8.83-4.541h4.415v4.415h-4.415Zm4.415-75.058V75.058h-4.415V4.415Zm-48.567,0V17.781a6.645,6.645,0,0,0-1.24-.12H63.052a6.645,6.645,0,0,0-1.24.12V4.415ZM22.959,77.707l5.3-3.974a6.654,6.654,0,0,0,2.649-5.3V66.383a2.2,2.2,0,0,1,.983-1.837l3.236-2.158a6.61,6.61,0,0,0,2.751-3.9l1.3-5.2a2.2,2.2,0,0,1,1.154-1.439L45.415,49.3a6.58,6.58,0,0,0,3.532-4.625L50.4,37.408a2.2,2.2,0,0,1,.84-1.333l6.226-4.67a6.642,6.642,0,0,0,2.452-3.692l.991-3.965a2.2,2.2,0,0,1,2.142-1.672h1.936a2.2,2.2,0,0,1,2.142,1.672l.991,3.965a6.64,6.64,0,0,0,2.452,3.692l6.226,4.67a2.2,2.2,0,0,1,.84,1.333l1.453,7.267A6.58,6.58,0,0,0,82.625,49.3l5.083,2.541a2.206,2.206,0,0,1,1.154,1.439l1.3,5.2a6.61,6.61,0,0,0,2.751,3.9l3.236,2.158a2.2,2.2,0,0,1,.983,1.837v2.052a6.655,6.655,0,0,0,2.649,5.3l5.3,3.974a2.219,2.219,0,0,1,.883,1.766H87.925a6.58,6.58,0,0,0-4.683,1.94l-1.561,1.561L80.12,81.413a6.58,6.58,0,0,0-4.683-1.94H57.018a6.58,6.58,0,0,0-4.683,1.94l-1.561,1.561-1.561-1.561a6.58,6.58,0,0,0-4.683-1.94H22.076a2.218,2.218,0,0,1,.883-1.766Zm-14.9,48.209c-2.351-4.7-3.646-11-3.646-17.745S5.71,95.13,8.062,90.427c2.078-4.155,4.772-6.539,7.392-6.539s5.314,2.383,7.392,6.539c2.351,4.7,3.646,11,3.646,17.745s-1.3,13.042-3.646,17.745c-2.078,4.155-4.772,6.539-7.392,6.539S10.139,130.072,8.062,125.916Zm36.469,6.539H23.841a22.76,22.76,0,0,0,2.953-4.564c2.652-5.3,4.113-12.307,4.113-19.719s-1.461-14.415-4.112-19.719a22.772,22.772,0,0,0-2.953-4.564h20.69a2.193,2.193,0,0,1,1.561.647l2.475,2.475v14.539h-8.83v4.415h8.83v23.369l-2.475,2.475A2.194,2.194,0,0,1,44.531,132.455Zm30.906,0H57.019a2.193,2.193,0,0,1-1.561-.647l-2.475-2.475V87.01l2.475-2.475a2.194,2.194,0,0,1,1.561-.647H75.437A2.193,2.193,0,0,1,77,84.535l2.475,2.475v42.323L77,131.808A2.193,2.193,0,0,1,75.437,132.455Zm51.957-2.475-1.829,1.829a2.194,2.194,0,0,1-1.561.647H87.924a2.193,2.193,0,0,1-1.561-.647l-2.475-2.475V87.01l2.475-2.475a2.194,2.194,0,0,1,1.561-.647h18.04v.126A19.9,19.9,0,0,0,88.3,103.756v14.932a10.139,10.139,0,0,0,5.635,9.118l.987.494.987-.494a10.139,10.139,0,0,0,5.635-9.118V103.756a2.208,2.208,0,0,1,4.415,0v14.932a10.139,10.139,0,0,0,5.635,9.118l.987.494.987-.494a10.139,10.139,0,0,0,5.635-9.118V103.756a2.208,2.208,0,0,1,4.415,0v14.932a10.129,10.129,0,0,0,4.415,8.4v1.331a2.194,2.194,0,0,1-.647,1.561Zm5.062-11.292a5.743,5.743,0,0,1-2.208,4.546,5.743,5.743,0,0,1-2.208-4.546V103.756a6.623,6.623,0,0,0-13.245,0v14.932a5.743,5.743,0,0,1-2.208,4.546,5.743,5.743,0,0,1-2.208-4.546V103.756a6.623,6.623,0,1,0-13.245,0v14.932a5.743,5.743,0,0,1-2.208,4.546,5.743,5.743,0,0,1-2.208-4.546V103.756A15.471,15.471,0,0,1,108.172,88.3H117a15.471,15.471,0,0,1,15.453,15.453Z" transform="translate(0 0)"/>
    <path id="Path_1270789" data-name="Path 1270789" d="M128,320h8.83v4.415H128Z" transform="translate(-92.679 -231.697)"/>
    <path id="Path_1270790" data-name="Path 1270790" d="M208,336h17.661v4.415H208Z" transform="translate(-150.603 -243.282)"/>
    <path id="Path_1270791" data-name="Path 1270791" d="M240,368h8.83v4.415H240Z" transform="translate(-173.773 -266.451)"/>
    <path id="Path_1270792" data-name="Path 1270792" d="M208,400h13.245v4.415H208Z" transform="translate(-150.603 -289.621)"/>
    <path id="Path_1270793" data-name="Path 1270793" d="M240,448h8.83v4.415H240Z" transform="translate(-173.773 -324.375)"/>
    <path id="Path_1270794" data-name="Path 1270794" d="M128,432h8.83v4.415H128Z" transform="translate(-92.679 -312.791)"/>
    <path id="Path_1270795" data-name="Path 1270795" d="M197.758,141.358A24,24,0,0,0,201.8,128h-4.415a19.6,19.6,0,0,1-3.3,10.909l-.741,1.112,3.674,2.449Z" transform="translate(-139.99 -92.679)"/>
    <path id="Path_1270796" data-name="Path 1270796" d="M208,208h4.415v13.245H208Z" transform="translate(-150.603 -150.603)"/>
    <path id="Path_1270797" data-name="Path 1270797" d="M160.447,208h-4.415a8.462,8.462,0,0,1-4.7,7.61l-2.907,1.453,1.974,3.949,2.907-1.453A12.853,12.853,0,0,0,160.447,208Z" transform="translate(-107.465 -150.603)"/>
    <path id="Path_1270798" data-name="Path 1270798" d="M263.606,159.082l2.449-3.674a12.639,12.639,0,0,1-5.64-10.538V144H256v.871A17.046,17.046,0,0,0,263.606,159.082Z" transform="translate(-185.357 -104.264)"/>
    <path id="Path_1270799" data-name="Path 1270799" d="M249.987,205.676,252.436,202a18.343,18.343,0,0,1-7.636-10.836l-.277-1.108-4.283,1.071.277,1.108A22.747,22.747,0,0,0,249.987,205.676Z" transform="translate(-173.946 -137.612)"/>
    <path id="Path_1270800" data-name="Path 1270800" d="M0,0H4.415V9.873H0Z" transform="translate(84.071 64.998) rotate(-26.565)"/>
  </g>
</svg>
