<svg xmlns="http://www.w3.org/2000/svg" xmlns:xlink="http://www.w3.org/1999/xlink" width="90" height="90" viewBox="0 0 90 90">
  <defs>
    <clipPath id="clip-path">
      <rect id="Rectangle_411507" data-name="Rectangle 411507" width="63" height="62" transform="translate(-6786 -7097)" fill="#fff" stroke="#707070" stroke-width="1" opacity="0"/>
    </clipPath>
  </defs>
  <g id="Group_1204629" data-name="Group 1204629" transform="translate(6799.639 7111.375)">
    <g id="Group_1204446" data-name="Group 1204446" transform="translate(-6799.639 -7111.375)">
      <g id="Rectangle_411076" data-name="Rectangle 411076" transform="translate(0)" fill="#dfe3bc" stroke="#aeba58" stroke-width="3">
        <rect width="90" height="90" rx="20" stroke="none"/>
        <rect x="1.5" y="1.5" width="87" height="87" rx="18.5" fill="none"/>
      </g>
    </g>
    <g id="Mask_Group_1099381" data-name="Mask Group 1099381" clip-path="url(#clip-path)">
      <g id="tungsteno" transform="translate(-6785.159 -7097)">
        <path id="Path_1270890" data-name="Path 1270890" d="M37.985,9.42H23.332a10.683,10.683,0,0,1-3.963,8.243,17.793,17.793,0,1,0,22.548-.025A10.622,10.622,0,0,1,37.985,9.42Zm0,0" fill="#fdb62f"/>
        <path id="Path_1270891" data-name="Path 1270891" d="M41.918,17.638A10.622,10.622,0,0,1,37.985,9.42H33.8a10.624,10.624,0,0,0,3.932,8.217,17.776,17.776,0,0,1-9.194,31.427.869.869,0,0,1,.089.014A17.785,17.785,0,0,0,41.919,17.637Zm0,0" fill="#ff9f19"/>
        <g id="Group_1204613" data-name="Group 1204613">
          <path id="Path_1270892" data-name="Path 1270892" d="M21.207,23.145,19.631,21.77A14.8,14.8,0,0,1,21.362,20.1l1.329,1.617A12.439,12.439,0,0,0,21.207,23.145Zm0,0" fill="#fdd384"/>
          <path id="Path_1270893" data-name="Path 1270893" d="M18.3,39.29a14.57,14.57,0,0,1-2.219-6.351,14.8,14.8,0,0,1,2.167-9.316l1.772,1.113a12.7,12.7,0,0,0-1.857,7.991,12.455,12.455,0,0,0,1.9,5.433Zm0,0" fill="#fdd384"/>
          <path id="Path_1270894" data-name="Path 1270894" d="M7.716,52.862l5.92-5.92,1.48,1.481L9.2,54.342Zm0,0" fill="#fdd384"/>
          <path id="Path_1270895" data-name="Path 1270895" d="M21.521,61.458l2.167-8.088,2.022.542L23.542,62Zm0,0" fill="#fdd384"/>
          <path id="Path_1270896" data-name="Path 1270896" d="M35.608,53.911l2.022-.542L39.8,61.458,37.775,62Zm0,0" fill="#fdd384"/>
          <path id="Path_1270897" data-name="Path 1270897" d="M46.2,48.422l1.48-1.48,5.92,5.92-1.481,1.481Zm0,0" fill="#fdd384"/>
          <path id="Path_1270898" data-name="Path 1270898" d="M7.716,9.938,9.2,8.457l5.92,5.92-1.481,1.48Zm0,0" fill="#fdd384"/>
          <path id="Path_1270899" data-name="Path 1270899" d="M52.628,38.37l.542-2.022,8.088,2.167-.542,2.022Zm0,0" fill="#fdd384"/>
          <path id="Path_1270900" data-name="Path 1270900" d="M.058,24.283.6,22.261l8.088,2.167L8.146,26.45Zm0,0" fill="#fdd384"/>
          <path id="Path_1270901" data-name="Path 1270901" d="M52.63,24.429l8.088-2.167.542,2.022-8.088,2.167Zm0,0" fill="#fdd384"/>
          <path id="Path_1270902" data-name="Path 1270902" d="M.059,38.516l8.088-2.167.542,2.022L.6,40.538Zm0,0" fill="#fdd384"/>
          <path id="Path_1270903" data-name="Path 1270903" d="M46.2,14.377l5.92-5.92,1.48,1.48-5.92,5.92Zm0,0" fill="#fdd384"/>
        </g>
        <path id="Path_1270904" data-name="Path 1270904" d="M25.426,1.047H35.892A2.093,2.093,0,0,1,37.985,3.14V9.42H23.332V3.14A2.093,2.093,0,0,1,25.426,1.047Zm0,0" fill="#87ced9"/>
        <path id="Path_1270905" data-name="Path 1270905" d="M35.892,1.047H31.706A2.093,2.093,0,0,1,33.8,3.14V9.42h4.187V3.14A2.093,2.093,0,0,0,35.892,1.047Zm0,0" fill="#71bbc7"/>
        <path id="Path_1270906" data-name="Path 1270906" d="M42.58,16.828A9.549,9.549,0,0,1,39.032,9.42V3.14A3.14,3.14,0,0,0,35.892,0H25.426a3.14,3.14,0,0,0-3.14,3.14V9.42a9.624,9.624,0,0,1-3.58,7.431,18.829,18.829,0,0,0,9.8,33.265,19.9,19.9,0,0,0,2.179.123,18.619,18.619,0,0,0,12.53-4.8,18.822,18.822,0,0,0-.641-28.612ZM24.379,3.14a1.046,1.046,0,0,1,1.047-1.047H35.892A1.047,1.047,0,0,1,36.939,3.14V8.373H24.379ZM41.825,43.88A16.74,16.74,0,1,1,20.035,18.471a11.74,11.74,0,0,0,4.3-8H36.986a11.658,11.658,0,0,0,4.269,7.982,16.727,16.727,0,0,1,.57,25.433Zm0,0"/>
        <path id="Path_1270907" data-name="Path 1270907" d="M19.631,21.77l1.576,1.378a12.407,12.407,0,0,1,1.484-1.438L21.362,20.1a14.8,14.8,0,0,0-1.731,1.674Zm0,0"/>
        <path id="Path_1270908" data-name="Path 1270908" d="M20.023,24.737,18.25,23.625a14.8,14.8,0,0,0-2.167,9.316A14.57,14.57,0,0,0,18.3,39.291l1.763-1.128a12.455,12.455,0,0,1-1.9-5.433,12.693,12.693,0,0,1,1.857-7.992Zm0,0"/>
        <path id="Path_1270909" data-name="Path 1270909" d="M7.716,52.862l5.92-5.92,1.48,1.481L9.2,54.342Zm0,0"/>
        <path id="Path_1270910" data-name="Path 1270910" d="M21.521,61.458l2.167-8.088,2.022.542L23.542,62Zm0,0"/>
        <path id="Path_1270911" data-name="Path 1270911" d="M35.608,53.911l2.022-.542L39.8,61.458,37.775,62Zm0,0"/>
        <path id="Path_1270912" data-name="Path 1270912" d="M46.2,48.422l1.48-1.48,5.92,5.92-1.481,1.481Zm0,0"/>
        <path id="Path_1270913" data-name="Path 1270913" d="M7.716,9.938,9.2,8.457l5.92,5.92-1.481,1.48Zm0,0"/>
        <path id="Path_1270914" data-name="Path 1270914" d="M52.628,38.37l.542-2.022,8.088,2.167-.542,2.022Zm0,0"/>
        <path id="Path_1270915" data-name="Path 1270915" d="M.058,24.283.6,22.261l8.088,2.167L8.146,26.45Zm0,0"/>
        <path id="Path_1270916" data-name="Path 1270916" d="M52.63,24.429l8.088-2.167.542,2.022-8.088,2.167Zm0,0"/>
        <path id="Path_1270917" data-name="Path 1270917" d="M.058,38.515l8.088-2.167.542,2.022L.6,40.538Zm0,0"/>
        <path id="Path_1270918" data-name="Path 1270918" d="M46.2,14.377l5.92-5.92,1.48,1.48-5.92,5.92Zm0,0"/>
      </g>
    </g>
  </g>
</svg>
