<svg xmlns="http://www.w3.org/2000/svg" xmlns:xlink="http://www.w3.org/1999/xlink" width="90" height="90" viewBox="0 0 90 90">
  <defs>
    <clipPath id="clip-path">
      <rect id="Rectangle_411506" data-name="Rectangle 411506" width="63" height="62" transform="translate(-6763 -7339)" fill="#fff" stroke="#707070" stroke-width="1" opacity="0"/>
    </clipPath>
  </defs>
  <g id="Group_1204660" data-name="Group 1204660" transform="translate(6776.353 7352.682)">
    <g id="Group_1204418" data-name="Group 1204418" transform="translate(-7584.134 -9324.682)">
      <g id="Rectangle_411073" data-name="Rectangle 411073" transform="translate(807.781 1972)" fill="#f5dec7" stroke="#e7af74" stroke-width="3">
        <rect width="90" height="90" rx="20" stroke="none"/>
        <rect x="1.5" y="1.5" width="87" height="87" rx="18.5" fill="none"/>
      </g>
    </g>
    <g id="Mask_Group_1099385" data-name="Mask Group 1099385" clip-path="url(#clip-path)">
      <g id="calcio" transform="translate(-6762.5 -7339)">
        <path id="Path_1270953" data-name="Path 1270953" d="M1.211,1.211H60.789V60.789H1.211Z" fill="#ff943e"/>
        <path id="Path_1270954" data-name="Path 1270954" d="M50.711,55.461H11.289a4.75,4.75,0,0,1-4.75-4.75V11.289a4.75,4.75,0,0,1,4.75-4.75H50.711a4.75,4.75,0,0,1,4.75,4.75V50.711a4.75,4.75,0,0,1-4.75,4.75Z" fill="#ffbf8b"/>
        <g id="Group_1204657" data-name="Group 1204657">
          <path id="Path_1270955" data-name="Path 1270955" d="M60.789,0H1.211A1.211,1.211,0,0,0,0,1.211V60.789A1.211,1.211,0,0,0,1.211,62H60.789A1.211,1.211,0,0,0,62,60.789V1.211A1.211,1.211,0,0,0,60.789,0ZM59.578,59.578H2.422V2.422H59.578Z"/>
          <path id="Path_1270956" data-name="Path 1270956" d="M40.19,19.6v-4.3a3.9,3.9,0,0,0-7.805,0v4.3a3.9,3.9,0,0,0,7.805,0Zm-5.383,0v-4.3a1.481,1.481,0,0,1,2.961,0v4.3a1.481,1.481,0,0,1-2.961,0Z"/>
          <path id="Path_1270957" data-name="Path 1270957" d="M29.067,15.043a3.7,3.7,0,0,0-3.651-3.651,3.658,3.658,0,0,0-3.583,2.945,1.211,1.211,0,1,0,2.376.467,1.231,1.231,0,0,1,1.207-.99,1.3,1.3,0,0,1,1.23,1.23,3.9,3.9,0,0,1-.84,1.742c-3.014,4.278-3.372,4.776-3.385,4.794A1.211,1.211,0,0,0,23.4,23.5h4.86a1.211,1.211,0,0,0,0-2.422H25.741c.488-.692,1.15-1.63,2.044-2.9a5.624,5.624,0,0,0,1.282-3.137Z"/>
          <path id="Path_1270958" data-name="Path 1270958" d="M13.575,37.539A10.426,10.426,0,0,0,23.989,47.953a8.455,8.455,0,0,0,6.726-3.031,1.211,1.211,0,0,0-1.856-1.556,6.034,6.034,0,0,1-4.87,2.165,7.992,7.992,0,1,1,4.468-14.62A1.211,1.211,0,1,0,29.813,28.9a10.415,10.415,0,0,0-16.238,8.635Z"/>
          <path id="Path_1270959" data-name="Path 1270959" d="M47.214,47.953a1.211,1.211,0,0,0,1.211-1.211V36.328a1.211,1.211,0,0,0-2.422,0v.19a6.418,6.418,0,1,0,0,10.033v.19A1.211,1.211,0,0,0,47.214,47.953Zm-5.207-2.422a4,4,0,1,1,4-4A4,4,0,0,1,42.007,45.531Z"/>
          <path id="Path_1270960" data-name="Path 1270960" d="M11.289,56.672H25.551a1.211,1.211,0,0,0,0-2.422H11.289A3.543,3.543,0,0,1,7.75,50.711V11.289A3.543,3.543,0,0,1,11.289,7.75H50.711a3.543,3.543,0,0,1,3.539,3.539V50.711a3.543,3.543,0,0,1-3.539,3.539H36.449a1.211,1.211,0,0,0,0,2.422H50.711a5.967,5.967,0,0,0,5.961-5.961V11.289a5.967,5.967,0,0,0-5.961-5.961H11.289a5.967,5.967,0,0,0-5.961,5.961V50.711a5.967,5.967,0,0,0,5.961,5.961Z"/>
          <circle id="Ellipse_12765" data-name="Ellipse 12765" cx="1.211" cy="1.211" r="1.211" transform="translate(29.789 54.25)"/>
        </g>
      </g>
    </g>
  </g>
</svg>
