<svg id="publicidad" xmlns="http://www.w3.org/2000/svg" width="127.984" height="127.984" viewBox="0 0 127.984 127.984">
  <g id="Group_1204951" data-name="Group 1204951" transform="translate(2.064 2.064)">
    <g id="Group_1204934" data-name="Group 1204934" transform="translate(41.285)">
      <path id="Path_1274367" data-name="Path 1274367" d="M37.514,13.138a35.427,35.427,0,0,0-8.257-2.952V3.064A2.07,2.07,0,0,1,31.321,1h70.185a2.07,2.07,0,0,1,2.064,2.064V106.277a2.07,2.07,0,0,1-2.064,2.064H33.386a4.159,4.159,0,0,0,4.129-4.129,4.141,4.141,0,0,0-4.129-4.129,4.159,4.159,0,0,0,4.129-4.129,4.141,4.141,0,0,0-4.129-4.129H29.257a3.616,3.616,0,0,0-.826.083l-.021-.206a6.068,6.068,0,0,0,3.158-1.693,6.178,6.178,0,0,0,1.817-4.376,2.07,2.07,0,0,0-2.064-2.064H21A37.16,37.16,0,0,0,58.157,46.414,36.911,36.911,0,0,0,54.276,29.9H93.249a2.07,2.07,0,0,0,2.064-2.064V11.321a2.07,2.07,0,0,0-2.064-2.064L39.578,9.2a2.07,2.07,0,0,0-2.064,2.064v1.858Z" transform="translate(-21 -1)" fill="#ffeaa7"/>
    </g>
    <g id="Group_1204935" data-name="Group 1204935" transform="translate(57.799 8.195)">
      <path id="Path_1274368" data-name="Path 1274368" d="M31.064,4.97l53.671.062A2.07,2.07,0,0,1,86.8,7.1V23.61a2.07,2.07,0,0,1-2.064,2.064H45.762A37.02,37.02,0,0,0,29,8.913V7.034A2.07,2.07,0,0,1,31.064,4.97Z" transform="translate(-29 -4.97)" fill="#ff826e"/>
    </g>
    <g id="Group_1204936" data-name="Group 1204936" transform="translate(94.956 78.442)">
      <path id="Path_1274369" data-name="Path 1274369" d="M67.643,41.064V57.578a2.07,2.07,0,0,1-2.064,2.064H49.064A2.07,2.07,0,0,1,47,57.578V41.064A2.07,2.07,0,0,1,49.064,39H65.578A2.07,2.07,0,0,1,67.643,41.064Z" transform="translate(-47 -39)" fill="#b4dd7f"/>
    </g>
    <g id="Group_1204937" data-name="Group 1204937" transform="translate(66.056 78.442)">
      <path id="Path_1274370" data-name="Path 1274370" d="M53.643,41.064V57.578a2.07,2.07,0,0,1-2.064,2.064H35.064A2.07,2.07,0,0,1,33,57.578V41.064A2.07,2.07,0,0,1,35.064,39H51.578A2.07,2.07,0,0,1,53.643,41.064Z" transform="translate(-33 -39)" fill="#b4dd7f"/>
    </g>
    <g id="Group_1204938" data-name="Group 1204938" transform="translate(0 90.828)">
      <path id="Path_1274371" data-name="Path 1274371" d="M13.386,47.064V67.707a2.07,2.07,0,0,1-2.064,2.064H1V45H11.321A2.07,2.07,0,0,1,13.386,47.064Z" transform="translate(-1 -45)" fill="#e6e9ed"/>
    </g>
    <g id="Group_1204939" data-name="Group 1204939" transform="translate(45.414 90.828)">
      <path id="Path_1274372" data-name="Path 1274372" d="M31.257,45a4.141,4.141,0,0,1,4.129,4.129,4.159,4.159,0,0,1-4.129,4.129H27.129A4.141,4.141,0,0,1,23,49.129a4.036,4.036,0,0,1,1.218-2.911A4.145,4.145,0,0,1,26.3,45.083,3.617,3.617,0,0,1,27.129,45Z" transform="translate(-23 -45)" fill="#f0d0b4"/>
    </g>
    <g id="Group_1204940" data-name="Group 1204940" transform="translate(45.414 99.085)">
      <path id="Path_1274373" data-name="Path 1274373" d="M31.257,49a4.141,4.141,0,0,1,4.129,4.129,4.159,4.159,0,0,1-4.129,4.129H27.129A4.141,4.141,0,0,1,23,53.129,4.159,4.159,0,0,1,27.129,49Z" transform="translate(-23 -49)" fill="#f0d0b4"/>
    </g>
    <g id="Group_1204941" data-name="Group 1204941" transform="translate(45.414 107.342)">
      <path id="Path_1274374" data-name="Path 1274374" d="M27.129,61.257A4.141,4.141,0,0,1,23,57.129,4.159,4.159,0,0,1,27.129,53h4.129a4.141,4.141,0,0,1,4.129,4.129,4.159,4.159,0,0,1-4.129,4.129Z" transform="translate(-23 -53)" fill="#f0d0b4"/>
    </g>
    <g id="Group_1204942" data-name="Group 1204942" transform="translate(12.386 82.57)">
      <path id="Path_1274375" data-name="Path 1274375" d="M31.771,71.964v6.193H21.945A21.159,21.159,0,0,1,7,71.964V51.321A21.255,21.255,0,0,1,25.227,41H46.221a2.07,2.07,0,0,1,2.064,2.064,6.178,6.178,0,0,1-1.817,4.376,6.068,6.068,0,0,1-3.158,1.693,5.946,5.946,0,0,1-1.218.124H35.9c-.557,1.094-1.28,2.085-4.129,4.5Z" transform="translate(-7 -41)" fill="#f0d0b4"/>
    </g>
    <g id="Group_1204943" data-name="Group 1204943" transform="translate(37.157 90.704)">
      <path id="Path_1274376" data-name="Path 1274376" d="M28.475,46.282a4.036,4.036,0,0,0-1.218,2.911,4.141,4.141,0,0,0,4.129,4.129,4.159,4.159,0,0,0-4.129,4.129,4.141,4.141,0,0,0,4.129,4.129,4.159,4.159,0,0,0-4.129,4.129,4.141,4.141,0,0,0,4.129,4.129v4.129a4.141,4.141,0,0,1-4.129,4.129H23.129A4.141,4.141,0,0,1,19,73.964v-24.4c2.849-2.415,3.571-3.406,4.129-4.5h6.193a5.946,5.946,0,0,0,1.218-.124l.021.206a4.145,4.145,0,0,0-2.085,1.135Z" transform="translate(-19 -44.94)" fill="#969faa"/>
    </g>
    <g id="Group_1204944" data-name="Group 1204944" transform="translate(4.129 8.257)">
      <path id="Path_1274377" data-name="Path 1274377" d="M73.433,25.643A37.151,37.151,0,1,1,40.157,5a36.424,36.424,0,0,1,8.257.929,35.427,35.427,0,0,1,8.257,2.952A37.02,37.02,0,0,1,73.433,25.643Z" transform="translate(-3 -5)" fill="#ccd1d9"/>
    </g>
    <g id="Group_1204945" data-name="Group 1204945" transform="translate(12.386 16.514)">
      <path id="Path_1274378" data-name="Path 1274378" d="M35.9,9A28.9,28.9,0,1,1,7,37.9,28.9,28.9,0,0,1,35.9,9Z" transform="translate(-7 -9)" fill="#69d6f4"/>
    </g>
    <g id="Group_1204946" data-name="Group 1204946" transform="translate(33.028 49.542)">
      <path id="Path_1274379" data-name="Path 1274379" d="M25.257,29.129V39.45a2.07,2.07,0,0,1-2.064,2.064H19.064A2.07,2.07,0,0,1,17,39.45V25Z" transform="translate(-17 -25)" fill="#aab2bd"/>
    </g>
    <g id="Group_1204947" data-name="Group 1204947" transform="translate(33.028 33.028)">
      <path id="Path_1274380" data-name="Path 1274380" d="M29.386,17V39.707l-4.129-2.064L17,33.514V21.129Z" transform="translate(-17 -17)" fill="#e6e9ed"/>
    </g>
    <g id="Group_1204948" data-name="Group 1204948" transform="translate(53.671 37.157)">
      <path id="Path_1274381" data-name="Path 1274381" d="M31.252,20.053a5.3,5.3,0,0,1,0,10.28L27,31.386V19Z" transform="translate(-27 -19)" fill="#fcd770"/>
    </g>
    <g id="Group_1204949" data-name="Group 1204949" transform="translate(45.414 28.9)">
      <path id="Path_1274382" data-name="Path 1274382" d="M31.257,35.643v6.193A2.07,2.07,0,0,1,29.193,43.9H25.064A2.07,2.07,0,0,1,23,41.835V17.064A2.07,2.07,0,0,1,25.064,15h4.129a2.07,2.07,0,0,1,2.064,2.064V35.643Z" transform="translate(-23 -15)" fill="#ff826e"/>
    </g>
    <g id="Group_1204950" data-name="Group 1204950" transform="translate(20.643 37.157)">
      <path id="Path_1274383" data-name="Path 1274383" d="M23.386,19V31.386H17.193a6.193,6.193,0,0,1,0-12.386Z" transform="translate(-11 -19)" fill="#ff826e"/>
    </g>
  </g>
  <g id="Group_1204952" data-name="Group 1204952" transform="translate(0 0)">
    <path id="Path_1274384" data-name="Path 1274384" d="M34.771,51.157V44.175l.264.132A4.12,4.12,0,0,0,38.9,47.028h4.129A4.133,4.133,0,0,0,47.157,42.9V38.319l2.688-.673a7.351,7.351,0,0,0,0-14.264l-2.688-.673V18.129A4.133,4.133,0,0,0,43.028,14H38.9a4.133,4.133,0,0,0-4.129,4.129V18.7L24.115,22.257H18.257a8.257,8.257,0,0,0,0,16.514h4.129V51.157a4.133,4.133,0,0,0,4.129,4.129h4.129A4.133,4.133,0,0,0,34.771,51.157Zm14.072-23.77a3.224,3.224,0,0,1,0,6.255l-1.686.421v-7.1ZM38.9,18.129h4.129l0,24.771H38.9ZM34.771,39.56l-8.257-4.129V25.81l8.257-2.752ZM18.257,34.643a4.129,4.129,0,1,1,0-8.257h4.129v8.257Zm8.257,16.514V40.047l4.129,2.064v9.046Z" transform="translate(10.643 14.9)"/>
    <path id="Path_1274385" data-name="Path 1274385" d="M67.928,38.964A30.964,30.964,0,1,0,36.964,69.928,31,31,0,0,0,67.928,38.964Zm-57.8,0A26.835,26.835,0,1,1,36.964,65.8,26.866,26.866,0,0,1,10.129,38.964Z" transform="translate(6.386 8.514)"/>
    <path id="Path_1274386" data-name="Path 1274386" d="M123.856,0H53.671a4.133,4.133,0,0,0-4.129,4.129V8.8A39.174,39.174,0,0,0,27.318,83.235a23.485,23.485,0,0,0-12.9,8.152,4.079,4.079,0,0,0-2.037-.559H0v28.9H12.386a4.074,4.074,0,0,0,2.572-.927A23.019,23.019,0,0,0,29.4,123.856h8.137a6.184,6.184,0,0,0,5.813,4.129h4.129a6.2,6.2,0,0,0,6.193-6.193v-2.064h2.064a6.2,6.2,0,0,0,6.193-6.193,6.123,6.123,0,0,0-.38-2.064h62.308a4.133,4.133,0,0,0,4.129-4.129V4.129A4.133,4.133,0,0,0,123.856,0ZM12.386,115.6H4.129V94.956h8.257ZM8.257,47.478A35.092,35.092,0,1,1,43.35,82.57,35.132,35.132,0,0,1,8.257,47.478ZM61.926,12.322l53.673.064V28.9H77.878A39.484,39.484,0,0,0,61.926,12.949ZM49.542,105.277a2.065,2.065,0,0,1,2.064-2.064h4.129a2.064,2.064,0,1,1,0,4.129H51.607A2.065,2.065,0,0,1,49.542,105.277Zm6.193-6.193H51.607a2.064,2.064,0,0,1,0-4.129h4.129a2.064,2.064,0,0,1,0,4.129Zm-39.221,15.6V95.594A19.28,19.28,0,0,1,32.679,86.7H53.671a4.133,4.133,0,0,1-4.129,4.129H42.074l-.57,1.142a9.024,9.024,0,0,1-5.249,4.554l-1.814.6,1.307,3.914,1.41-.471v9.31a21.164,21.164,0,0,0-7.6-4.5L28.245,109.3a17.064,17.064,0,0,1,8.748,6.682l.163.246v3.5H29.4a18.929,18.929,0,0,1-12.885-5.039Zm30.964,9.167H43.35a2.065,2.065,0,0,1-2.064-2.064V98.469a13.069,13.069,0,0,0,3.268-3.513h1.241a6,6,0,0,0,1.23,6.193,6.1,6.1,0,0,0,0,8.257,6.136,6.136,0,0,0,2.518,9.941v2.444A2.065,2.065,0,0,1,47.478,123.856ZM57.8,113.534a2.065,2.065,0,0,1-2.064,2.064H51.607a2.064,2.064,0,1,1,0-4.129h4.129A2.065,2.065,0,0,1,57.8,113.534Zm66.056-6.193H61.548a6,6,0,0,0-1.23-6.193A6.142,6.142,0,0,0,56.6,90.916,8.185,8.185,0,0,0,57.8,86.7a4.087,4.087,0,0,0-.85-2.481,39.07,39.07,0,0,0,22.829-51.19H115.6a4.133,4.133,0,0,0,4.129-4.129V12.386A4.132,4.132,0,0,0,115.6,8.257L61.928,8.193A4.123,4.123,0,0,0,58,11.122a38.934,38.934,0,0,0-4.327-1.441V4.129h70.185Z" transform="translate(0 0)"/>
    <path id="Path_1274387" data-name="Path 1274387" d="M66.643,38H50.129A4.133,4.133,0,0,0,46,42.129V58.643a4.133,4.133,0,0,0,4.129,4.129H66.643a4.133,4.133,0,0,0,4.129-4.129V42.129A4.133,4.133,0,0,0,66.643,38ZM50.129,58.643V42.129H66.643l0,16.514Z" transform="translate(48.956 40.442)"/>
    <path id="Path_1274388" data-name="Path 1274388" d="M52.643,38H36.129A4.133,4.133,0,0,0,32,42.129V58.643a4.133,4.133,0,0,0,4.129,4.129H52.643a4.133,4.133,0,0,0,4.129-4.129V42.129A4.133,4.133,0,0,0,52.643,38ZM36.129,58.643V42.129H52.643l0,16.514Z" transform="translate(34.056 40.442)"/>
    <path id="Path_1274389" data-name="Path 1274389" d="M48,34h4.129v4.129H48Z" transform="translate(51.085 36.185)"/>
    <path id="Path_1274390" data-name="Path 1274390" d="M52,34h4.129v4.129H52Z" transform="translate(55.342 36.185)"/>
    <path id="Path_1274391" data-name="Path 1274391" d="M56,34h4.129v4.129H56Z" transform="translate(59.599 36.185)"/>
    <path id="Path_1274392" data-name="Path 1274392" d="M42,30H75.028v4.129H42Z" transform="translate(44.699 31.928)"/>
    <path id="Path_1274393" data-name="Path 1274393" d="M42,26H75.028v4.129H42Z" transform="translate(44.699 27.671)"/>
    <path id="Path_1274394" data-name="Path 1274394" d="M42,22H75.028v4.129H42Z" transform="translate(44.699 23.414)"/>
    <path id="Path_1274395" data-name="Path 1274395" d="M48,18H68.643v4.129H48Z" transform="translate(51.085 19.157)"/>
    <path id="Path_1274396" data-name="Path 1274396" d="M42,18h8.257v4.129H42Z" transform="translate(44.699 19.157)"/>
  </g>
</svg>
