<svg xmlns="http://www.w3.org/2000/svg" width="89.34" height="133.742" viewBox="0 0 89.34 133.742">
  <g id="verano" transform="translate(-41.158 -20.829)">
    <g id="Group_1204954" data-name="Group 1204954" transform="translate(41.158 20.829)">
      <path id="Path_1274397" data-name="Path 1274397" d="M95.34,9.1H89.188c-11.769,0-21.4,10.432-21.4,23.271V48.42H27.4V32.371c0-6.955,4.815-12.572,10.7-12.572h6.152a5.35,5.35,0,0,0,0-10.7H38.1c-11.769,0-21.4,10.432-21.4,23.271v99.771a5.35,5.35,0,0,0,10.7,0V121.176h40.39v10.967a5.35,5.35,0,0,0,10.7,0V32.371c0-6.955,4.815-12.572,10.7-12.572H95.34a5.35,5.35,0,1,0,0-10.7ZM27.4,110.476V58.852h40.39v51.624Z" transform="translate(-14.025 -6.425)" fill="#76bfe9"/>
      <path id="Path_1274398" data-name="Path 1274398" d="M74.814,141.842a7.881,7.881,0,0,1-8.025-8.025v-8.292H31.749v8.292a7.881,7.881,0,0,1-8.025,8.025,7.881,7.881,0,0,1-8.025-8.025V34.046C15.7,19.869,26.4,8.1,39.774,8.1h6.152a7.881,7.881,0,0,1,8.025,8.025,7.881,7.881,0,0,1-8.025,8.025H39.774c-4.28,0-8.025,4.28-8.025,9.9V47.42h35.04V34.046c0-14.177,10.7-25.946,24.074-25.946h6.152a7.881,7.881,0,0,1,8.025,8.025,7.881,7.881,0,0,1-8.025,8.025H90.863c-4.28,0-8.025,4.28-8.025,9.9v99.771A8.047,8.047,0,0,1,74.814,141.842Zm-45.74-21.666h40.39a2.527,2.527,0,0,1,2.675,2.675v10.967a2.675,2.675,0,1,0,5.35,0V34.046c0-8.292,5.885-15.247,13.374-15.247h6.152a2.527,2.527,0,0,0,2.675-2.675,2.527,2.527,0,0,0-2.675-2.675H90.863c-10.164,0-18.724,9.094-18.724,20.6V50.095a2.527,2.527,0,0,1-2.675,2.675H29.074A2.527,2.527,0,0,1,26.4,50.095V34.046c0-8.292,5.885-15.247,13.374-15.247h6.152A2.527,2.527,0,0,0,48.6,16.125a2.527,2.527,0,0,0-2.675-2.675H39.774c-10.164,0-18.724,9.094-18.724,20.6v99.771a2.527,2.527,0,0,0,2.675,2.675,2.527,2.527,0,0,0,2.675-2.675V122.85A2.68,2.68,0,0,1,29.074,120.176Zm40.39-5.35H29.074a2.527,2.527,0,0,1-2.675-2.675V60.527a2.527,2.527,0,0,1,2.675-2.675h40.39a2.527,2.527,0,0,1,2.675,2.675v51.624A2.68,2.68,0,0,1,69.464,114.826Zm-37.715-5.35h35.04V63.2H31.749Z" transform="translate(-15.7 -8.1)"/>
    </g>
  </g>
</svg>
