<svg xmlns="http://www.w3.org/2000/svg" width="136.324" height="137.133" viewBox="0 0 136.324 137.133">
  <g id="granjero_1_" data-name="granjero (1)" transform="translate(-1.51)">
    <g id="Group_1204572" data-name="Group 1204572" transform="translate(38.166 82.846)">
      <path id="Path_1270835" data-name="Path 1270835" d="M174.557,309.313c.252,11.764-28.03,11.558-28.283,0-7,7.423-7.866,13.652-7.9,28.78l24.361,5.756,21.067-5.756,3.3-10.518-3.3-14.233c-2.668-.741-5.19-1.376-7.392-1.942C175.245,311.1,174.557,310.574,174.557,309.313Z" transform="translate(-138.37 -309.313)" fill="#a7e9a6" fill-rule="evenodd"/>
    </g>
    <g id="Group_1204573" data-name="Group 1204573" transform="translate(89.518 89.833)">
      <path id="Path_1270836" data-name="Path 1270836" d="M333.454,335.4,330.1,347.515l3.356,9.678c.076.237-3.631,6.711,3.447,23.5H354.65c2.117,0,3.837-12.98,4.12-14.692l-5.481-17.153c-4.12-6.33-11.894-10.5-19.836-13.446Z" transform="translate(-330.098 -335.399)" fill="#a7e9a6" fill-rule="evenodd"/>
    </g>
    <g id="Group_1204574" data-name="Group 1204574" transform="translate(3.519 95.421)">
      <path id="Path_1270837" data-name="Path 1270837" d="M21.476,356.262c-6.192,4.006-10.8,9.4-11.252,16.855L9.031,392.931c-.145,2.423.466,3.035,2.981,3.035H29.594c6.192-14.134,7.529-31.395-8.118-39.7Z" transform="translate(-9.011 -356.262)" fill="#a7e9a6" fill-rule="evenodd"/>
    </g>
    <g id="Group_1204575" data-name="Group 1204575" transform="translate(112.71 93.976)">
      <path id="Path_1270838" data-name="Path 1270838" d="M416.687,352.236V369.5l7.728,5.229,7.728-5.229V352.236a1.372,1.372,0,0,0-1.368-1.368H418.047A1.365,1.365,0,0,0,416.687,352.236Z" transform="translate(-416.687 -350.868)" fill="#ffe07d" fill-rule="evenodd"/>
    </g>
    <g id="Group_1204576" data-name="Group 1204576" transform="translate(112.71 117.833)">
      <path id="Path_1270839" data-name="Path 1270839" d="M432.144,445.178l-7.728-5.236-7.728,5.236v10.687a1.365,1.365,0,0,0,1.361,1.368h12.727a1.372,1.372,0,0,0,1.368-1.368V445.178Z" transform="translate(-416.688 -439.942)" fill="#ffe07d" fill-rule="evenodd"/>
    </g>
    <g id="Group_1204577" data-name="Group 1204577" transform="translate(83.594 86.874)">
      <path id="Path_1270840" data-name="Path 1270840" d="M307.98,324.354v24.752l4.609,2.347,4.671-2.347V327.312c-2.362-.864-4.732-1.628-7.025-2.309C309.478,324.782,308.722,324.568,307.98,324.354Z" transform="translate(-307.98 -324.354)" fill="#ffe07d" fill-rule="evenodd"/>
    </g>
    <g id="Group_1204578" data-name="Group 1204578" transform="translate(92.874 89.833)">
      <path id="Path_1270841" data-name="Path 1270841" d="M362.463,348.845c-4.12-6.329-11.894-10.5-19.836-13.446v6.864c15.189,6.681,15.3,10.931,19.836,25.134V348.845Z" transform="translate(-342.627 -335.399)" fill="#7fdbae" fill-rule="evenodd"/>
    </g>
    <g id="Group_1204579" data-name="Group 1204579" transform="translate(112.71 112.605)">
      <path id="Path_1270842" data-name="Path 1270842" d="M416.687,420.42h15.456v10.465H416.687Z" transform="translate(-416.687 -420.42)" fill="#d09080" fill-rule="evenodd"/>
    </g>
    <g id="Group_1204580" data-name="Group 1204580" transform="translate(122.028 93.976)">
      <path id="Path_1270843" data-name="Path 1270843" d="M452.837,352.236V369.5h4.777V352.236a1.372,1.372,0,0,0-1.368-1.368h-4.77A1.365,1.365,0,0,1,452.837,352.236Z" transform="translate(-451.476 -350.868)" fill="#ffd064" fill-rule="evenodd"/>
    </g>
    <g id="Group_1204581" data-name="Group 1204581" transform="translate(123.389 112.605)">
      <path id="Path_1270844" data-name="Path 1270844" d="M456.557,420.42v10.465h4.777V420.42Z" transform="translate(-456.557 -420.42)" fill="#ce775f" fill-rule="evenodd"/>
    </g>
    <g id="Group_1204582" data-name="Group 1204582" transform="translate(122.028 123.07)">
      <path id="Path_1270845" data-name="Path 1270845" d="M452.838,459.492v10.686a1.365,1.365,0,0,1-1.361,1.368h4.77a1.372,1.372,0,0,0,1.368-1.368V459.492Z" transform="translate(-451.477 -459.492)" fill="#ffd064" fill-rule="evenodd"/>
    </g>
    <g id="Group_1204583" data-name="Group 1204583" transform="translate(24.101 111.315)">
      <path id="Path_1270846" data-name="Path 1270846" d="M145.35,415.915H99.922c-6.039-1.491-10.442,2.553-14.065,8.126v15.373h72.22V419.363a3.458,3.458,0,0,0-3.447-3.448Z" transform="translate(-85.857 -415.603)" fill="#d09080" fill-rule="evenodd"/>
    </g>
    <g id="Group_1204584" data-name="Group 1204584" transform="translate(84.939 111.626)">
      <path id="Path_1270847" data-name="Path 1270847" d="M313,416.767a3.458,3.458,0,0,1,3.447,3.448v20.051h7.934V420.215a3.458,3.458,0,0,0-3.447-3.448Z" transform="translate(-313.003 -416.767)" fill="#ce775f" fill-rule="evenodd"/>
    </g>
    <g id="Group_1204585" data-name="Group 1204585" transform="translate(70.783 48.378)">
      <path id="Path_1270848" data-name="Path 1270848" d="M272.348,186.594c-1.032,6.673-3.784,16.121-8.63,22.573l-3.57,6.536c0,1.269,3.86,3.776,5.014,4.067h10.052c11.328-12.085,9.57-24.2,9.838-39.146C284.815,184.859,277.974,185.18,272.348,186.594Z" transform="translate(-260.148 -180.624)" fill="#365e7d" fill-rule="evenodd"/>
    </g>
    <g id="Group_1204586" data-name="Group 1204586" transform="translate(81.958 39.786)">
      <path id="Path_1270849" data-name="Path 1270849" d="M301.873,148.546c.306,4.388,5.045,16.175,4.732,18.208,5.626-1.422,8.76-5.381,9-9.616a10.29,10.29,0,0,0-2.989-7.659Z" transform="translate(-301.873 -148.546)" fill="#e2a770" fill-rule="evenodd"/>
    </g>
    <g id="Group_1204587" data-name="Group 1204587" transform="translate(46.07 75.964)">
      <path id="Path_1270850" data-name="Path 1270850" d="M167.88,284.578V290.5a14.141,14.141,0,1,0,28.283,0v-5.924C185.37,283.309,176.289,283.293,167.88,284.578Z" transform="translate(-167.88 -283.62)" fill="#f1b986" fill-rule="evenodd"/>
    </g>
    <g id="Group_1204588" data-name="Group 1204588" transform="translate(81.278 48.378)">
      <path id="Path_1270851" data-name="Path 1270851" d="M308.552,188.7c-.046,10.87-.726,20.357-9.219,29.8.757.2,1.529.413,2.316.627.741.214,1.5.428,2.255.65,11.328-12.085,9.57-24.2,9.838-39.146A10.076,10.076,0,0,1,308.552,188.7Z" transform="translate(-299.333 -180.625)" fill="#2b4d66" fill-rule="evenodd"/>
    </g>
    <g id="Group_1204589" data-name="Group 1204589" transform="translate(46.07 76.922)">
      <path id="Path_1270852" data-name="Path 1270852" d="M167.88,287.2v5.924c5.282,5.481,18.628,6.7,23.23,3.226v3.34a13.94,13.94,0,0,1-.894,4.938,14.152,14.152,0,0,0,5.947-11.5V287.2a29.5,29.5,0,0,1-7.461,4.151,17.28,17.28,0,0,1-13.369,0,26.85,26.85,0,0,1-2.813-1.231A31.1,31.1,0,0,1,167.88,287.2Z" transform="translate(-167.88 -287.195)" fill="#e2a770" fill-rule="evenodd"/>
    </g>
    <g id="Group_1204590" data-name="Group 1204590" transform="translate(11.185 48.929)">
      <path id="Path_1270853" data-name="Path 1270853" d="M51.232,182.68c.2,11.5-23.467,21.342-8.8,46.492a57.383,57.383,0,0,0,3.333,5.068c3.386,4.625,2.064,10.71,1.361,16.313-.474,3.753-1.468,4.1,2.27,3.241.382-.084.772-.183,1.154-.291a32.406,32.406,0,0,0,14.065-8.126c4.862-4.785,7.9-10.862,7.9-16.779V210.673c-.787-12.9-14.485-23.758-21.288-27.993Z" transform="translate(-37.636 -182.68)" fill="#365e7d" fill-rule="evenodd"/>
    </g>
    <g id="Group_1204591" data-name="Group 1204591" transform="translate(20.193 48.928)">
      <path id="Path_1270854" data-name="Path 1270854" d="M90.654,226.7c0,5.427-3.042,11-7.9,15.388a33.006,33.006,0,0,1-10.732,6.436c-.092.68-.183,1.353-.268,2.026-.474,3.753-1.468,4.1,2.27,3.241.382-.084.772-.183,1.154-.291a32.406,32.406,0,0,0,14.065-8.126c4.862-4.785,7.9-10.862,7.9-16.779V210.672c-6.49-4.892-11.305-12.254-12.337-18.927-5.381-1.353-8.477-5.038-8.951-9.066.046,2.63-1.154,5.167-2.859,7.828a13.93,13.93,0,0,0,5.32,2.377c1.032,6.123,5.855,12.88,12.337,17.367V226.7Z" transform="translate(-71.268 -182.679)" fill="#2b4d66" fill-rule="evenodd"/>
    </g>
    <g id="Group_1204592" data-name="Group 1204592" transform="translate(24.718 38.629)">
      <path id="Path_1270855" data-name="Path 1270855" d="M91.166,146.316a10.155,10.155,0,0,0-2.943,8.21c.474,4.029,3.57,7.713,8.951,9.066,7.415-2.492,4-13.461,3.577-18.789C98.673,144.382,95.974,143.189,91.166,146.316Z" transform="translate(-88.16 -144.226)" fill="#e2a770" fill-rule="evenodd"/>
    </g>
    <g id="Group_1204593" data-name="Group 1204593" transform="translate(34.199 2.009)">
      <path id="Path_1270856" data-name="Path 1270856" d="M149.57,7.5a28.638,28.638,0,0,0-26.012,16.657l26.93,5.076,25.1-5.076A28.641,28.641,0,0,0,149.57,7.5Z" transform="translate(-123.558 -7.5)" fill="#d8a595" fill-rule="evenodd"/>
    </g>
    <g id="Group_1204594" data-name="Group 1204594" transform="translate(31.584 18.665)">
      <path id="Path_1270857" data-name="Path 1270857" d="M168.444,69.689H116.411A28.493,28.493,0,0,0,113.8,81.66l28.627,5.259,28.634-5.259A28.608,28.608,0,0,0,168.444,69.689Z" transform="translate(-113.797 -69.689)" fill="#ff8086" fill-rule="evenodd"/>
    </g>
    <g id="Group_1204595" data-name="Group 1204595" transform="translate(33.526 37.919)">
      <path id="Path_1270858" data-name="Path 1270858" d="M121.047,159.058a16.733,16.733,0,0,0,.206,2.591c1.032,6.673,5.848,14.035,12.337,18.927a29.456,29.456,0,0,0,7.453,4.151,17.28,17.28,0,0,0,13.369,0,29.5,29.5,0,0,0,7.461-4.151c6.482-4.892,11.305-12.254,12.337-18.927a16.733,16.733,0,0,0,.206-2.591v-13.2c-14.913-5.6-37.478-5.825-53.37,0v13.2Z" transform="translate(-121.047 -141.574)" fill="#f1d0a5" fill-rule="evenodd"/>
    </g>
    <g id="Group_1204596" data-name="Group 1204596" transform="translate(16.893 30.636)">
      <path id="Path_1270859" data-name="Path 1270859" d="M141.079,114.383H63.447c-2.943,0-5.748.138-3.921,3.386,1.666,2.966,5.328,5.129,10.25,6.7a53.845,53.845,0,0,0,5.8,1.483c7.69,1.559,17.176,2.179,26.685,2.339,9.5-.16,18.988-.78,26.685-2.339a54.283,54.283,0,0,0,5.8-1.483c4.915-1.567,8.576-3.73,10.243-6.7,1.835-3.249-.97-3.386-3.913-3.386Z" transform="translate(-58.945 -114.383)" fill="#d8a595" fill-rule="evenodd"/>
    </g>
    <g id="Group_1204597" data-name="Group 1204597" transform="translate(33.527 42.202)">
      <path id="Path_1270860" data-name="Path 1270860" d="M167.579,170.323c-1.483,9.846-10.25,20.119-19.8,23.766a18.4,18.4,0,0,1-6.681,1.384,15.99,15.99,0,0,1-2.866-.268,26.8,26.8,0,0,0,2.813,1.231,17.28,17.28,0,0,0,13.369,0,29.507,29.507,0,0,0,7.461-4.151c6.482-4.892,11.305-12.254,12.337-18.927a16.731,16.731,0,0,0,.206-2.591v-13.2l-6.635,1.07a186.138,186.138,0,0,1-20.05,1.269,176.056,176.056,0,0,1-22.4-1.59c-1.475-.222-2.912-.474-4.281-.749V163.4c1.552.443,3.18.825,4.869,1.162a130.346,130.346,0,0,0,21.816,2.087,136.538,136.538,0,0,0,20.05-1.758v4.151c0,.879-.07.374-.208,1.284Z" transform="translate(-121.051 -157.565)" fill="#f1b986" fill-rule="evenodd"/>
    </g>
    <g id="Group_1204598" data-name="Group 1204598" transform="translate(53.752 2.009)">
      <path id="Path_1270861" data-name="Path 1270861" d="M229.041,24.157A28.641,28.641,0,0,0,203.021,7.5a28.95,28.95,0,0,0-6.459.726,28.7,28.7,0,0,1,19.553,15.93Z" transform="translate(-196.562 -7.5)" fill="#d09080" fill-rule="evenodd"/>
    </g>
    <g id="Group_1204599" data-name="Group 1204599" transform="translate(73.306 18.665)">
      <path id="Path_1270862" data-name="Path 1270862" d="M282.493,69.689H269.567c.359.787.688,1.59.978,2.416a28.478,28.478,0,0,1,1.636,9.555h12.926A28.612,28.612,0,0,0,282.493,69.689Z" transform="translate(-269.567 -69.689)" fill="#e5646e" fill-rule="evenodd"/>
    </g>
    <g id="Group_1204600" data-name="Group 1204600" transform="translate(53.538 30.636)">
      <path id="Path_1270863" data-name="Path 1270863" d="M241.253,114.383H227.907a18.4,18.4,0,0,1,2.507.122c1.7.245,2.683,1,1.406,3.264-2.767,4.923-10.824,7.117-16.045,8.179a133.258,133.258,0,0,1-20.012,2.148c2.209.092,4.441.153,6.673.191a187.125,187.125,0,0,0,20.058-1.269l1.834-.3.5-.076,4.288-.7a57.628,57.628,0,0,0,5.771-1.468c3.669-1.162,8.3-3.2,10.273-6.712C247,114.521,244.2,114.383,241.253,114.383Z" transform="translate(-195.764 -114.383)" fill="#d09080" fill-rule="evenodd"/>
    </g>
    <g id="Group_1204601" data-name="Group 1204601" transform="translate(72.296 82.938)">
      <path id="Path_1270864" data-name="Path 1270864" d="M267.84,310.176a14.049,14.049,0,0,1-2.041,6.7c2.117.543,4.495,1.147,7.01,1.85.741.206,1.5.421,2.263.65.665.2,1.345.405,2.026.611v-6.4c-.787-.214-1.559-.428-2.316-.627-1.812-.482-3.524-.917-5.076-1.315-1.131-.291-1.812-.795-1.85-2C267.855,309.832,267.855,310.008,267.84,310.176Z" transform="translate(-265.799 -309.656)" fill="#7fdbae" fill-rule="evenodd"/>
    </g>
    <g id="Group_1204602" data-name="Group 1204602" transform="translate(83.594 86.874)">
      <path id="Path_1270865" data-name="Path 1270865" d="M310.236,325c-.757-.222-1.514-.436-2.255-.65v6.4c.535.168,1.07.344,1.605.52,1.124.367,2.255.757,3.386,1.177.864.321,1.728.657,2.584,1.009.573.229,1.139.466,1.7.719v-6.864c-2.362-.864-4.732-1.628-7.025-2.309Z" transform="translate(-307.981 -324.354)" fill="#ffd064" fill-rule="evenodd"/>
    </g>
    <g id="Group_1204604" data-name="Group 1204604" transform="translate(1.509 0)">
      <g id="Group_1204603" data-name="Group 1204603">
        <path id="Path_1270866" data-name="Path 1270866" d="M150.892,190.713a2.009,2.009,0,1,0,2.79,2.891,2.576,2.576,0,0,1,3.547,0,2.009,2.009,0,0,0,2.79-2.891,6.627,6.627,0,0,0-9.127,0Z" transform="translate(-110.432 -138.299)"/>
        <path id="Path_1270867" data-name="Path 1270867" d="M262.212,193.554a2.008,2.008,0,0,0-.05-2.84,6.627,6.627,0,0,0-9.127,0,2.009,2.009,0,1,0,2.79,2.891,2.576,2.576,0,0,1,3.547,0,2.008,2.008,0,0,0,2.84-.05Z" transform="translate(-185.217 -138.3)"/>
        <path id="Path_1270868" data-name="Path 1270868" d="M205.792,245.551a4.438,4.438,0,0,1-3.161,1.313h0a4.457,4.457,0,0,1-3.173-1.315,2.009,2.009,0,1,0-2.841,2.841,8.449,8.449,0,0,0,6.013,2.492h.007a8.428,8.428,0,0,0,6-2.494,2.009,2.009,0,1,0-2.845-2.836Z" transform="translate(-143.926 -179.351)"/>
        <path id="Path_1270869" data-name="Path 1270869" d="M308.933,453.134h-2.362a2.009,2.009,0,0,0,0,4.018h2.362a2.009,2.009,0,0,0,0-4.018Z" transform="translate(-223.393 -331.767)"/>
        <path id="Path_1270870" data-name="Path 1270870" d="M135.825,43.771a2.008,2.008,0,0,0-2.009,2.009V67.313a5.779,5.779,0,0,1-5.773,5.773h-5.6V45.779a2.009,2.009,0,0,0-4.018,0V73.086h-5.6a5.779,5.779,0,0,1-5.773-5.773V45.779a2.009,2.009,0,0,0-4.018,0V67.313a9.8,9.8,0,0,0,9.791,9.791h5.6V91.967h-4.359a3.377,3.377,0,0,0-3.369,3.377v2.445c-5.58-5.324-13.7-8.814-21.318-11.271C97.661,76.272,97.664,66,97.661,54.243c0-1.89,0-3.844.035-5.829,0-.041,0-.08,0-.121A11.943,11.943,0,0,0,95.949,41.7c4.327-1.74,7.208-3.961,8.741-6.69.968-1.714,1.1-3.188.407-4.384-1.167-2-3.886-2-6.07-2H90.787a30.638,30.638,0,0,0-61.143,0H21.395c-2.184,0-4.9,0-6.071,2-.7,1.194-.564,2.668.4,4.382,1.537,2.73,4.42,4.951,8.749,6.692a11.856,11.856,0,0,0-1.7,7.268c.051,3.21-2.37,6.588-5.174,10.5C11.911,67.405,4.366,77.94,13.336,94.795,6.7,99.549,3.136,105.381,2.726,112.155L1.534,131.97a5,5,0,0,0,1.015,3.9,5.21,5.21,0,0,0,3.972,1.262H113.895c.03,0,.059,0,.088,0s.058,0,.088,0H126.8a3.381,3.381,0,0,0,3.377-3.377V95.344a3.381,3.381,0,0,0-3.377-3.377h-4.351V77.1h5.6a9.8,9.8,0,0,0,9.79-9.791V45.78a2.008,2.008,0,0,0-2.009-2.009ZM90.865,91.257v18.361H85.6V89.552C87.328,90.067,89.1,90.632,90.865,91.257ZM85.2,85.248c-2.8-.8-8.773-2.341-8.842-2.369,0-.01,0-.021,0-.033V77.891C82.4,73.054,87.011,66.2,88.439,59.57a14.906,14.906,0,0,0,5.2-2.915c-.034,10.815-.569,19.67-8.437,28.593Zm-19.009-6.06a17.018,17.018,0,0,1-5.983,1.221,17.09,17.09,0,0,1-5.989-1.22c-9.12-3.384-17.209-13-18.5-21.489l0-.017a15.282,15.282,0,0,1-.182-2.28V44.626a167.09,167.09,0,0,0,24.642,1.924h.069a167.078,167.078,0,0,0,24.642-1.924V55.4a15.29,15.29,0,0,1-.182,2.28l0,.016c-1.293,8.492-9.385,18.106-18.509,21.489Zm6.149,1.483v2.174a12.133,12.133,0,1,1-24.265,0V80.675a29.707,29.707,0,0,0,4.749,2.283,20.952,20.952,0,0,0,7.384,1.47,20.865,20.865,0,0,0,7.379-1.471,29.717,29.717,0,0,0,4.753-2.284ZM93.4,49.884a8.537,8.537,0,0,1-4.5,5.151v-11.2q1.641-.372,3.119-.8A7.729,7.729,0,0,1,93.4,49.884ZM35.528,20.674H57.36a2.009,2.009,0,0,0,0-4.018H37.57a26.606,26.606,0,0,1,45.29,0H65.96a2.009,2.009,0,1,0,0,4.018H84.9a26.416,26.416,0,0,1,1.859,7.953H33.669A26.416,26.416,0,0,1,35.528,20.674Zm-16.3,12.364c-.06-.106-.108-.2-.148-.283a18.228,18.228,0,0,1,2.318-.111H99.027a18.321,18.321,0,0,1,2.312.11c-.04.083-.089.177-.15.284-2.275,4.048-11.23,8.979-40.979,9.494-29.748-.514-38.708-5.447-40.986-9.494ZM31.517,43.832v11.2a8.539,8.539,0,0,1-4.5-5.156A7.723,7.723,0,0,1,28.4,43.035Q29.875,43.46,31.517,43.832Zm-9.425,89.284H6.52a6.2,6.2,0,0,1-.978-.059,5.691,5.691,0,0,1,0-.847L6.736,112.4c.332-5.482,3.163-10.117,8.637-14.12.7,1.108,1.474,2.239,2.322,3.4,2.537,3.465,1.905,8.1,1.237,13-.085.629-.451,3.176-.542,3.653-.229,1.2-.466,2.449.543,3.42a2.461,2.461,0,0,0,1.825.689,7.227,7.227,0,0,0,1.334-.155ZM20.937,99.3a57.275,57.275,0,0,1-3.161-4.787,2.075,2.075,0,0,0-.107-.187c-.007-.011-.015-.021-.022-.031-8.976-15.475-2.532-24.467,3.218-32.489a50.928,50.928,0,0,0,4.365-6.8,14.117,14.117,0,0,0,6.753,4.559c1.429,6.626,6.038,13.485,12.078,18.323V94.847c0,5.366-2.747,10.832-7.112,15.183-.127.1-6.069,6.435-14.431,8.049.052-.31.31-2.245.394-2.859.712-5.224,1.519-11.145-1.975-15.917Zm73.375,33.812H26.11V121.245a34.412,34.412,0,0,0,12.865-7.61H55.648a2.009,2.009,0,0,0,0-4.018H42.616a24.587,24.587,0,0,0,5.463-14.77V93.488a16.139,16.139,0,0,0,27.764-6.574s3.918,1,5.743,1.5v21.207H64.339a2.009,2.009,0,1,0,0,4.018H92.874a1.458,1.458,0,0,1,1.439,1.439Zm16.389,0H98.33V115.074a5.461,5.461,0,0,0-3.447-5.068V92.79c6.415,2.648,12.4,6.195,15.819,11.1v29.223Zm15.456,0H114.719v-8.037h11.438Zm0-12.055H114.719v-6.447h11.438Zm0-25.076V110.6H114.719V95.985Z" transform="translate(-1.509 0)"/>
        <path id="Path_1270871" data-name="Path 1270871" d="M114.215,453.134h-2.37a2.009,2.009,0,0,0,0,4.018h2.37a2.009,2.009,0,0,0,0-4.018Z" transform="translate(-80.822 -331.767)"/>
      </g>
    </g>
  </g>
</svg>
