<svg xmlns="http://www.w3.org/2000/svg" width="136" height="136" viewBox="0 0 136 136">
  <g id="limpieza" transform="translate(-0.001)">
    <path id="Path_1270821" data-name="Path 1270821" d="M89.145,83.467l-5.678,5.678L12.416,18.094a4.015,4.015,0,0,1,0-5.678h0a4.015,4.015,0,0,1,5.678,0Z" transform="translate(-8.23 -8.231)" fill="#47444d"/>
    <path id="Path_1270822" data-name="Path 1270822" d="M348.45,320.271,320.271,348.45a2.4,2.4,0,0,1-3.5-.1l-23.037-25.951,28.657-28.657,25.951,23.037A2.4,2.4,0,0,1,348.45,320.271Z" transform="translate(-216.161 -216.163)" fill="#e3d9d7"/>
    <path id="Path_1270823" data-name="Path 1270823" d="M171.061,98.274,165.383,92.6,249.3,8.676a4.015,4.015,0,0,1,5.678,0h0a4.015,4.015,0,0,1,0,5.678Z" transform="translate(-122.164 -5.492)" fill="#47444d"/>
    <path id="Path_1270824" data-name="Path 1270824" d="M44.729,376.418,7.865,339.554a1.247,1.247,0,0,1,0-1.763l7.326-7.326a1.247,1.247,0,0,1,1.763,0l36.864,36.864a1.247,1.247,0,0,1,0,1.763l-7.326,7.326A1.247,1.247,0,0,1,44.729,376.418Z" transform="translate(-5.491 -242.791)" fill="#ff2c5c"/>
    <path id="Path_1270825" data-name="Path 1270825" d="M140.292,453.8l-5.621-5.621a1.247,1.247,0,0,1,0,1.763l-7.326,7.326a1.247,1.247,0,0,1-1.763,0l5.621,5.621a1.247,1.247,0,0,0,1.763,0l7.326-7.326A1.247,1.247,0,0,0,140.292,453.8Z" transform="translate(-92.255 -329.265)" fill="#e62753"/>
    <path id="Path_1270826" data-name="Path 1270826" d="M134.564,329.718l-12.651-12.651a1.071,1.071,0,0,1,0-1.514l6.428-6.428a3.958,3.958,0,0,1,5.6,0l8.567,8.567a3.958,3.958,0,0,1,0,5.6l-6.428,6.428A1.071,1.071,0,0,1,134.564,329.718Z" transform="translate(-89.347 -226.284)" fill="#ffe96e"/>
    <path id="Path_1270827" data-name="Path 1270827" d="M162.6,328.924l-5.621-5.621a3.958,3.958,0,0,1,0,5.6l-6.428,6.428a1.071,1.071,0,0,1-1.514,0l5.621,5.621a1.071,1.071,0,0,0,1.514,0l6.428-6.428A3.959,3.959,0,0,0,162.6,328.924Z" transform="translate(-109.481 -237.526)" fill="#ffb254"/>
    <path id="Path_1270828" data-name="Path 1270828" d="M286.561,271.55,272.4,285.716l-5.554-5.554-1.63-1.63a3.963,3.963,0,0,1,0-5.6l8.568-8.566a3.955,3.955,0,0,1,5.6,0Z" transform="translate(-194.019 -193.398)" fill="#685c79"/>
    <rect id="Rectangle_411509" data-name="Rectangle 411509" width="20.033" height="7.855" transform="translate(92.531 78.144) rotate(135)" fill="#594f69"/>
    <path id="Path_1270829" data-name="Path 1270829" d="M310.418,279.062l-31.357,31.357-4.544-4.544a6.427,6.427,0,0,1,0-9.089l22.268-22.268a6.427,6.427,0,0,1,9.089,0Z" transform="translate(-200.429 -200.43)" fill="#ffe96e"/>
    <path id="Path_1270830" data-name="Path 1270830" d="M308.58,277.223a6.433,6.433,0,0,0-1.126-.894L276.33,307.453a6.423,6.423,0,0,0,.894,1.126l4.544,4.544,31.357-31.357Z" transform="translate(-203.137 -203.138)" fill="#ffb254"/>
    <path id="Path_1270831" data-name="Path 1270831" d="M133.536,99.393,111.572,79.9a1.993,1.993,0,0,0-.25-2.512l-4.51-4.51a8.37,8.37,0,0,0-11.837,0l-2.5,2.5-5.721-5.721a5.92,5.92,0,0,0-8.372,0l-.137.137L76.454,68l57.8-57.8A5.978,5.978,0,1,0,125.8,1.745l-19,19a1.992,1.992,0,1,0,2.817,2.818l19-19a1.992,1.992,0,0,1,3.4,1.408,1.98,1.98,0,0,1-.583,1.41L51.614,87.2,48.8,84.385,69.409,63.771h0l34.2-34.2a1.992,1.992,0,1,0-2.817-2.818L68,59.543,11.2,2.739a5.978,5.978,0,1,0-8.454,8.454L52.453,60.9a1.992,1.992,0,0,0,2.817-2.818L5.562,8.377a1.994,1.994,0,0,1,2.818-2.82l56.8,56.8-2.819,2.819-1.086-1.086a1.992,1.992,0,1,0-2.817,2.817L59.547,68,45.978,81.567l-.023-.023a5.928,5.928,0,0,0-8.374,0l-4.31,4.311L21.9,74.486a5.881,5.881,0,0,0-8.3,0L4.192,83.9a5.869,5.869,0,0,0-.7,7.461L.947,93.9a3.23,3.23,0,0,0,0,4.567l36.581,36.582a3.23,3.23,0,0,0,4.567,0l2.548-2.549a5.868,5.868,0,0,0,7.46-.7l9.408-9.409a5.881,5.881,0,0,0,0-8.3L50.145,102.729l4.31-4.31a5.92,5.92,0,0,0,0-8.375l-.023-.023L68,76.452l1.8,1.8a5.924,5.924,0,0,0,.083,8.281L75.6,92.25l-2.723,2.723a8.37,8.37,0,0,0,0,11.837l4.51,4.51a1.993,1.993,0,0,0,2.512.25l1.634,1.841a1.992,1.992,0,0,0,2.98-2.645l-1.766-1.99,26.03-26.031,22.113,19.628a.389.389,0,0,1,.016.57l-27.965,27.965a.389.389,0,0,1-.568-.019L90.146,117.11a1.992,1.992,0,0,0-2.98,2.645l12.229,13.778a4.392,4.392,0,0,0,3.146,1.472l.127,0a4.388,4.388,0,0,0,3.1-1.283l27.96-27.961a4.374,4.374,0,0,0-.188-6.37ZM39.811,131.7,4.3,96.188l3.334-3.334.017-.015.015-.017L10.5,89.986,46.013,125.5ZM58.7,119.583l-9.408,9.409a1.873,1.873,0,0,1-1.334.552,1.929,1.929,0,0,1-.319-.028l1.73-1.731a3.229,3.229,0,0,0,0-4.568L12.783,86.635a3.234,3.234,0,0,0-4.567,0L6.485,88.366a1.9,1.9,0,0,1-.028-.319,1.873,1.873,0,0,1,.552-1.334L16.417,77.3a1.889,1.889,0,0,1,2.668,0l26.832,26.833h0l12.774,12.774A1.891,1.891,0,0,1,58.7,119.583ZM51.638,95.6l-4.31,4.311L36.088,88.672l4.31-4.31a1.939,1.939,0,0,1,2.739,0l1.428,1.428,0,0,0,0,5.63,5.63,0,0,0,0,1.429,1.429a1.935,1.935,0,0,1,0,2.739Zm22-24.786,1.791,1.792-2.817,2.817-1.792-1.791Zm-.939,12.9a1.938,1.938,0,0,1,0-2.737l1.31-1.31.013-.012.012-.013,5.61-5.61.011-.01.01-.011L81.2,72.472a1.937,1.937,0,0,1,2.737,0l5.721,5.721L78.419,89.432Zm3,20.282a4.39,4.39,0,0,1,0-6.2l4.13-4.13,0,0L93.885,79.6l0,0,3.906-3.906a4.39,4.39,0,0,1,6.2,0l3.1,3.1-28.3,28.3Z" transform="translate(0 0)"/>
    <path id="Path_1270832" data-name="Path 1270832" d="M412.282,348.776a2.008,2.008,0,0,0,2.644-3.022l-16.6-14.525a2.008,2.008,0,1,0-2.644,3.021Z" transform="translate(-290.318 -242.988)"/>
    <path id="Path_1270833" data-name="Path 1270833" d="M332.356,394.561a2.007,2.007,0,0,0-.188,2.833l14.525,16.6a2.007,2.007,0,1,0,3.021-2.644l-14.525-16.6A2.007,2.007,0,0,0,332.356,394.561Z" transform="translate(-243.676 -289.633)"/>
    <path id="Path_1270834" data-name="Path 1270834" d="M364.909,362.6a2.008,2.008,0,0,0-.028,2.839L380.3,381.156a2.008,2.008,0,0,0,2.867-2.812l-15.419-15.721A2.008,2.008,0,0,0,364.909,362.6Z" transform="translate(-267.84 -266.169)"/>
  </g>
</svg>
