<svg xmlns="http://www.w3.org/2000/svg" xmlns:xlink="http://www.w3.org/1999/xlink" width="64.674" height="64.674" viewBox="0 0 64.674 64.674">
  <defs>
    <clipPath id="clip-path">
      <rect id="Rectangle_411089" data-name="Rectangle 411089" width="43" height="43" transform="translate(-0.055 -0.065)" fill="#fff" stroke="#707070" stroke-width="1" opacity="0"/>
    </clipPath>
    <clipPath id="clip-path-2">
      <path id="path882" d="M0-51H43.2V-7.8H0Z" transform="translate(0 51)"/>
    </clipPath>
  </defs>
  <g id="Group_1203631" data-name="Group 1203631" transform="translate(8474.725 10691.656)">
    <g id="Group_1203633" data-name="Group 1203633" transform="translate(-8474.725 -10691.656)">
      <g id="Group_1203630" data-name="Group 1203630" transform="translate(0)">
        <g id="Group_1200255" data-name="Group 1200255" transform="translate(0 0)">
          <g id="Group_1187152" data-name="Group 1187152">
            <g id="Group_1185946" data-name="Group 1185946">
              <g id="Group_1184280" data-name="Group 1184280">
                <g id="Group_1182168" data-name="Group 1182168">
                  <g id="Group_1178877" data-name="Group 1178877">
                    <g id="Group_1111311" data-name="Group 1111311">
                      <g id="Group_1098742" data-name="Group 1098742" transform="translate(0 0)">
                        <g id="Rectangle_400898" data-name="Rectangle 400898" transform="translate(0 0)" fill="#e7af74" stroke="#a17950" stroke-width="1" opacity="0.859">
                          <rect width="64.674" height="64.674" rx="32.337" stroke="none"/>
                          <rect x="0.5" y="0.5" width="63.674" height="63.674" rx="31.837" fill="none"/>
                        </g>
                        <g id="Rectangle_400907" data-name="Rectangle 400907" transform="translate(0 0)" fill="none" stroke="#a17950" stroke-width="1">
                          <rect width="64.674" height="64.674" rx="32.337" stroke="none"/>
                          <rect x="0.5" y="0.5" width="63.674" height="63.674" rx="31.837" fill="none"/>
                        </g>
                      </g>
                    </g>
                  </g>
                </g>
              </g>
            </g>
          </g>
        </g>
      </g>
      <g id="Mask_Group_1099316" data-name="Mask Group 1099316" transform="translate(10.779 10.721)" clip-path="url(#clip-path)">
        <g id="g876">
          <g id="g878" transform="translate(0 0)">
            <g id="g880" clip-path="url(#clip-path-2)">
              <g id="g886" transform="translate(9.668 9.71)">
                <path id="path888" d="M-1.077-3.077A5.967,5.967,0,0,1-7.044-9.044c0-5.029,2.671-11.082,5.967-11.082S4.89-14.073,4.89-9.044A5.967,5.967,0,0,1-1.077-3.077" transform="translate(7.044 20.125)" fill="#e7a561"/>
              </g>
              <g id="g890" transform="translate(9.668 11.369)">
                <path id="path892" d="M0-1.7a15.842,15.842,0,0,1,3.036-9.423A10.044,10.044,0,0,1,5.894-7.5c.025.05.049.1.073.151.025-.05.048-.1.073-.151A10.045,10.045,0,0,1,8.9-11.123,15.841,15.841,0,0,1,11.934-1.7,5.967,5.967,0,0,1,5.967,4.267,5.967,5.967,0,0,1,0-1.7" transform="translate(0 11.123)" fill="#e49542"/>
              </g>
              <g id="g894" transform="translate(21.602 9.71)">
                <path id="path896" d="M-1.077-3.077A5.967,5.967,0,0,0,4.89-9.044c0-5.029-2.671-11.082-5.967-11.082S-7.044-14.073-7.044-9.044A5.967,5.967,0,0,0-1.077-3.077" transform="translate(7.044 20.125)" fill="#e7a561"/>
              </g>
              <g id="g898" transform="translate(21.602 11.369)">
                <path id="path900" d="M-2.154-1.7A15.842,15.842,0,0,0-5.19-11.123,10.044,10.044,0,0,0-8.048-7.5c-.025.05-.049.1-.073.151-.025-.05-.048-.1-.073-.151a10.045,10.045,0,0,0-2.858-3.624A15.841,15.841,0,0,0-14.088-1.7,5.967,5.967,0,0,0-8.121,4.267,5.967,5.967,0,0,0-2.154-1.7" transform="translate(14.088 11.123)" fill="#e49542"/>
              </g>
              <g id="g902" transform="translate(15.635 12.182)">
                <path id="path904" d="M-1.077-3.077A5.967,5.967,0,0,0,4.89-9.044c0-5.029-2.672-11.082-5.967-11.082S-7.044-14.073-7.044-9.044A5.967,5.967,0,0,0-1.077-3.077" transform="translate(7.044 20.125)" fill="#f1d0a5"/>
              </g>
              <g id="g906" transform="translate(15.635 12.67)">
                <path id="path908" d="M-2.153-1.879c-.053-4.136-1.879-8.9-4.355-10.411a17.248,17.248,0,0,1,1.8,7.526,5.963,5.963,0,0,1-.082.989.855.855,0,0,1-.842.716h-8.39c-.041.459-.063.916-.063,1.364A5.967,5.967,0,0,0-8.175,4.271a6.037,6.037,0,0,0,6.021-6.15" transform="translate(14.086 12.29)" fill="#f1b986"/>
              </g>
              <g id="g910" transform="translate(27.569 12.182)">
                <path id="path912" d="M-1.077-3.077A5.967,5.967,0,0,0,4.89-9.044c0-5.029-2.672-11.082-5.967-11.082S-7.044-14.073-7.044-9.044A5.967,5.967,0,0,0-1.077-3.077" transform="translate(7.044 20.125)" fill="#f1d0a5"/>
              </g>
              <g id="g914" transform="translate(27.569 12.67)">
                <path id="path916" d="M-2.153-1.879c-.053-4.136-1.879-8.9-4.355-10.411a17.248,17.248,0,0,1,1.8,7.526,5.963,5.963,0,0,1-.083.989.855.855,0,0,1-.842.716h-8.39c-.041.459-.063.916-.063,1.364A5.967,5.967,0,0,0-8.175,4.271a6.037,6.037,0,0,0,6.022-6.15" transform="translate(14.086 12.29)" fill="#f1b986"/>
              </g>
              <g id="g918" transform="translate(3.701 12.182)">
                <path id="path920" d="M-1.077-3.077A5.967,5.967,0,0,1-7.044-9.044c0-5.029,2.672-11.082,5.967-11.082S4.89-14.073,4.89-9.044A5.967,5.967,0,0,1-1.077-3.077" transform="translate(7.044 20.125)" fill="#f1d0a5"/>
              </g>
              <g id="g922" transform="translate(3.701 12.67)">
                <path id="path924" d="M-2.153-1.879c-.053-4.136-1.879-8.9-4.355-10.411a17.248,17.248,0,0,1,1.8,7.526,5.954,5.954,0,0,1-.083.989.855.855,0,0,1-.842.716h-8.39c-.041.459-.063.916-.063,1.364A5.967,5.967,0,0,0-8.175,4.271a6.037,6.037,0,0,0,6.022-6.15" transform="translate(14.086 12.29)" fill="#f1b986"/>
              </g>
              <g id="g926" transform="translate(3.701 26.674)">
                <path id="path928" d="M0,0,.759,6.073a.852.852,0,0,0,.846.747h8.811a.852.852,0,0,0,.827-.646l.195-.779a.511.511,0,0,1,.992,0l.195.779a.852.852,0,0,0,.827.646h8.9a.852.852,0,0,0,.827-.646l.195-.779a.511.511,0,0,1,.992,0l.195.779a.852.852,0,0,0,.827.646H34.2a.852.852,0,0,0,.846-.747L35.8,0Z" fill="#b78b7a"/>
              </g>
              <g id="g930" transform="translate(36.434 26.674)">
                <path id="path932" d="M-.154,0l-.852,6.819H.458A.852.852,0,0,0,1.3,6.073L2.063,0Z" transform="translate(1.006)" fill="#aa7a63"/>
              </g>
              <g id="g934" transform="translate(0.632 23.946)">
                <path id="path936" d="M-7.415-.492H-47.649a.852.852,0,0,1-.852-.852V-2.368a.852.852,0,0,1,.852-.852H-7.415a.852.852,0,0,1,.852.852v1.023a.852.852,0,0,1-.852.852" transform="translate(48.502 3.22)" fill="#c19d8e"/>
              </g>
              <g id="g938" transform="translate(39.673 23.946)">
                <path id="path940" d="M-.369,0H-2.415a.852.852,0,0,1,.852.852V1.875a.852.852,0,0,1-.852.852H-.369a.852.852,0,0,0,.852-.852V.852A.852.852,0,0,0-.369,0" transform="translate(2.415)" fill="#b78b7a"/>
              </g>
              <g id="g942" transform="translate(0.002 9.085)">
                <path id="path944" d="M-7.568-3.021a.22.22,0,0,1-.219.219H-48.021a.22.22,0,0,1-.219-.219V-4.044a.22.22,0,0,1,.219-.219h32.6a.633.633,0,0,0,.633-.633.633.633,0,0,0-.633-.633H-21.3c0-.016,0-.033,0-.049a16.628,16.628,0,0,1,1.68-7.142c1.059-2.1,2.391-3.307,3.654-3.307s2.595,1.205,3.654,3.307a16.63,16.63,0,0,1,1.68,7.142c0,.016,0,.033,0,.049h-1.82a.633.633,0,0,0-.633.633.633.633,0,0,0,.633.633h4.671a.22.22,0,0,1,.219.219Zm-29.477-13.03c.975-1.582,2.09-2.447,3.175-2.447s2.2.865,3.175,2.447a12.712,12.712,0,0,0-3.175,5.875,12.711,12.711,0,0,0-3.175-5.875m12.8,3.332a16.628,16.628,0,0,1,1.68,7.142c0,.016,0,.033,0,.049H-33.236c0-.016,0-.033,0-.049a16.628,16.628,0,0,1,1.68-7.142c1.059-2.1,2.391-3.307,3.654-3.307s2.594,1.205,3.654,3.307m2.313-5.779c1.084,0,2.2.865,3.175,2.447a12.711,12.711,0,0,0-3.175,5.875,12.711,12.711,0,0,0-3.175-5.875c.975-1.583,2.09-2.447,3.175-2.447m14.15,12.97H-9.372c0-.016,0-.033,0-.049,0-5.417-2.883-11.714-6.6-11.714a3.6,3.6,0,0,0-1.771.488c-1.208-1.915-2.681-2.96-4.2-2.96s-2.989,1.045-4.2,2.96a3.6,3.6,0,0,0-1.771-.488,3.6,3.6,0,0,0-1.771.488c-1.208-1.915-2.681-2.96-4.2-2.96s-2.988,1.045-4.2,2.96a3.6,3.6,0,0,0-1.771-.488c-1.425,0-2.8.905-3.973,2.618a.633.633,0,0,0,.164.88.633.633,0,0,0,.88-.164c.647-.944,1.68-2.068,2.929-2.068s2.594,1.205,3.654,3.307A16.628,16.628,0,0,1-34.5-5.578c0,.016,0,.033,0,.049H-45.17c0-.016,0-.033,0-.049a16.73,16.73,0,0,1,1.123-5.882.633.633,0,0,0-.362-.819.633.633,0,0,0-.819.362,18.027,18.027,0,0,0-1.208,6.338c0,.016,0,.033,0,.049h-1.585a1.487,1.487,0,0,0-1.485,1.485v1.023a1.487,1.487,0,0,0,1.485,1.485h1.658l.689,5.518a1.488,1.488,0,0,0,1.474,1.3h8.81a1.483,1.483,0,0,0,1.441-1.125l.077-.308.077.308a1.483,1.483,0,0,0,1.441,1.125h2.968a.633.633,0,0,0,.633-.633.633.633,0,0,0-.633-.633h-2.968a.219.219,0,0,1-.213-.166l-.195-.78a1.128,1.128,0,0,0-1.11-.867,1.129,1.129,0,0,0-1.11.867l-.2.78a.219.219,0,0,1-.213.166H-44.2a.22.22,0,0,1-.218-.192l-.67-5.362h34.366l-.67,5.362a.22.22,0,0,1-.218.192h-8.81a.219.219,0,0,1-.213-.166l-.195-.78a1.129,1.129,0,0,0-1.11-.867,1.128,1.128,0,0,0-1.11.867l-.2.78a.219.219,0,0,1-.213.166h-2.968a.633.633,0,0,0-.633.633.633.633,0,0,0,.633.633h2.968a1.483,1.483,0,0,0,1.441-1.125l.077-.308.077.308a1.483,1.483,0,0,0,1.441,1.125h8.81a1.488,1.488,0,0,0,1.474-1.3l.689-5.519h1.658A1.487,1.487,0,0,0-6.3-3.021V-4.044A1.487,1.487,0,0,0-7.787-5.529" transform="translate(49.506 19.764)"/>
              </g>
            </g>
          </g>
        </g>
      </g>
    </g>
  </g>
</svg>
