<svg xmlns="http://www.w3.org/2000/svg" xmlns:xlink="http://www.w3.org/1999/xlink" width="90" height="90" viewBox="0 0 90 90">
  <defs>
    <clipPath id="clip-path">
      <rect id="Rectangle_411507" data-name="Rectangle 411507" width="63" height="62" fill="#fff" stroke="#707070" stroke-width="1" opacity="0"/>
    </clipPath>
  </defs>
  <g id="Group_1204630" data-name="Group 1204630" transform="translate(0)">
    <g id="Group_1204446" data-name="Group 1204446" transform="translate(0)">
      <g id="Rectangle_411076" data-name="Rectangle 411076" fill="#dfe3bc" stroke="#aeba58" stroke-width="3">
        <rect width="90" height="90" rx="20" stroke="none"/>
        <rect x="1.5" y="1.5" width="87" height="87" rx="18.5" fill="none"/>
      </g>
    </g>
    <g id="Mask_Group_1099382" data-name="Mask Group 1099382" transform="translate(13.639 14.375)" clip-path="url(#clip-path)">
      <g id="gallina-huevo_1_" data-name="gallina-huevo (1)" transform="translate(0.039 0)">
        <g id="Group_1204626" data-name="Group 1204626" transform="translate(1 1)">
          <g id="Group_1204614" data-name="Group 1204614" transform="translate(0 45.92)">
            <path id="Path_1270919" data-name="Path 1270919" d="M9.83,47.83l.63.63A5.006,5.006,0,0,0,14,57c3,0,7-2.24,7-5a5,5,0,0,0,5,5,8.832,8.832,0,0,0,5.46-2.1,13.4,13.4,0,0,0,10.2-7.03C44.99,49.26,47,51.05,47,53c0,4.42-10.3,8-23,8S1,57.42,1,53c0-2.43,3.11-4.61,8.03-6.07l.01-.01a7.461,7.461,0,0,0,.79.91Z" transform="translate(-1 -46.92)" fill="#cf9e76"/>
          </g>
          <g id="Group_1204615" data-name="Group 1204615" transform="translate(34.28 18)">
            <path id="Path_1270920" data-name="Path 1270920" d="M37,34a2.993,2.993,0,0,0-.88-2.12,2.958,2.958,0,0,0-.84-.59l.55-1.36A19.334,19.334,0,0,1,47,19l-1,7,2.59-1.56a10.134,10.134,0,0,1,12.38,1.53L61,26a12.885,12.885,0,0,0-6.68,4.13l-.75.87h.82A11.943,11.943,0,0,1,61,33l-5,3,4,4-.71.43A18.107,18.107,0,0,1,50,43l1,5-6.3-2.7A2.958,2.958,0,0,0,45,44a3,3,0,0,0-2.55-2.97h-.01A3.918,3.918,0,0,0,43,39a4,4,0,0,0-4-4H36.82A2.772,2.772,0,0,0,37,34Z" transform="translate(-35.28 -19)" fill="#ffeaa7"/>
          </g>
          <g id="Group_1204616" data-name="Group 1204616" transform="translate(24 30)">
            <path id="Path_1270921" data-name="Path 1270921" d="M42.45,41.03A3,3,0,0,1,45,44a3.007,3.007,0,0,1-2.92,3H32a7,7,0,0,1-7-7,8.893,8.893,0,0,1,2.01-5.65l.63-.71A8.954,8.954,0,0,1,34,31a2.9,2.9,0,0,1,1.28.29,2.958,2.958,0,0,1,.84.59A2.993,2.993,0,0,1,37,34a2.772,2.772,0,0,1-.18,1H39a4,4,0,0,1,4,4,3.918,3.918,0,0,1-.56,2.03Z" transform="translate(-25 -31)" fill="#ff826e"/>
          </g>
          <g id="Group_1204617" data-name="Group 1204617" transform="translate(4 8.92)">
            <path id="Path_1270922" data-name="Path 1270922" d="M14,47a5.022,5.022,0,0,0-3.54,1.46l-.63-.63a7.461,7.461,0,0,1-.79-.91,9.361,9.361,0,0,1-1.3-2.22A9.645,9.645,0,0,1,9.83,34.17L11,33,6.26,24.32a10.37,10.37,0,0,1,4.83-14.4A5.632,5.632,0,0,0,13,11l3-1,3,1,3-1,3,1a5.632,5.632,0,0,0,1.91-1.08,10.37,10.37,0,0,1,4.83,14.4L27.55,32A4.426,4.426,0,0,0,27,34.14v.2l.01.01A8.893,8.893,0,0,0,25,40a7,7,0,0,0,7,7H42.08q-.2.45-.42.87a13.4,13.4,0,0,1-10.2,7.03A3.979,3.979,0,0,0,33,52c0-2.76-4-5-7-5a5,5,0,0,0-5,5c0-2.76-4-5-7-5Z" transform="translate(-5 -9.92)" fill="#ffeaa7"/>
          </g>
          <g id="Group_1204618" data-name="Group 1204618" transform="translate(20 46)">
            <path id="Path_1270923" data-name="Path 1270923" d="M31.46,54.9A8.832,8.832,0,0,1,26,57a5,5,0,0,1,0-10c3,0,7,2.24,7,5A3.979,3.979,0,0,1,31.46,54.9Z" transform="translate(-21 -47)" fill="#ecc19c"/>
          </g>
          <g id="Group_1204619" data-name="Group 1204619" transform="translate(8 46)">
            <path id="Path_1270924" data-name="Path 1270924" d="M21,52c0,2.76-4,5-7,5a5,5,0,1,1,0-10C17,47,21,49.24,21,52Z" transform="translate(-9 -47)" fill="#ecc19c"/>
          </g>
          <g id="Group_1204620" data-name="Group 1204620" transform="translate(8)">
            <path id="Path_1270925" data-name="Path 1270925" d="M16,10l-3,1a5.632,5.632,0,0,1-1.91-1.08,4.421,4.421,0,0,1-.5-.47A5.79,5.79,0,0,1,9.23,6.93L9,6a6.768,6.768,0,0,1,5.61-3H15a3.613,3.613,0,0,1,3.24-2h1.52A3.613,3.613,0,0,1,23,3h.39A6.746,6.746,0,0,1,29,6l-.23.93a5.788,5.788,0,0,1-1.86,2.99A5.632,5.632,0,0,1,25,11l-3-1-3,1Z" transform="translate(-9 -1)" fill="#fc6e51"/>
          </g>
          <g id="Group_1204621" data-name="Group 1204621" transform="translate(22 14)">
            <circle id="Ellipse_12763" data-name="Ellipse 12763" cx="2" cy="2" r="2" fill="#969faa"/>
          </g>
          <g id="Group_1204622" data-name="Group 1204622" transform="translate(10 14)">
            <circle id="Ellipse_12764" data-name="Ellipse 12764" cx="2" cy="2" r="2" fill="#969faa"/>
          </g>
          <g id="Group_1204623" data-name="Group 1204623" transform="translate(18 28)">
            <path id="Path_1270926" data-name="Path 1270926" d="M21,29l1.61,2.42A2.245,2.245,0,0,1,23,32.7,2.288,2.288,0,0,1,20.7,35,1.7,1.7,0,0,1,19,33.3V29Z" transform="translate(-19 -29)" fill="#fc6e51"/>
          </g>
          <g id="Group_1204624" data-name="Group 1204624" transform="translate(14 28)">
            <path id="Path_1270927" data-name="Path 1270927" d="M19,29v4.3A1.7,1.7,0,0,1,17.3,35,2.288,2.288,0,0,1,15,32.7a2.245,2.245,0,0,1,.39-1.28L17,29Z" transform="translate(-15 -29)" fill="#fc6e51"/>
          </g>
          <g id="Group_1204625" data-name="Group 1204625" transform="translate(12 20)">
            <path id="Path_1270928" data-name="Path 1270928" d="M13,27a6,6,0,0,1,12,0,2.015,2.015,0,0,1-2,2H15A2.006,2.006,0,0,1,13,27Z" transform="translate(-13 -21)" fill="#ff826e"/>
          </g>
        </g>
        <g id="Group_1204627" data-name="Group 1204627">
          <path id="Path_1270929" data-name="Path 1270929" d="M16,17a3,3,0,1,0-3,3A3,3,0,0,0,16,17Zm-4,0a1,1,0,1,1,1,1A1,1,0,0,1,12,17Z" transform="translate(0 0)"/>
          <path id="Path_1270930" data-name="Path 1270930" d="M25,20a3,3,0,1,0-3-3A3,3,0,0,0,25,20Zm0-4a1,1,0,1,1-1,1A1,1,0,0,1,25,16Z" transform="translate(0 0)"/>
          <path id="Path_1270931" data-name="Path 1270931" d="M15,30h.131l-.577.866A3.3,3.3,0,0,0,17.3,36a2.673,2.673,0,0,0,1.7-.618A2.673,2.673,0,0,0,20.7,36a3.3,3.3,0,0,0,2.748-5.135L22.868,30H23a3,3,0,0,0,3-3,7,7,0,1,0-14,0,3,3,0,0,0,3,3Zm2.3,4a1.3,1.3,0,0,1-1.084-2.026L17.535,30H18v3.3A.7.7,0,0,1,17.3,34Zm4.478-2.026A1.3,1.3,0,0,1,20.7,34a.7.7,0,0,1-.7-.7V30h.465ZM19,22a5.006,5.006,0,0,1,5,5,1,1,0,0,1-1,1H15a1,1,0,0,1-1-1A5.006,5.006,0,0,1,19,22Z" transform="translate(0 0)"/>
          <path id="Path_1270932" data-name="Path 1270932" d="M16,24h6v2H16Z" transform="translate(0 0)"/>
          <path id="Path_1270933" data-name="Path 1270933" d="M19.529,44.484l-.1-.065a3.214,3.214,0,0,1-.489-4.946l.766-.766-1.414-1.414-.766.766a5.213,5.213,0,0,0,.794,8.024l2.149,1.433,2.458-6.145-1.857-.742Z" transform="translate(0 0)"/>
          <path id="Path_1270934" data-name="Path 1270934" d="M61.555,32.168a12.855,12.855,0,0,0-5.823-2.091,11.853,11.853,0,0,1,5.511-3.107l1.68-.462-1.249-1.249A11.128,11.128,0,0,0,48.08,23.586l-.793.476.941-6.59-1.58.592A20.4,20.4,0,0,0,34.9,29.562l-.2.509A3.869,3.869,0,0,0,34,30a9.926,9.926,0,0,0-4.944,1.319L32.613,24.8A11.35,11.35,0,0,0,28.532,9.653a6.755,6.755,0,0,0,1.2-2.479l.34-1.361-.246-.368A7.722,7.722,0,0,0,23.57,2a4.586,4.586,0,0,0-3.806-2H18.236a4.589,4.589,0,0,0-3.807,2A7.722,7.722,0,0,0,8.168,5.445l-.246.368.34,1.361a6.758,6.758,0,0,0,1.2,2.478A11.352,11.352,0,0,0,5.387,24.8l4.377,8.024-.642.643A10.634,10.634,0,0,0,7.468,46.382C2.642,48.047,0,50.372,0,53c0,5.846,12.365,9,24,9s24-3.154,24-9c0-1.441-.815-3.464-4.415-5.331a4.013,4.013,0,0,0,1.477-1.126l7.292,3.125-1.142-5.707a19.041,19.041,0,0,0,8.59-2.676l1.81-1.087-4-4,5.257-3.153ZM14.6,4h1.013l.276-.553A2.606,2.606,0,0,1,18.236,2h1.528A2.6,2.6,0,0,1,22.1,3.447L22.382,4H23.4a5.724,5.724,0,0,1,4.523,2.208L27.8,6.69a4.738,4.738,0,0,1-2.813,3.251l-1.718-.573.684-2.051-1.9-.633L21.211,9.21,19,9.946,16.791,9.21l-.842-2.526-1.9.633.684,2.051-1.719.572A4.739,4.739,0,0,1,10.2,6.69l-.121-.482A5.723,5.723,0,0,1,14.6,4ZM10.536,34.879l1.7-1.7L7.143,23.84A9.33,9.33,0,0,1,11,11.1a6.8,6.8,0,0,0,1.686.846l.317.1,3-1,3,1,3-1,3,1,.316-.1A6.763,6.763,0,0,0,27,11.1a9.328,9.328,0,0,1,3.855,12.736l-4.188,7.678a5.489,5.489,0,0,0-.661,2.5A9.937,9.937,0,0,0,24,40a7.979,7.979,0,0,0,2.772,6.042C26.513,46.016,26.254,46,26,46a6,6,0,0,0-5.213,3.04,9.5,9.5,0,0,0-6.354-3.021l-.684-.684A5.974,5.974,0,0,1,13,37.8l.829-1.243-1.664-1.109-.829,1.243a7.957,7.957,0,0,0,.642,9.669,5.974,5.974,0,0,0-1.45.757,8.654,8.654,0,0,1,.006-12.235Zm7.577,24.845a7.388,7.388,0,0,1,2.8-4.561,6.027,6.027,0,0,0,2.017,1.981,7.891,7.891,0,0,0-.857,2.822c-1.374-.04-2.691-.124-3.958-.242ZM6.01,56.882a4,4,0,0,1,2.174-3.431,6.011,6.011,0,0,0,2.063,3.224,7.706,7.706,0,0,0-.235,1.637A26.032,26.032,0,0,1,6.01,56.882ZM14,48c2.62,0,6,1.939,6,4s-3.38,4-6,4a4,4,0,0,1,0-8Zm12,8a4,4,0,0,1,0-8c2.62,0,6,1.939,6,4S28.62,56,26,56ZM12,58.6a5.837,5.837,0,0,1,.081-.926A5.952,5.952,0,0,0,14,58a8.93,8.93,0,0,0,2.684-.443,9.318,9.318,0,0,0-.556,1.948Q13.922,59.22,12,58.8V58.6Zm12.819-.723A5.973,5.973,0,0,0,26,58a8.877,8.877,0,0,0,2.479-.383,4.565,4.565,0,0,1,1.34,2.114c-1.812.166-3.727.266-5.751.268A5.866,5.866,0,0,1,24.819,57.882Zm5.656-1.1a9.169,9.169,0,0,0,1.409-.941,14.133,14.133,0,0,0,2.21-.5,5.762,5.762,0,0,1,1.844,3.466q-1.914.416-4.117.7a6.578,6.578,0,0,0-1.346-2.725Zm5.631-2.239a14.541,14.541,0,0,0,2.766-1.766,5.875,5.875,0,0,1,3.022,4.143,26.407,26.407,0,0,1-4.012,1.414,7.794,7.794,0,0,0-1.776-3.791ZM33.757,53.33A3.938,3.938,0,0,0,34,52a5.263,5.263,0,0,0-2.341-4.017c.114.005.226.017.341.017h8.437A12.452,12.452,0,0,1,33.757,53.33ZM2,53c0-1.725,2.554-3.587,6.7-4.924.135.152.265.307.41.452a5.957,5.957,0,0,0-1.078,2.817,6.011,6.011,0,0,0-3.914,4.493C2.762,54.924,2,53.948,2,53Zm44,0c0,.986-.817,2-2.285,2.949a7.845,7.845,0,0,0-3.322-4.585,14.4,14.4,0,0,0,1.679-2.207C44.573,50.336,46,51.713,46,53Zm-4-7H32a6.006,6.006,0,0,1-6-6,8.009,8.009,0,0,1,8-8,2,2,0,0,1,0,4v2a3.987,3.987,0,0,0,3.444-2H39a3,3,0,0,1,0,6H38v2h1a4.966,4.966,0,0,0,3.821-1.815A1.995,1.995,0,0,1,42,46ZM54.387,35.8l4,3.995A17.067,17.067,0,0,1,50,42H48.78l.866,4.332-3.721-1.594a3.931,3.931,0,0,0-2.158-4.31A4.936,4.936,0,0,0,44,39a5.006,5.006,0,0,0-5-5H38a3.978,3.978,0,0,0-1.488-3.087l.243-.608a18.4,18.4,0,0,1,9-9.683l-1.045,7.317,4.4-2.638a9.125,9.125,0,0,1,9.863.3,13.851,13.851,0,0,0-5.414,3.875l-3.317,3.87,1.519,1.3L54.031,32h.363a10.892,10.892,0,0,1,4.62,1.025Z" transform="translate(0 0)"/>
        </g>
      </g>
    </g>
  </g>
</svg>
