<svg xmlns="http://www.w3.org/2000/svg" xmlns:xlink="http://www.w3.org/1999/xlink" width="90" height="90" viewBox="0 0 90 90">
  <defs>
    <clipPath id="clip-path">
      <rect id="Rectangle_411507" data-name="Rectangle 411507" width="63" height="62" transform="translate(-6786 -7097)" fill="#fff" stroke="#707070" stroke-width="1" opacity="0"/>
    </clipPath>
  </defs>
  <g id="Group_1204628" data-name="Group 1204628" transform="translate(6799.639 7111.375)">
    <g id="Group_1204446" data-name="Group 1204446" transform="translate(-6799.639 -7111.375)">
      <g id="Rectangle_411076" data-name="Rectangle 411076" transform="translate(0)" fill="#dfe3bc" stroke="#aeba58" stroke-width="3">
        <rect width="90" height="90" rx="20" stroke="none"/>
        <rect x="1.5" y="1.5" width="87" height="87" rx="18.5" fill="none"/>
      </g>
    </g>
    <g id="Mask_Group_1099380" data-name="Mask Group 1099380" clip-path="url(#clip-path)">
      <g id="gallina_3_" data-name="gallina (3)" transform="translate(-6785.5 -7097)">
        <g id="Group_1204611" data-name="Group 1204611">
          <path id="Path_1270872" data-name="Path 1270872" d="M39.754,51.988v6.7a2.4,2.4,0,0,1-2.4,2.4H29.864V58.435h4.945V45.177h4.945Z" fill="#fbc773"/>
          <path id="Path_1270873" data-name="Path 1270873" d="M36.05,51.988v6.7a2.4,2.4,0,0,1-2.4,2.4H26.7a.535.535,0,0,1-.535-.535v-1.14a2.148,2.148,0,0,1,2.148-2.148h3.158a.688.688,0,0,0,.688-.688v-11.4h3.9Z" fill="#fbce85"/>
          <path id="Path_1270874" data-name="Path 1270874" d="M19.161,9.43a4.262,4.262,0,1,0-3.142-7.3,2.754,2.754,0,0,1-1.928.806h-.143a2.754,2.754,0,0,1-1.928-.806,4.262,4.262,0,1,0-2.988,7.3c.131,0,.26-.008.388-.02Z" fill="#fd6773"/>
          <g id="Group_1204608" data-name="Group 1204608">
            <path id="Path_1270875" data-name="Path 1270875" d="M6.929,5.729a4.276,4.276,0,0,1,3.912-3.947,4.343,4.343,0,0,1,.788.011A4.262,4.262,0,1,0,8.585,9.411,4.256,4.256,0,0,1,6.929,5.729Z" fill="#fc4d5a"/>
          </g>
          <path id="Path_1270876" data-name="Path 1270876" d="M9.722,27.08l-.787.787A2.716,2.716,0,0,1,5.04,24.082L6.155,22.9V15.024h6.511v9.189Z" fill="#fd6773"/>
          <path id="Path_1270877" data-name="Path 1270877" d="M7.364,24.96l1.115-1.182V15.9h4.188v-.878H6.155V22.9L5.04,24.082a2.715,2.715,0,0,0,2.283,4.561,2.716,2.716,0,0,1,.041-3.683Z" fill="#fc4d5a"/>
          <path id="Path_1270878" data-name="Path 1270878" d="M8.232,18.485l-3.85-.92a1.639,1.639,0,0,1-.615-2.9l4.062-3.106L11.5,8.453l.283,10.732Z" fill="#fbc773"/>
          <g id="Group_1204609" data-name="Group 1204609">
            <path id="Path_1270879" data-name="Path 1270879" d="M10.939,21.524l.116-.477a7.156,7.156,0,1,1,10.377-6.39v3.222a1.591,1.591,0,0,0,.4,1.058L26.86,24.58a1.664,1.664,0,0,0,1.243.557h23.73l5.9-1.114A.965.965,0,0,1,58.8,25.346l-1.447,3.44h0a23.2,23.2,0,0,1-23.2,23.2H32.925a23.2,23.2,0,0,1-23.2-23.2,19.4,19.4,0,0,1,.581-4.717Z" fill="#efedef"/>
          </g>
          <path id="Path_1270880" data-name="Path 1270880" d="M38.116,50.494H36.888a23.2,23.2,0,0,1-23.2-23.2,19.4,19.4,0,0,1,.581-4.717L14.9,20.03l.116-.477A7.147,7.147,0,0,1,13.861,7.515a7.155,7.155,0,0,0-2.805,13.532l-.116.477L10.3,24.068a19.4,19.4,0,0,0-.581,4.717,23.2,23.2,0,0,0,23.2,23.2h1.228a23.108,23.108,0,0,0,10.134-2.325,23.228,23.228,0,0,1-6.171.831Z" fill="#e5e1e5"/>
          <g id="XMLID_1058_">
            <g id="Group_1204610" data-name="Group 1204610">
              <path id="Path_1270881" data-name="Path 1270881" d="M43.768,34.094v1.339c0,1.9-1.541,4.049-3.442,4.049H30.557a1.167,1.167,0,0,1-1.167-1.167V34.094H43.768Z" fill="#e5e1e5"/>
              <path id="Path_1270882" data-name="Path 1270882" d="M34.168,36.788A1.167,1.167,0,0,1,33,35.621V34.094H29.39v4.22a1.167,1.167,0,0,0,1.167,1.167h9.769a3.725,3.725,0,0,0,3.2-2.694Z" fill="#d7d0d6"/>
              <path id="Path_1270883" data-name="Path 1270883" d="M45.8,29.92v1.339A3.442,3.442,0,0,1,42.36,34.7H29.39V29.92H45.8Z" fill="#e5e1e5"/>
              <path id="Path_1270884" data-name="Path 1270884" d="M35.036,32.647A2.035,2.035,0,0,1,33,30.612V29.92H29.39V34.7H42.36a3.443,3.443,0,0,0,3.15-2.054Z" fill="#d7d0d6"/>
              <path id="Path_1270885" data-name="Path 1270885" d="M48.7,25.137v1.339A3.443,3.443,0,0,1,45.26,29.92H29.39V25.137H48.7Z" fill="#e5e1e5"/>
              <path id="Path_1270886" data-name="Path 1270886" d="M37.935,27.824H35.688A2.687,2.687,0,0,1,33,25.137H29.39V29.92H45.26a3.443,3.443,0,0,0,3.168-2.1Z" fill="#d7d0d6"/>
            </g>
          </g>
        </g>
        <g id="Group_1204612" data-name="Group 1204612">
          <circle id="Ellipse_12762" data-name="Ellipse 12762" cx="1.437" cy="1.437" r="1.437" transform="translate(11.501 11.057)"/>
          <path id="Path_1270887" data-name="Path 1270887" d="M59.371,23.793a1.872,1.872,0,0,0-1.806-.664l-5.816,1.1H27.764l-5.25-5.9a.681.681,0,0,1-.173-.453V14.656A7.987,7.987,0,0,0,20.864,10a5.173,5.173,0,1,0-5.483-8.516,1.839,1.839,0,0,1-1.29.545h-.144a1.839,1.839,0,0,1-1.29-.545,5.172,5.172,0,1,0-5.045,8.658,8.142,8.142,0,0,0-.488.813l-3.91,2.99a2.549,2.549,0,0,0,.956,4.5l1.075.257v3.832l-.867.919a3.625,3.625,0,0,0,4.438,5.634,24.276,24.276,0,0,0,.535,4.779.91.91,0,0,0,.889.719.921.921,0,0,0,.192-.02.91.91,0,0,0,.7-1.081,22.439,22.439,0,0,1-.5-4.7,18.558,18.558,0,0,1,.554-4.5l.5-2a8.03,8.03,0,0,0,1.225.312.91.91,0,1,0,.307-1.794A6.245,6.245,0,1,1,18.59,10.14a6.192,6.192,0,0,1,1.933,4.517v3.223a2.5,2.5,0,0,0,.633,1.664l5.521,6.2a.91.91,0,0,0,.68.3H47.792v.429a2.535,2.535,0,0,1-2.532,2.532H42.435a.91.91,0,0,0,0,1.82h2.457v.429A2.535,2.535,0,0,1,42.36,33.79H30.816a.91.91,0,0,0,0,1.82H42.858v.429a2.535,2.535,0,0,1-2.532,2.532H29.39a.91.91,0,0,0,0,1.82H40.326a4.357,4.357,0,0,0,4.352-4.352v-1.1a4.352,4.352,0,0,0,2.035-3.681v-.68a4.359,4.359,0,0,0,2.9-4.1v-.429h2.222A.907.907,0,0,0,52,26.032l5.9-1.114a.047.047,0,0,1,.053.019.046.046,0,0,1,.008.056l-1.447,3.441a.908.908,0,0,0-.071.353A22.318,22.318,0,0,1,34.153,51.078H32.925A22.3,22.3,0,0,1,12.218,37.056a.91.91,0,0,0-1.69.676A24.12,24.12,0,0,0,31.244,52.84v3.518H28.308a3.061,3.061,0,0,0-3.057,3.057v1.14A1.447,1.447,0,0,0,26.7,62H37.353a3.314,3.314,0,0,0,3.31-3.31V52a24.156,24.156,0,0,0,17.6-23.033L59.641,25.7a1.871,1.871,0,0,0-.27-1.9ZM4.049,16.122a.709.709,0,0,1,.27-.73l1.927-1.473c-.011.119-.02.238-.025.358a8.049,8.049,0,0,0,.394,2.886L4.593,16.68A.709.709,0,0,1,4.049,16.122ZM10.008,21.5,9.42,23.847a20.372,20.372,0,0,0-.486,2.733l-.643.643A1.806,1.806,0,0,1,5.7,24.707l1.115-1.182a.91.91,0,0,0,.248-.625V19.142l.618.148A8.1,8.1,0,0,0,10.008,21.5ZM13.9,6.6A8.008,8.008,0,0,0,9.069,8.524H9.032A3.353,3.353,0,0,1,5.688,4.932a3.352,3.352,0,0,1,5.694-2.15,3.647,3.647,0,0,0,2.566,1.068h.144a3.647,3.647,0,0,0,2.566-1.068A3.352,3.352,0,0,1,21.5,7.413a3.323,3.323,0,0,1-2.025,1.078A7.992,7.992,0,0,0,13.9,6.6ZM38.844,58.69a1.492,1.492,0,0,1-1.49,1.49H36.6a3.288,3.288,0,0,0,.356-1.49v-.561a.91.91,0,0,0-1.82,0v.561a1.492,1.492,0,0,1-1.49,1.49H27.07v-.765a1.239,1.239,0,0,1,1.238-1.238h3.158a1.6,1.6,0,0,0,1.6-1.6V52.9h1.088c.331,0,.66-.008.987-.022v1.374a.91.91,0,1,0,1.82,0V52.734q.954-.111,1.884-.3V58.69Z"/>
          <path id="Path_1270888" data-name="Path 1270888" d="M38.558,30.829a.91.91,0,0,0,0-1.82H34.324a.91.91,0,0,0,0,1.82Z"/>
          <path id="Path_1270889" data-name="Path 1270889" d="M26.16,40.392a.91.91,0,1,0,0-1.82H24.231a.91.91,0,1,0,0,1.82Z"/>
        </g>
      </g>
    </g>
  </g>
</svg>
