<svg xmlns="http://www.w3.org/2000/svg" xmlns:xlink="http://www.w3.org/1999/xlink" width="90" height="90" viewBox="0 0 90 90">
  <defs>
    <clipPath id="clip-path">
      <rect id="Rectangle_411506" data-name="Rectangle 411506" width="63" height="62" transform="translate(-6763 -7339)" fill="#fff" stroke="#707070" stroke-width="1" opacity="0"/>
    </clipPath>
  </defs>
  <g id="Group_1204661" data-name="Group 1204661" transform="translate(6776.353 7352.682)">
    <g id="Group_1204418" data-name="Group 1204418" transform="translate(-7584.134 -9324.682)">
      <g id="Rectangle_411073" data-name="Rectangle 411073" transform="translate(807.781 1972)" fill="#f5dec7" stroke="#e7af74" stroke-width="3">
        <rect width="90" height="90" rx="20" stroke="none"/>
        <rect x="1.5" y="1.5" width="87" height="87" rx="18.5" fill="none"/>
      </g>
    </g>
    <g id="Mask_Group_1099386" data-name="Mask Group 1099386" clip-path="url(#clip-path)">
      <g id="equilibrio" transform="translate(-6762.5 -7339)">
        <path id="Path_1270961" data-name="Path 1270961" d="M52.984,44.189H52.29a7.215,7.215,0,0,1-7.215-7.215v-.88H60.2v.88A7.215,7.215,0,0,1,52.984,44.189Z" fill="#fea921"/>
        <path id="Path_1270962" data-name="Path 1270962" d="M54.52,36.094a.1.1,0,0,1,.1.1v.777a7.217,7.217,0,0,1-4.774,6.79,7.2,7.2,0,0,0,2.441.424h.694A7.215,7.215,0,0,0,60.2,36.974v-.88Z" fill="#ff901d"/>
        <path id="Path_1270963" data-name="Path 1270963" d="M9.71,44.189H9.016A7.215,7.215,0,0,1,1.8,36.974v-.88H16.925v.88A7.215,7.215,0,0,1,9.71,44.189Z" fill="#fea921"/>
        <path id="Path_1270964" data-name="Path 1270964" d="M11.2,36.094a.1.1,0,0,1,.1.1v.777a7.217,7.217,0,0,1-4.754,6.783,7.2,7.2,0,0,0,2.461.431H9.71a7.215,7.215,0,0,0,7.215-7.215v-.88Z" fill="#ff901d"/>
        <rect id="Rectangle_411510" data-name="Rectangle 411510" width="4.03" height="46.358" transform="translate(28.985 7.433)" fill="#61aff6"/>
        <rect id="Rectangle_411511" data-name="Rectangle 411511" width="2.015" height="46.358" transform="translate(31 7.433)" fill="#55a2f0"/>
        <path id="Path_1270965" data-name="Path 1270965" d="M44.977,57.888H17.022v-4.02a1.842,1.842,0,0,1,1.842-1.842H43.135a1.842,1.842,0,0,1,1.842,1.842v4.02Z" fill="#775146"/>
        <circle id="Ellipse_12766" data-name="Ellipse 12766" cx="3.663" cy="3.663" r="3.663" transform="translate(27.337 0.896)" fill="#55a2f0"/>
        <path id="Path_1270966" data-name="Path 1270966" d="M50.929,19.362a9.971,9.971,0,0,1-7.243-3.084,5.714,5.714,0,0,0-4.09-1.757H22.758a6.425,6.425,0,0,0-4.731,2.051,9.075,9.075,0,0,1-6.619,2.79H2.851a.715.715,0,0,1-.715-.715V16.51a.715.715,0,0,1,.715-.715h8.22A6.425,6.425,0,0,0,15.8,13.744a9.077,9.077,0,0,1,6.62-2.79H39.579a9.076,9.076,0,0,1,6.619,2.79A6.425,6.425,0,0,0,50.929,15.8h8.219a.715.715,0,0,1,.715.715v2.138a.715.715,0,0,1-.715.715Z" fill="#61aff6"/>
        <path id="Path_1270967" data-name="Path 1270967" d="M43.135,52.026H39.443l0,.715A2.058,2.058,0,0,1,37.383,54.8H17.022v3.092H44.977v-4.02A1.842,1.842,0,0,0,43.135,52.026Z" fill="#664239"/>
        <path id="Path_1270968" data-name="Path 1270968" d="M49.326,61.1H12.674V58.248a1.889,1.889,0,0,1,1.889-1.889H47.437a1.889,1.889,0,0,1,1.889,1.889V61.1Z" fill="#775146"/>
        <path id="Path_1270969" data-name="Path 1270969" d="M49.32,60l0-1.818a1.887,1.887,0,0,0-1.885-1.82H43.693l0,.8a1.884,1.884,0,0,1-1.884,1.881H12.674V61.1H49.326Z" fill="#664239"/>
        <path id="Path_1270970" data-name="Path 1270970" d="M61.094,36.087c0-.02,0-.041,0-.061s0-.02,0-.029,0-.034-.008-.052,0-.026-.007-.039-.006-.025-.01-.037-.009-.034-.014-.051-.007-.018-.01-.027-.014-.039-.023-.058l0-.007L54.041,20.258h5.107a1.613,1.613,0,0,0,1.611-1.611V16.51A1.613,1.613,0,0,0,59.149,14.9H50.929a5.538,5.538,0,0,1-4.077-1.768,9.975,9.975,0,0,0-7.273-3.073H33.911V8.066a4.559,4.559,0,1,0-5.822,0v1.992H22.421a9.975,9.975,0,0,0-7.273,3.073A5.537,5.537,0,0,1,11.071,14.9H2.851A1.613,1.613,0,0,0,1.24,16.51v2.138a1.613,1.613,0,0,0,1.611,1.611H7.94L.984,35.727l0,.007c-.008.018-.015.037-.022.056s-.007.019-.01.029-.009.033-.014.049-.007.026-.01.039,0,.025-.006.037S.913,35.979.911,36s0,.019,0,.028,0,.042,0,.062c0,0,0,0,0,.007v.88a8.12,8.12,0,0,0,8.111,8.111H9.71a8.12,8.12,0,0,0,8.111-8.111v-.88s0-.005,0-.008c0-.02,0-.04,0-.06s0-.021,0-.031,0-.034-.008-.051,0-.027-.007-.039-.006-.025-.01-.037-.009-.034-.014-.051-.007-.018-.01-.027-.014-.039-.023-.058l0-.007L10.767,20.258h.641a9.975,9.975,0,0,0,7.273-3.073,5.537,5.537,0,0,1,4.077-1.768h5.331V51.13H18.864a2.741,2.741,0,0,0-2.738,2.738v1.6H14.563a2.788,2.788,0,0,0-2.785,2.785V61.1a.9.9,0,0,0,.9.9H49.326a.9.9,0,0,0,.9-.9V58.248a2.788,2.788,0,0,0-2.785-2.785H45.873v-1.6a2.741,2.741,0,0,0-2.738-2.738H33.911v-25.9a.9.9,0,1,0-1.792,0v25.9H29.881V15.417h2.238v4.14a.9.9,0,1,0,1.792,0v-4.14H39.6A4.813,4.813,0,0,1,43.04,16.9a10.86,10.86,0,0,0,7.889,3.358h.285L44.258,35.727l0,.006c-.009.019-.016.039-.023.059l-.009.025c-.006.017-.01.035-.015.052s-.007.024-.009.036,0,.026-.007.04-.006.034-.008.051,0,.02,0,.03,0,.04,0,.061c0,0,0,0,0,.007v.88a8.12,8.12,0,0,0,8.111,8.111h.694a8.12,8.12,0,0,0,8.111-8.111v-.88S61.094,36.089,61.094,36.087ZM31,1.792a2.766,2.766,0,0,1,1.485,5.1q-.051.032-.1.062l-.053.031q-.071.039-.144.074l-.052.023q-.058.026-.117.05l-.05.02c-.053.02-.106.038-.159.054l-.043.012q-.067.019-.136.035l-.046.011c-.057.012-.115.023-.173.032l-.029,0c-.05.007-.1.012-.152.017l-.048,0c-.06,0-.12.007-.181.007s-.121,0-.181-.007l-.048,0c-.051,0-.1-.01-.152-.017l-.029,0c-.058-.009-.116-.019-.173-.032l-.046-.011q-.068-.016-.135-.035l-.044-.012q-.08-.025-.159-.054l-.051-.02q-.058-.023-.115-.049l-.053-.024q-.072-.035-.143-.073l-.055-.032-.1-.06A2.766,2.766,0,0,1,31,1.792ZM32.119,8.98v1.078H29.881V8.98l.044.01q.1.025.2.045l.068.012q.1.019.21.032l.048.006A4.589,4.589,0,0,0,31,9.119c.1,0,.189,0,.283-.01h0c.087-.005.173-.013.259-.024l.051-.007q.1-.014.207-.032l.07-.012c.069-.013.137-.028.2-.045ZM9.71,43.293H9.016A6.326,6.326,0,0,1,2.7,36.99H16.029A6.326,6.326,0,0,1,9.71,43.293ZM15.538,35.2H3.187L9.354,21.484ZM33.015,52.922H43.136a.947.947,0,0,1,.946.946v1.6H25.372a.9.9,0,1,0,0,1.792H47.437a.994.994,0,0,1,.993.993v1.96H13.57v-1.96a.994.994,0,0,1,.993-.993h5.086a.9.9,0,1,0,0-1.792H17.918v-1.6a.947.947,0,0,1,.946-.946H33.015ZM50.929,18.466a9.082,9.082,0,0,1-6.6-2.809A6.615,6.615,0,0,0,39.6,13.625H22.758a7.312,7.312,0,0,0-5.384,2.334,8.177,8.177,0,0,1-5.966,2.507H3.032V16.691h8.038a7.312,7.312,0,0,0,5.384-2.334,8.178,8.178,0,0,1,5.966-2.507H39.579a8.177,8.177,0,0,1,5.966,2.507,7.313,7.313,0,0,0,5.384,2.334h8.038v1.775Zm1.7,3.018L58.812,35.2H46.461Zm.356,21.808H52.29a6.325,6.325,0,0,1-6.318-6.3H59.3A6.325,6.325,0,0,1,52.984,43.293Z"/>
      </g>
    </g>
  </g>
</svg>
