<svg xmlns="http://www.w3.org/2000/svg" xmlns:xlink="http://www.w3.org/1999/xlink" width="90" height="90" viewBox="0 0 90 90">
  <defs>
    <clipPath id="clip-path">
      <rect id="Rectangle_411506" data-name="Rectangle 411506" width="63" height="62" transform="translate(-6763 -7339)" fill="#fff" stroke="#707070" stroke-width="1" opacity="0"/>
    </clipPath>
  </defs>
  <g id="Group_1204659" data-name="Group 1204659" transform="translate(6776.353 7352.682)">
    <g id="Group_1204418" data-name="Group 1204418" transform="translate(-7584.134 -9324.682)">
      <g id="Rectangle_411073" data-name="Rectangle 411073" transform="translate(807.781 1972)" fill="#f5dec7" stroke="#e7af74" stroke-width="3">
        <rect width="90" height="90" rx="20" stroke="none"/>
        <rect x="1.5" y="1.5" width="87" height="87" rx="18.5" fill="none"/>
      </g>
    </g>
    <g id="Mask_Group_1099384" data-name="Mask Group 1099384" clip-path="url(#clip-path)">
      <g id="cascara-de-huevo" transform="translate(-6766.5 -7343)">
        <path id="Path_1270946" data-name="Path 1270946" d="M30.78,51.444c-1.286-.669-2.985-1.641-5.255-3.063a1,1,0,0,1-.464-.957l.815-7.418-2.3-.989a1,1,0,0,1-.6-1.026,47.422,47.422,0,0,1,1.191-6.645,14.412,14.412,0,0,1-2.556-1.3,1,1,0,0,1-.4-1.153,13.545,13.545,0,0,1,2.241-4.143,20.976,20.976,0,0,1-.05-5.837C16.6,21.109,10.979,27.7,8.177,32.837c-2.262,4.148-3.169,8.017-2.425,10.351,1.837,5.77,12.6,9.232,25.029,8.256Z" fill="#e3d9b1"/>
        <path id="Path_1270947" data-name="Path 1270947" d="M25.68,29.729a1,1,0,0,1,.685,1.373,31.487,31.487,0,0,0-1.318,6.372l2.3.987a1,1,0,0,1,.6,1.028l-.827,7.528a46.166,46.166,0,0,0,7.108,3.8c-.39-1.137-1.061-3.04-1.684-4.783a1,1,0,0,1,.01-.7,12.179,12.179,0,0,0,.954-4.274c-.19-1.369-2.085-4-3.235-5.345a1,1,0,0,1-.193-.958c.647-2.01,1.21-4.623.992-5.341-2.141-7.038-4.622-10.426-5.491-10.894-.249.481-.6,2.239-.085,6.472a1,1,0,0,1-.335.873,8.836,8.836,0,0,0-1.768,2.913,9.737,9.737,0,0,0,2.288.948Z" fill="#d6c88b"/>
        <path id="Path_1270948" data-name="Path 1270948" d="M45.339,41.941a1.007,1.007,0,0,1,.294-.489,16.455,16.455,0,0,1,2.692-1.913,7.232,7.232,0,0,0,3.181-2.933L49.9,32.2a1,1,0,0,1,.093-.876l1.791-2.845a21.282,21.282,0,0,0-1.8-3.377,1,1,0,0,1-.1-1.051,7.018,7.018,0,0,0,.622-5.31,1.365,1.365,0,0,0-.425-.635,12.622,12.622,0,0,0-3.7,2.826l-1,3.772a1,1,0,0,1-.451.6l-3.164,1.9a30.319,30.319,0,0,1-1.112,7.983,9.129,9.129,0,0,0,.058,3.664c.368,2.891.854,6.716-1.1,11.23a32.873,32.873,0,0,0,4.329-2.711Z" fill="#d6c88b"/>
        <path id="Path_1270949" data-name="Path 1270949" d="M52.7,19.26a9.667,9.667,0,0,1-.764,5.144,30.618,30.618,0,0,1,1.9,3.774,1,1,0,0,1-.075.92l-1.811,2.877,1.58,4.329a1,1,0,0,1-.016.728,8.764,8.764,0,0,1-4.142,4.215,16.276,16.276,0,0,0-2.166,1.49l-1.408,5.48a1,1,0,0,1-.371.553,36.516,36.516,0,0,1-4.037,2.653c11.463,2.259,19.924-2.843,22.33-9.4C66.276,35.035,62.694,24.836,52.7,19.26Zm8.543,17.257c-.034,0-.068,0-.1,0a1,1,0,0,1-.994-.9,14.692,14.692,0,0,0-5.2-9.754,1,1,0,1,1,1.277-1.539,16.706,16.706,0,0,1,5.917,11.093,1,1,0,0,1-.895,1.1Z" fill="#e3d9b1"/>
        <path id="Path_1270950" data-name="Path 1270950" d="M50.82,16.109a1,1,0,0,0-.807.013c-1.536.128-3.64,1.955-5.243,3.6a1,1,0,0,0-.25.441L43.556,23.8l-3.291,1.979a1,1,0,0,0-.484.851c0,.052-.044,5.267-1,7.872a10.133,10.133,0,0,0-.048,4.605c.4,3.173.9,7.118-1.806,11.877a.986.986,0,0,0-.128.258c0,.008,0,.015,0,.023a1,1,0,0,0,.6,1.254,1.651,1.651,0,0,0,.443.084,31.364,31.364,0,0,0,8.927,1.368c9.6,0,16.553-5.073,18.824-11.259,3.094-8.433-1.673-21-14.77-26.6Zm-10.1,22.746a9.132,9.132,0,0,1-.058-3.664,30.317,30.317,0,0,0,1.112-7.983l3.164-1.9a1,1,0,0,0,.451-.6l1-3.772a12.622,12.622,0,0,1,3.7-2.826,1.365,1.365,0,0,1,.425.635,7.018,7.018,0,0,1-.622,5.31,1,1,0,0,0,.1,1.051,21.287,21.287,0,0,1,1.8,3.377L49.99,31.323a1,1,0,0,0-.093.876l1.608,4.406a7.232,7.232,0,0,1-3.181,2.933,16.456,16.456,0,0,0-2.692,1.913,1.007,1.007,0,0,0-.294.489l-1.4,5.433a32.882,32.882,0,0,1-4.329,2.711c1.957-4.514,1.471-8.339,1.1-11.23Zm23,3.167c-2.406,6.557-10.867,11.659-22.33,9.4a36.535,36.535,0,0,0,4.037-2.653,1,1,0,0,0,.371-.553l1.408-5.48a16.276,16.276,0,0,1,2.166-1.49,8.763,8.763,0,0,0,4.142-4.215,1,1,0,0,0,.016-.728l-1.58-4.329L53.756,29.1a1,1,0,0,0,.075-.92,30.617,30.617,0,0,0-1.9-3.774A9.667,9.667,0,0,0,52.7,19.26C62.694,24.836,66.276,35.035,63.712,42.022Z"/>
        <path id="Path_1270951" data-name="Path 1270951" d="M56.215,24.328a1,1,0,1,0-1.278,1.539,14.691,14.691,0,0,1,5.2,9.754,1,1,0,0,0,.994.9c.034,0,.067,0,.1,0a1,1,0,0,0,.895-1.1,16.7,16.7,0,0,0-5.917-11.093Z"/>
        <path id="Path_1270952" data-name="Path 1270952" d="M26.623,53.613a55.794,55.794,0,0,0,6.716-.413l.178-.02c1.773-.195,2.569-.382,2.9-1.04a1.1,1.1,0,0,0,.067-.834c-.153-.573-1.394-4.072-1.94-5.6a12.883,12.883,0,0,0,.938-4.92c-.279-2.006-2.441-4.838-3.34-5.943.452-1.494,1.273-4.574.837-6.007-1.4-4.586-4.4-11.906-7.259-12.336a.987.987,0,0,0-.659-.1c-.47.1-.95.209-1.425.337C15.883,18.835,9.516,26.2,6.421,31.879c-2.557,4.686-3.5,9.03-2.576,11.916,1.912,6,11.206,9.818,22.779,9.818ZM25.16,25.868a1,1,0,0,0,.335-.873c-.514-4.232-.163-5.99.085-6.472.869.468,3.35,3.856,5.491,10.894.218.718-.345,3.331-.992,5.341a1,1,0,0,0,.193.958c1.149,1.34,3.045,3.976,3.235,5.345a12.178,12.178,0,0,1-.954,4.274,1,1,0,0,0-.01.7c.622,1.743,1.294,3.646,1.684,4.783a46.141,46.141,0,0,1-7.108-3.8l.827-7.528a1,1,0,0,0-.6-1.028l-2.3-.987A31.485,31.485,0,0,1,26.365,31.1a1,1,0,0,0-.685-1.373,9.743,9.743,0,0,1-2.288-.948,8.832,8.832,0,0,1,1.768-2.913ZM8.177,32.837C10.979,27.7,16.6,21.109,23.4,18.911a20.976,20.976,0,0,0,.05,5.837,13.552,13.552,0,0,0-2.241,4.143,1,1,0,0,0,.4,1.153,14.412,14.412,0,0,0,2.556,1.3,47.374,47.374,0,0,0-1.191,6.645,1,1,0,0,0,.6,1.026l2.3.989-.815,7.418a1,1,0,0,0,.464.957c2.271,1.422,3.969,2.394,5.255,3.063-12.431.976-23.191-2.486-25.029-8.256-.744-2.334.163-6.2,2.425-10.351Z"/>
      </g>
    </g>
  </g>
</svg>
