<svg xmlns="http://www.w3.org/2000/svg" width="136.29" height="136.303" viewBox="0 0 136.29 136.303">
  <g id="escala" transform="translate(-0.003)">
    <g id="Group_1204663" data-name="Group 1204663" transform="translate(2.128 2.545)">
      <path id="Path_1270971" data-name="Path 1270971" d="M83.114,33v4.984a3.527,3.527,0,0,1-3.535,3.535H35.535A3.527,3.527,0,0,1,32,37.984V33Z" transform="translate(34.02 34.736)" fill="#ccd8e5"/>
      <path id="Path_1270972" data-name="Path 1270972" d="M83.114,16.535V55.595H32V16.535A3.527,3.527,0,0,1,35.535,13H79.578a3.527,3.527,0,0,1,3.535,3.535Z" transform="translate(34.02 12.142)" fill="#dfe8f4"/>
      <g id="Group_1204662" data-name="Group 1204662" transform="translate(81.993 25.142)">
        <path id="Path_1270973" data-name="Path 1270973" d="M57.038,30.038l-8.519-6.815L40,30.038V13H57.038Z" transform="translate(-38.935 -13)" fill="#0795ff"/>
        <path id="Path_1270974" data-name="Path 1270974" d="M56.538,28.259H41.63a2.13,2.13,0,1,1,0-4.259H56.538a2.13,2.13,0,1,1,0,4.259Z" transform="translate(-39.5 -0.573)" fill="#0795ff"/>
        <path id="Path_1270975" data-name="Path 1270975" d="M56.538,32.259H41.63a2.13,2.13,0,0,1,0-4.259H56.538a2.13,2.13,0,1,1,0,4.259Z" transform="translate(-39.5 3.946)" fill="#0795ff"/>
      </g>
      <path id="Path_1270976" data-name="Path 1270976" d="M7,41H113.487v8.519H7Z" transform="translate(5.777 43.774)" fill="#dfe8f4"/>
      <path id="Path_1270977" data-name="Path 1270977" d="M128.783,74.816a4.259,4.259,0,0,0,4.166-5.152l-4.564-21.3A4.259,4.259,0,0,0,124.217,45H9.825a4.26,4.26,0,0,0-4.166,3.368L1.1,69.664a4.259,4.259,0,0,0,4.164,5.152Z" transform="translate(-1.001 48.293)" fill="#0795ff"/>
      <path id="Path_1270978" data-name="Path 1270978" d="M51.778,49V61.778H41.13A2.13,2.13,0,0,1,39,59.649V51.13A2.13,2.13,0,0,1,41.13,49Z" transform="translate(41.929 52.812)" fill="#dfe8f4"/>
      <path id="Path_1270979" data-name="Path 1270979" d="M45,49H57.778V61.778H45Z" transform="translate(48.707 52.812)" fill="#ccd8e5"/>
      <path id="Path_1270980" data-name="Path 1270980" d="M63.778,51.13v8.519a2.13,2.13,0,0,1-2.13,2.13H51V49H61.649A2.13,2.13,0,0,1,63.778,51.13Z" transform="translate(55.485 52.812)" fill="#dfe8f4"/>
      <rect id="Rectangle_411512" data-name="Rectangle 411512" width="50.902" height="33.086" rx="1" transform="translate(4.238)" fill="#0795ff"/>
      <path id="Path_1270981" data-name="Path 1270981" d="M13,21h8.519V55.076H13Z" transform="translate(12.556 21.18)" fill="#ccd8e5"/>
      <path id="Path_1270982" data-name="Path 1270982" d="M11,17H28.038v6.389a2.13,2.13,0,0,1-2.13,2.13H13.13A2.13,2.13,0,0,1,11,23.389Z" transform="translate(10.296 16.661)" fill="#156cdd"/>
      <path id="Path_1270983" data-name="Path 1270983" d="M7,5H41.076V22.038H7Z" transform="translate(5.777 3.104)" fill="#dfe8f4"/>
      <path id="Path_1270984" data-name="Path 1270984" d="M25.764,67.519H7.793a2.13,2.13,0,0,1-2.066-1.612L4,59H29.557L27.83,65.907A2.13,2.13,0,0,1,25.764,67.519Z" transform="translate(2.388 64.109)" fill="#156cdd"/>
      <path id="Path_1270985" data-name="Path 1270985" d="M55.793,67.519h9.452a2.13,2.13,0,0,0,2.066-1.612L69.038,59H52l1.727,6.907A2.13,2.13,0,0,0,55.793,67.519Z" transform="translate(56.615 64.109)" fill="#156cdd"/>
      <rect id="Rectangle_411513" data-name="Rectangle 411513" width="123.438" height="8.908" rx="1" transform="translate(4.238 76.353)" fill="#156cdd"/>
    </g>
    <g id="Group_1204664" data-name="Group 1204664" transform="translate(0.003)">
      <path id="Path_1270986" data-name="Path 1270986" d="M136.15,120.053l-4.558-21.3a6.421,6.421,0,0,0-6.24-5.047h-1.832V89.449h4.259a4.272,4.272,0,0,0,4.259-4.259V80.93a4.272,4.272,0,0,0-4.259-4.259H121.2a6.05,6.05,0,0,0,.192-1.406V31.222a5.663,5.663,0,0,0-5.665-5.665H71.683a5.663,5.663,0,0,0-5.665,5.665V75.265a6.048,6.048,0,0,0,.192,1.406H38.332V46.854a4.272,4.272,0,0,0,4.259-4.259V38.335H55.37a4.272,4.272,0,0,0,4.259-4.259V4.259A4.272,4.272,0,0,0,55.37,0H8.515A4.272,4.272,0,0,0,4.256,4.259V34.076a4.272,4.272,0,0,0,4.259,4.259H21.294v4.259a4.272,4.272,0,0,0,4.259,4.259V76.67H8.515A4.272,4.272,0,0,0,4.256,80.93v4.259a4.272,4.272,0,0,0,4.259,4.259h4.259v4.259H10.943A6.421,6.421,0,0,0,4.7,98.756l-4.558,21.3a6.389,6.389,0,0,0,6.24,7.731h.469l1.32,5.282a4.238,4.238,0,0,0,4.132,3.237H30.281a4.238,4.238,0,0,0,4.132-3.237l1.32-5.282h73.348l1.32,5.282a4.238,4.238,0,0,0,4.132,3.237h9.456a4.238,4.238,0,0,0,4.132-3.237l1.32-5.282h.469a6.389,6.389,0,0,0,6.24-7.731ZM87.316,29.816h12.778V40.295l-5.069-4.046a2.1,2.1,0,0,0-2.641,0l-5.069,4.046ZM70.278,31.222a1.418,1.418,0,0,1,1.406-1.406H83.056V44.724a2.13,2.13,0,0,0,1.214,1.917,2.089,2.089,0,0,0,2.236-.256l7.2-5.75,7.2,5.75a2.047,2.047,0,0,0,1.32.469,1.932,1.932,0,0,0,.916-.213,2.13,2.13,0,0,0,1.214-1.917V29.816h11.373a1.418,1.418,0,0,1,1.406,1.406v36.93H70.278Zm0,41.189h46.854v2.854a1.391,1.391,0,0,1-1.406,1.406H71.683a1.418,1.418,0,0,1-1.406-1.406ZM38.332,42.595H25.553V38.335H38.332Zm-4.259,4.259V76.67H29.813V46.854ZM8.515,34.076V4.259H55.37V34.076Zm0,51.114V80.93H127.78v4.259Zm110.746,4.259v4.259H17.034V89.449Zm-88.98,42.595H12.306l-1.065-4.259h20.1Zm93.708,0h-9.456l-1.065-4.259h11.586Zm7.582-9.307a2.177,2.177,0,0,1-1.661.788H6.386A2.13,2.13,0,0,1,4.3,120.948l4.579-21.3a2.117,2.117,0,0,1,2.066-1.682H125.353a2.117,2.117,0,0,1,2.066,1.682l4.579,21.3A2.162,2.162,0,0,1,131.571,122.736Z" transform="translate(-0.003)"/>
      <path id="Path_1270987" data-name="Path 1270987" d="M76.335,48H42.259A4.259,4.259,0,0,0,38,52.259v8.519a4.259,4.259,0,0,0,4.259,4.259H76.335a4.259,4.259,0,0,0,4.259-4.259V52.259A4.259,4.259,0,0,0,76.335,48ZM63.557,52.259v8.519H55.038V52.259Zm-21.3,0h8.519v8.519H42.259Zm25.557,8.519V52.259h8.519v8.519Z" transform="translate(42.923 54.227)"/>
      <path id="Path_1270988" data-name="Path 1270988" d="M44.335,23.168V6.13A2.13,2.13,0,0,0,42.205,4H8.13A2.13,2.13,0,0,0,6,6.13V23.168A2.13,2.13,0,0,0,8.13,25.3H42.205A2.13,2.13,0,0,0,44.335,23.168Zm-4.259-2.13H10.259V8.259H40.076Z" transform="translate(6.772 4.519)"/>
      <path id="Path_1270989" data-name="Path 1270989" d="M41.63,28.259H56.538a2.13,2.13,0,1,0,0-4.259H41.63a2.13,2.13,0,1,0,0,4.259Z" transform="translate(44.618 27.114)"/>
      <path id="Path_1270990" data-name="Path 1270990" d="M41.63,32.259H56.538a2.13,2.13,0,1,0,0-4.259H41.63a2.13,2.13,0,0,0,0,4.259Z" transform="translate(44.618 31.633)"/>
    </g>
  </g>
</svg>
